<?xml version="1.0" encoding="utf-8"?>
<!-- downloaded from: https://www.freevector.com/circuit-tree-vector -->
<svg version="1.1" id="Vector_Graphics" xmlns="http://www.w3.org/2000/svg" xmlns:xlink="http://www.w3.org/1999/xlink" x="0px"
	 y="0px" viewBox="0 0 361 396" style="enable-background:new 0 0 361 396;" xml:space="preserve">
<style type="text/css">
	.st0{fill:#FFFFFF;}
</style>
<g>
	<path class="st0" d="M336.5,276.7l-3.9,0l-57.6-57.6l0-3.9l0-9.5l0-14.5l0-11.4l0-0.3l-0.2-0.2L229.5,134l-0.2-0.2l-0.3,0l-11.4,0
		l-2.6,0l-10.3-10.3l0-2.6v-2.1l19-19l0.2-0.2l0-0.3l0-19.2c0.7-0.1,1.3-0.5,1.9-1l0,0l0,0l0,0l0,0c0.6-0.6,0.9-1.3,1-2.1
		c0-0.2,0-0.3,0-0.5c0-0.9-0.4-1.9-1.1-2.6l0,0l0,0l0,0l0,0c-0.7-0.7-1.7-1.1-2.6-1.1c-0.2,0-0.3,0-0.5,0c-0.8,0.1-1.5,0.4-2.1,1
		l0,0l0,0l0,0l0,0c-0.7,0.7-1.1,1.7-1.1,2.6c0,0.9,0.4,1.9,1.1,2.6l0,0l0,0l0,0l0,0c0.6,0.6,1.3,0.9,2.1,1l0,19l-19,19l-0.2,0.2
		l0,0.3l0,1.1l0,4.1l0,0.3l0.2,0.2l10.7,10.7l0.2,0.2l0.3,0l4.1,0l9.8,0l45,45l0,9.8l0,14.5l0,9.5v5.4v0.3l0.2,0.2l58,58l0.2,0.2
		l0.3,0l5.4,0h0.8l4.4,4.5l0,0.7v5.6l0,0.3l0.2,0.2l11.1,11.1l-0.1,0.8l-0.2,1.5l-82.7-82.7v-1.7l0-6.8l0-9.5l0-14.5l0-6.5l0-0.3
		l-0.2-0.2l-42-42l-0.2-0.2l-0.3,0l-6.5,0l-7.5,0L200.3,124l0-5.7l0.9-0.9l17.5-17.5l0.2-0.2l0-0.3V80l0-0.3l-0.2-0.2l-3.3-3.3
		c0.9-1.3,0.8-3.2-0.4-4.4c-1.3-1.3-3.5-1.3-4.9,0c-1.3,1.3-1.3,3.5,0,4.9c1.2,1.2,3,1.3,4.4,0.4l3.1,3.1v18.9l-17.3,17.3l-1.1,1.1
		l-0.2,0.2l0,0.3l0,6.3l0,0.3l0.2,0.2l14.6,14.6l0.2,0.2l0.3,0l9.1,0l4.9,0l41.6,41.6l0,4.9l0,14.5l0,9.5l0,6.8l0,3.3l0,0.3l0.2,0.2
		l83.8,83.8l0.9,0.9l0.2-1.3l0.3-1.8l0.3-2.1l0-0.3l-0.2-0.2l-11.1-11.1l0-4.1l0-2.2l0-0.3l-0.2-0.2l-4.8-4.8l-0.2-0.2l-0.3,0H336.5
		z M221.4,78.4c-0.5-0.5-0.7-1.2-0.7-1.8c0-0.7,0.2-1.3,0.7-1.8l0,0l0,0l0,0l0,0c0.5-0.5,1.2-0.7,1.8-0.7c0.2,0,0.5,0,0.7,0.1
		c0.4,0.1,0.8,0.3,1.1,0.6l0,0l0,0l0,0l0,0c0.3,0.3,0.5,0.7,0.7,1.1c0.1,0.2,0.1,0.5,0.1,0.7c0,0.7-0.2,1.3-0.7,1.8l0,0l0,0l0,0l0,0
		c-0.5,0.5-1.2,0.7-1.8,0.7C222.6,79.1,221.9,78.9,221.4,78.4L221.4,78.4L221.4,78.4L221.4,78.4L221.4,78.4z"/>
	<path class="st0" d="M45.3,96.1c0.4,0.1,0.8,0.2,1.1,0.2c0.7,0,1.4-0.2,2-0.5l2.7,2.7l0.2,0.2h0.3l1.2,0h0l4.6,0h4.7L82,118.3
		l0,4.7l0,1.9l0,0.3l0.2,0.2l29.2,29.2l0,2.5l0,5.1l0,0.7l0,9.2l0,0l0,0.2l0.2,0.2l7.2,7.2l0.2,0.2l0.2,0l0,0l3.7,0
		c0.1,0.7,0.4,1.3,1,1.8c1.3,1.3,3.5,1.4,4.9,0c0.4-0.4,0.7-0.8,0.8-1.3c0.4-1.2,0.1-2.6-0.8-3.6c-1-1-2.3-1.2-3.6-0.8
		c-0.5,0.2-0.9,0.4-1.3,0.8c-0.5,0.5-0.8,1.1-0.9,1.8l-3.4,0l-6.8-6.8l0-7.5l0-0.8l0-5.1l0-4l0-0.3l-0.2-0.2l-29.2-29.2v-0.4l0-5.5
		l0-0.8l0-0.1l0-0.1l-0.2-0.2L63,97.6l-0.2-0.2l-0.1,0l-0.2,0l-0.7,0l-5.5,0l-4.4,0L50,95.5l-0.5-0.5c0.7-0.8,1.1-1.8,1.1-2.7h0
		c0-0.2,0-0.4,0-0.6c-0.1-0.8-0.5-1.6-1.1-2.3l0,0l0,0l0,0l0,0c-0.6-0.6-1.4-1-2.3-1.1c-0.2,0-0.4,0-0.6,0l0,0c-1,0-2.1,0.4-2.9,1.2
		l0,0l0,0l0,0l0,0l0,0c-0.8,0.8-1.2,1.8-1.2,2.9c0,0.4,0.1,0.8,0.2,1.2c0.2,0.6,0.5,1.2,1,1.7l0,0l0,0l0,0l0,0
		C44.1,95.6,44.7,95.9,45.3,96.1z M44.5,94.2c-0.5-0.5-0.8-1.3-0.8-2c0-0.7,0.3-1.4,0.8-2l0,0l0,0l0,0l0,0l0,0
		c0.5-0.5,1.3-0.8,2-0.8l0,0c0.7,0,1.4,0.3,2,0.8l0,0l0,0l0,0l0,0c0.5,0.5,0.8,1.3,0.8,2l0,0c0,0.7-0.3,1.4-0.8,2l0,0l0,0l0,0l0,0
		l0,0c-0.5,0.5-1.3,0.8-2,0.8C45.7,95,45,94.7,44.5,94.2L44.5,94.2L44.5,94.2L44.5,94.2L44.5,94.2z"/>
	<path class="st0" d="M37.5,126.3l1.9,1.9l0.2,0.2l0.3,0l0,0l4.5,0l3.8,0l8.3-0.1l4.2,4.2l0.2,0.2l0.3,0l5.8,0l1.9,0l9.8,9.8
		l0.2,0.2l0.3,0l3,0.1l4.3,0.1l14.7,14.7l0,4.2l0,5.1v14.4l0,0l0,0.2l0.2,0.2l8.4,8.4l0.2,0.2l0.2,0l0,0l14.4,0h5.1h3.1l3.6,3.6
		l0.2,0.2l0.3,0l6.5,0l5.1,0l2.4,0l14.8,14.8l0.2,0.2h0.3l1.9,0l5.5,0l0.9,0h0.4l0.6,0l18.8,18.8l0,0.6l0,0.4l0,0.9v5.5l0,4.7l0,0.6
		l0,0.3l0.2,0.2l17.7,17.7l0,4.2l0,8.1l-38.3-38.3l-0.2-0.2l-0.3,0l-1.5,0l-5.1,0l-14.3,0l-39.1-39.1l-0.2-0.2l-0.2,0l-0.1,0l-3.8,0
		l-13.2,0l-3.6-3.6c0.9-1.3,0.8-3.2-0.4-4.4c-1.3-1.3-3.5-1.3-4.9,0c-0.1,0.1-0.2,0.2-0.3,0.4c-1,1.4-0.9,3.3,0.3,4.5
		c1.2,1.2,3,1.3,4.4,0.4l3.8,3.8l0.2,0.2l0.2,0l0.1,0l14.7,0l2.2,0l39.1,39.1l0.2,0.2l0.3,0l1.3,0l14.5,0l5.1,0l39.2,39.2l1.1,1.1
		l0,0l0-1.5l0-8.4l0-5.1l0-0.7l0-0.3l-0.2-0.2l-17.7-17.7l0-3.7l0-5.5l0-0.9l0-0.4l0-1.7v-0.4v-0.3l-0.2-0.2l-19.2-19.2l-0.2-0.2
		l-0.3,0l-0.4,0h-1.7l-0.4,0l-0.9,0l-5.5,0l-0.4,0l-14.8-14.8l-0.2-0.2l-0.3,0l-4,0l-5.1,0l-4.9,0l-3.4-3.4c0.3,0.1,0.6,0.1,0.9,0.1
		c1,0,2.1-0.4,2.9-1.2l0,0l0,0l0,0l0,0l0,0c0.8-0.8,1.2-1.8,1.2-2.9c0-0.4-0.1-0.8-0.2-1.2c-0.2-0.6-0.5-1.2-1-1.7l0,0l0,0l0,0l0,0
		c-0.5-0.5-1.1-0.8-1.7-1c-0.4-0.1-0.8-0.2-1.1-0.2l0,0c-1,0-2.1,0.4-2.9,1.2l0,0l0,0l0,0l0,0l0,0c-0.8,0.8-1.2,1.8-1.2,2.9l0,0
		c0,0.1,0,0.2,0,0.4l-5.4,0l-5.1,0l-6.2,0l-7.9-7.9l0-6.2l0-5.1l0-2l0-7.9l0-3l0-0.3l-0.2-0.2l-25.2-25.2l0-1.8l0-4.7l0-0.7l0-0.3
		l-0.2-0.2l-19.6-19.6l-0.2-0.2l-0.3,0l-0.7,0l-4.7,0l-5.1,0l-9.9,0l-5.1,0l-2,0c0-0.9-0.3-1.8-1-2.5c-1.3-1.3-3.5-1.3-4.9,0
		c-1.3,1.3-1.3,3.5,0,4.9c1.3,1.3,3.5,1.3,4.9,0c0.3-0.3,0.6-0.7,0.7-1.1l3.5,0l5.1,0l9.9,0l5.1,0l3.8,0L79.1,121l0,3.8l0,3.3l0,0.3
		l0.2,0.2l25.2,25.2l0,1.5l0,8.1l0,1.8l0,5.1l0,7.8l0,0.3l0.2,0.2l8.3,8.3l0.2,0.2l0.3,0l7.8,0h5.1l4.5,0c0.2,0.4,0.5,0.9,0.8,1.2
		l0,0l0,0l0,0l0,0c0.3,0.3,0.6,0.5,0.9,0.7l-4.3,0l-5.1,0h-12.9l-8-8l0-12.9l0-5.1l0-5.7l0-0.3l-0.2-0.2l-15-15l-0.2-0.2l-0.3,0
		l-5.9-0.1l-1.4,0l-9.8-9.8l-0.2-0.2l-0.3,0l-3.5,0l-4.3,0l-4.2-4.2l-0.2-0.2l-0.3,0l-9.8,0.1l-3.8,0l-3,0l-1.7-1.7
		c0.5-0.7,0.7-1.6,0.6-2.4c-0.1-0.7-0.4-1.4-1-2c-0.6-0.6-1.3-0.9-2-1c-1-0.1-2.1,0.2-2.9,1c-1.3,1.3-1.3,3.5,0,4.9
		C34.3,127.1,36.1,127.3,37.5,126.3z M132.5,187.3c-0.3-0.3-0.6-0.8-0.7-1.2l0-0.4l-0.1,0c0-0.1,0-0.2,0-0.4l0,0
		c0-0.7,0.3-1.4,0.8-2l0,0l0,0l0,0l0,0l0,0c0.5-0.5,1.3-0.8,2-0.8l0,0c0.7,0,1.4,0.3,2,0.8l0,0l0,0l0,0l0,0c0.5,0.5,0.8,1.3,0.8,2
		c0,0.7-0.3,1.4-0.8,2l0,0l0,0l0,0l0,0l0,0c-0.5,0.5-1.3,0.8-2,0.8C133.7,188.1,133,187.8,132.5,187.3L132.5,187.3L132.5,187.3
		L132.5,187.3L132.5,187.3z"/>
	<path class="st0" d="M81.9,110.4l5.8,0l13.9,13.9l0.2,0.2l0.3,0l2.4,0l0.9,0l5.8,0l3,3c-0.9,1.3-0.8,3.2,0.4,4.4
		c1.3,1.3,3.5,1.3,4.9,0c1.3-1.3,1.3-3.5,0-4.9c-1.2-1.2-3-1.3-4.4-0.4l-3.2-3.2l-0.2-0.2l-0.3,0l-1.8,0l-5.6,0l-0.9,0l-0.9,0
		l-13.9-13.9l-0.2-0.2l-0.3,0l-7.3,0l-1.1,0L62.5,92.1l0-1l0.1-3.6c0.7-0.1,1.4-0.4,1.9-1c0.3-0.3,0.6-0.7,0.7-1.1
		c0.1-0.2,0.2-0.5,0.2-0.7c0.2-1.1-0.1-2.3-0.9-3.1c-0.8-0.8-2-1.2-3.1-0.9c-0.2,0-0.5,0.1-0.7,0.2c-0.4,0.2-0.8,0.4-1.1,0.7
		c-1.3,1.3-1.3,3.5,0,4.9c0.5,0.5,1.1,0.8,1.7,0.9l-0.1,2.4l-0.1,2.5l0,0.3l0.2,0.2l17.5,17.5l0.2,0.2l0.3,0L81.9,110.4z"/>
	<path class="st0" d="M341.1,271.7l-8.1,0l-54.4-54.4l0-8.1l0-14.5l0-16.3l0-0.3l-0.2-0.2L226,125.6l0-17.9l6-6l0.2-0.2l0-0.3
		l0-14.8l0.4-0.4l1.6-1.6l0.4-0.4l2.9-2.9l0.2-0.2l0-0.3l0-5.4l0-3.2v-0.3l-0.2-0.2l-9.6-9.6l-0.2-0.2l-0.3,0l-3.2,0l-3.8,0
		l-1.8-1.8c0.7-1.1,0.8-2.4,0.2-3.6c-0.2-0.3-0.4-0.6-0.6-0.8c-0.3-0.3-0.5-0.5-0.8-0.6c-1.3-0.7-3-0.5-4,0.6
		c-1.3,1.3-1.3,3.5,0,4.9c1.2,1.2,3,1.3,4.4,0.4l2,2l0.2,0.2l0.2,0l0.1,0l5.3,0l1.7,0l9.2,9.2l0,1.7l0,6.4l-2.5,2.5l-0.6,0.6
		l-1.6,1.6l-0.6,0.6l-0.2,0.2v0.3l0,14.8l-6,6l-0.2,0.2l0,0.3l0,18.4l0,0.3l0.2,0.2l52.5,52.5l0,14.7l0,14.5l0,9.5v0.1l0,0.3
		l0.2,0.2l54.7,54.7l0.2,0.2l0.3,0l0.1,0l9.5,0l3.4,0l4.8,4.8l0,3.4l0,6.1l0,0.3l0.2,0.2l43.4,43.4l0.2,0.2l0.3,0l6.1,0l0.7,0
		l8.7,8.7l0.9-0.9l-0.5-0.5l-8.4-8.4l-0.2-0.2l-0.3,0l-2.2,0l-4.6,0l-43.1-43.1l0-4.6l0-4.9l0-0.3l-0.2-0.2l-5.2-5.2l-0.2-0.2
		l-0.3,0H341.1z"/>
	<path class="st0" d="M224.7,149.4c-1.3,1.3-1.3,3.5,0,4.9c1.3,1.3,3.5,1.3,4.9,0c0.5-0.5,0.8-1.1,1-1.8l3.1,0l19.6,19.6l0,4.3
		c-0.7,0.1-1.3,0.4-1.8,1c-1.2,1.2-1.3,3-0.4,4.4c0.1,0.2,0.3,0.4,0.4,0.5c0.2,0.2,0.3,0.3,0.5,0.4c1.3,0.9,3.2,0.8,4.4-0.4
		c1.3-1.3,1.3-3.5,0-4.9c-0.5-0.5-1.1-0.8-1.8-0.9l0-4.5l0-0.3l-0.2-0.2l-20-20l-0.2-0.2l-0.3,0l-3.4,0c-0.1-0.7-0.4-1.3-0.9-1.8
		C228.2,148,226,148,224.7,149.4z"/>
	<path class="st0" d="M80.7,213.2c1.2-1.2,1.3-3,0.4-4.4l0.3-0.3l2.3-2.3l12.7,0l10.9,0l7,0l32.8,32.8l0.2,0.2l0.3,0l7.5,0l3.8,0
		l8.1,0l26.1,26.1l0,4.2c-1,0.1-1.9,0.5-2.6,1.2l0,0l0,0l0,0l0,0l0,0c-0.7,0.7-1.1,1.7-1.2,2.6c0,0.1,0,0.2,0,0.3
		c0,1,0.4,2.1,1.2,2.9l0,0l0,0l0,0l0,0c0.8,0.8,1.8,1.2,2.9,1.2c0.1,0,0.2,0,0.3,0c1-0.1,1.9-0.5,2.6-1.2l0,0l0,0l0,0l0,0l0,0
		c0.8-0.8,1.2-1.8,1.2-2.9l0,0c0-1-0.4-2.1-1.2-2.9l0,0l0,0l0,0l0,0c-0.5-0.5-1.2-0.9-1.9-1.1V265l0-0.3l-0.2-0.2l-26.5-26.5
		l-0.2-0.2h-0.3h-9.6h-3.8l-6,0L115,205.1l-0.2-0.2l-0.3,0l-8.5,0l-10.9,0l-11.7,0h-0.3l-0.2,0.2l-2.5,2.5l-0.3,0.3
		c-1.3-0.9-3.2-0.8-4.4,0.4c-1.3,1.3-1.3,3.5,0,4.9C77.1,214.5,79.3,214.5,80.7,213.2z M195.3,271.6c0.5,0.5,0.8,1.3,0.8,2l0,0
		c0,0.7-0.3,1.4-0.8,2l0,0l0,0l0,0l0,0l0,0c-0.5,0.5-1.3,0.8-2,0.8c-0.5,0-0.9-0.1-1.3-0.3c-0.2-0.1-0.5-0.3-0.7-0.5l0,0l0,0l0,0
		l0,0c-0.2-0.2-0.4-0.4-0.5-0.7c-0.2-0.4-0.3-0.9-0.3-1.3c0-0.7,0.3-1.4,0.8-2l0,0l0,0l0,0l0,0l0,0c0.5-0.5,1.3-0.8,2-0.8l0,0
		C194.1,270.8,194.8,271.1,195.3,271.6L195.3,271.6L195.3,271.6L195.3,271.6L195.3,271.6z"/>
	<path class="st0" d="M51.7,161.4c0.3-0.1,0.5-0.3,0.7-0.6c0.5-0.5,0.8-1.1,0.9-1.7l6.1,0.1l0.3,0l0.2-0.2l0.1-0.1l2.8-2.8l4.6-4.6
		l1.9-1.9L70,149l13.5,0.3l0.6,0l2.9,2.9c-0.1,0.1-0.2,0.2-0.2,0.3c-0.4,0.7-0.6,1.4-0.6,2.2l0,0c0,1,0.4,2.1,1.2,2.9l0,0l0,0l0,0
		l0,0c0.8,0.8,1.8,1.2,2.9,1.2c0.8,0,1.5-0.2,2.2-0.6c0.2-0.2,0.5-0.3,0.7-0.5l0,0l0,0l0,0l0,0c0.7-0.7,1.1-1.7,1.2-2.7
		c0-0.1,0-0.1,0-0.2c0-1-0.4-2.1-1.2-2.9l0,0l0,0l0,0l0,0c-0.8-0.8-1.8-1.2-2.9-1.2l0,0c-0.1,0-0.1,0-0.2,0c-0.7,0-1.4,0.3-2,0.7
		l-3.1-3.1l-0.2-0.2l-0.3,0l-2.2,0l-12.4-0.3l-0.3,0l-0.2,0.2l-0.8,0.8l-1.9,1.9l-5.8,5.8l-1.5,1.5l-0.1,0l-5.7-0.1
		c-0.1-0.7-0.4-1.4-1-1.9c-1.3-1.3-3.5-1.3-4.9,0c-0.2,0.2-0.4,0.5-0.6,0.7c-0.7,1.3-0.6,3,0.6,4.1C48.6,162,50.3,162.1,51.7,161.4z
		 M88.2,152.8L88.2,152.8L88.2,152.8c0.5-0.6,1.3-0.8,2-0.8l0,0c0.5,0,1,0.1,1.5,0.4c0.2,0.1,0.3,0.2,0.5,0.4l0,0l0,0l0,0l0,0
		c0.2,0.2,0.3,0.3,0.4,0.5c0.3,0.5,0.4,1,0.4,1.5c0,0.7-0.3,1.4-0.8,2l0,0l0,0l0,0l0,0c-0.2,0.2-0.5,0.4-0.7,0.5
		c-0.4,0.2-0.8,0.3-1.3,0.3c-0.7,0-1.4-0.3-2-0.8l0,0l0,0l0,0l0,0c-0.5-0.5-0.8-1.3-0.8-2h0c0-0.4,0.1-0.9,0.3-1.3
		C87.8,153.2,88,153,88.2,152.8L88.2,152.8L88.2,152.8z"/>
	<path class="st0" d="M237.4,256.5l-0.6,0l-54.2-54.2l0-0.6l0-12.2v-0.3l-0.2-0.2l-10.1-10.1l-0.2-0.2l-0.3,0l-12.2,0l-0.9,0l-1.4,0
		l-14.7-14.7l-0.2-0.2l-0.3,0l-4.1,0.2c-0.1-0.8-0.5-1.6-1.1-2.2l0,0l0,0l0,0l0,0c-0.8-0.8-1.8-1.2-2.9-1.2c-0.5,0-1,0.1-1.5,0.3
		c-0.5,0.2-1,0.5-1.4,0.9l0,0l0,0l0,0l0,0c-0.3,0.3-0.5,0.6-0.7,1c-0.2,0.4-0.4,0.8-0.4,1.3c0,0.1,0,0.2,0,0.4c0,0.1,0,0.2,0,0.2
		c0,0.2,0,0.5,0.1,0.7c0.1,0.8,0.5,1.6,1.1,2.2l0,0l0,0l0,0l0,0c0.6,0.6,1.4,1,2.2,1.1c0.2,0,0.5,0.1,0.7,0.1c0.1,0,0.2,0,0.2,0
		c0.1,0,0.3,0,0.4,0c0.4-0.1,0.9-0.2,1.3-0.4c0.4-0.2,0.7-0.4,1-0.7l0,0l0,0l0,0l0,0c0.4-0.4,0.7-0.9,0.9-1.4
		c0.1-0.3,0.2-0.6,0.2-0.9l3.9-0.2l14.7,14.7l0.2,0.2l0.3,0l2.9,0l0.9,0l10.7,0l9.7,9.7l0,10.7l0,0.9l0,1.3l0,0.3l0.2,0.2l54.6,54.6
		l0.2,0.2l0.3,0h1.3l0.9,0h12.4l86.7,86.7l0,4.1l-89-89l-0.2-0.2h-0.3l-8.1,0l-0.9,0l-4.4,0l-54.5-54.5l0-4.4l0-0.9l0-7.3l0-0.3
		l-0.2-0.2l-9.8-9.8l-0.2-0.2l-0.3,0l-7.3,0l-0.6,0l-0.3,0l0,0l-0.2,0.2l-1.5,1.5c-0.7-0.6-1.6-0.8-2.5-0.8c-0.9,0-1.8,0.3-2.5,0.9
		c-0.1,0.1-0.3,0.2-0.4,0.3l0,0l0,0l0,0l0,0c-0.6,0.6-1,1.4-1.1,2.2c0,0.2-0.1,0.5-0.1,0.7c0,0.4,0.1,0.8,0.2,1.1
		c0.1,0.2,0.2,0.5,0.3,0.7c0.2,0.4,0.5,0.8,0.8,1.1l0,0l0,0l0,0l0,0c0.3,0.3,0.7,0.6,1.1,0.8c0.2,0.1,0.4,0.2,0.7,0.3
		c0.4,0.1,0.7,0.2,1.1,0.2c0.2,0,0.5,0,0.7-0.1c0.8-0.1,1.6-0.5,2.2-1.1l0,0l0,0l0,0l0,0c0.1-0.1,0.2-0.2,0.3-0.4
		c0.6-0.7,0.9-1.6,0.9-2.5l0,0c0-0.8-0.2-1.6-0.7-2.3l1.4-1.4l0.7,0l0.9,0l5.8,0l9.4,9.4l0,5.8l0,0.9l0,6l0,0.3l0.2,0.2l54.9,54.9
		l0.2,0.2h0.3l6,0l0.9,0l6.6,0l89.9,89.9l1.1,1.1l0-1.5l0-5.9V344l-0.2-0.2l-87.1-87.1l-0.2-0.2l-0.3,0L237.4,256.5z M136,162.8
		c0.5,0.5,0.8,1.2,0.8,1.9l0,0.1l0,0.1c0,0.1,0,0.2,0,0.4c-0.1,0.6-0.4,1.1-0.8,1.5l0,0l0,0l0,0l0,0c-0.3,0.3-0.7,0.5-1,0.7
		c-0.3,0.1-0.6,0.2-1,0.2c-0.2,0-0.5,0-0.7-0.1c-0.2-0.1-0.5-0.2-0.7-0.3c-0.2-0.1-0.4-0.3-0.6-0.5l0,0l0,0l0,0l0,0
		c-0.2-0.2-0.3-0.4-0.5-0.6c-0.1-0.2-0.2-0.5-0.3-0.7c-0.1-0.2-0.1-0.5-0.1-0.7c0-0.3,0.1-0.6,0.2-0.9c0.1-0.4,0.4-0.7,0.7-1l0,0
		l0,0l0,0l0,0c0.4-0.4,1-0.7,1.6-0.8c0.1,0,0.3,0,0.4,0C134.7,162,135.4,162.3,136,162.8L136,162.8L136,162.8L136,162.8L136,162.8z
		 M160,185.3c0.2,0.4,0.4,0.9,0.4,1.4l0,0c0,0.6-0.2,1.1-0.5,1.6c-0.1,0.1-0.2,0.3-0.3,0.4l0,0l0,0l0,0l0,0c-0.5,0.5-1.3,0.8-2,0.8
		c-0.2,0-0.4,0-0.6-0.1c-0.5-0.1-1-0.4-1.4-0.8l0,0l0,0l0,0l0,0c-0.4-0.4-0.7-0.9-0.8-1.4c0-0.2-0.1-0.4-0.1-0.6
		c0-0.7,0.3-1.4,0.8-2l0,0l0,0l0,0l0,0c0.1-0.1,0.2-0.2,0.4-0.3c0.5-0.3,1-0.5,1.6-0.5c0.5,0,1.1,0.2,1.6,0.5l-0.1,0.1l0.5,0.5
		L160,185.3L160,185.3z"/>
	<path class="st0" d="M367.2,176.9c-0.8,0.8-1.2,2-0.9,3.1c0.1,0.4,0.3,0.9,0.5,1.3l-4.1,4.1l-4.8,0l-6.7,0l-0.3,0l-0.2,0.2
		l-1.4,1.4l-6.3,6.3l-1.6,1.6l-10.3,10.3l-0.2,0.2v0.3l0,11.1l-7.2,7.2l-0.2,0.2l0,0.3l0,15.4l0,0.7l0,0.3l0.2,0.2l12.8,12.8
		c-0.5,0.7-0.8,1.5-0.8,2.4l0,0c0,1,0.4,2.1,1.2,2.9l0,0l0,0l0,0l0,0c0.8,0.8,1.8,1.2,2.9,1.2c1,0,2.1-0.4,2.9-1.2l0,0l0,0l0,0l0,0
		l0,0c0.8-0.8,1.2-1.8,1.2-2.9c0-1-0.4-2.1-1.2-2.9l0,0l0,0l0,0l0,0c-0.8-0.8-1.8-1.2-2.9-1.2c-0.9,0-1.7,0.3-2.4,0.8l-12.6-12.6
		l0-15.5l7.2-7.2l0.2-0.2l0-0.3l0-11.1l10.1-10.1l1.6-1.6l6.3-6.3l1.2-1.2l7.7,0l3.8,0l0.3,0l0.2-0.2l4.3-4.3
		c0.4,0.3,0.8,0.4,1.3,0.5c1.1,0.2,2.3-0.1,3.1-0.9c1.3-1.3,1.3-3.5,0-4.9C370.7,175.6,368.5,175.6,367.2,176.9z M339.9,253.3
		c0.7,0,1.4,0.3,2,0.8l0,0l0,0l0,0l0,0c0.5,0.5,0.8,1.3,0.8,2c0,0.7-0.3,1.4-0.8,2l0,0l0,0l0,0l0,0l0,0c-0.5,0.5-1.3,0.8-2,0.8
		c-0.7,0-1.4-0.3-2-0.8l0,0l0,0l0,0l0,0c-0.5-0.5-0.8-1.3-0.8-2l0,0c0-0.7,0.3-1.4,0.8-2l0,0l0,0l0,0l0,0l0,0
		C338.5,253.6,339.2,253.3,339.9,253.3z"/>
	<path class="st0" d="M251.6,47.5l0,0.3l0,12.3l-2.7,2.7l-6.3,6.3l-9.9-9.9l0-8.1l0-0.3l-0.2-0.2l-12.9-12.9v-4.2l0-4
		c0.7-0.1,1.3-0.4,1.8-1c1.3-1.3,1.3-3.5,0-4.9c-1.3-1.3-3.5-1.3-4.9,0c-1.3,1.3-1.3,3.5,0,4.9c0.5,0.5,1.1,0.8,1.8,1l0,2.7l0,5.8
		l0,0.3l0.2,0.2l12.9,12.9l0,7.7l0,0.5l0,0.3l0.2,0.2l10.5,10.5l0.5,0.5l0.4-0.4l0.1-0.1l6.8-6.8l2.9-2.9l0.2-0.2l0-0.3l0-12.3
		l1.4-1.4l3.7-3.7l0.2-0.2l0-0.3l0-6.1c0.7-0.1,1.3-0.4,1.8-1c1.3-1.3,1.3-3.5,0-4.9c-1.3-1.3-3.5-1.3-4.9,0c-1.3,1.3-1.3,3.5,0,4.9
		c0.5,0.5,1.1,0.8,1.8,1l0,5.8l-3.5,3.5l-1.5,1.5L251.6,47.5z"/>
	<path class="st0" d="M253.9,94.9c1.1,1.1,2.8,1.3,4.1,0.6c0.3-0.2,0.6-0.4,0.8-0.6c1.3-1.3,1.3-3.5,0-4.9c-1.3-1.3-3.5-1.3-4.9,0
		c-0.2,0.2-0.4,0.5-0.6,0.8C252.6,92.2,252.8,93.8,253.9,94.9z"/>
	<path class="st0" d="M378.8,130.1c-0.5,0.5-0.8,1.1-1,1.8l-1.1,0h-0.3l-0.2,0.2l-2.6,2.7l-6.9,7.1l-14.7,0l-0.5-0.5l-3.2-3.2
		l-0.2-0.2l-0.3,0l-2.3,0l-4.4,0l-0.3,0l-0.2,0.2l-6.4,6.4c-1.1-0.8-2.6-0.8-3.7-0.1c-0.2,0.1-0.5,0.3-0.7,0.5
		c-1.3,1.3-1.3,3.5,0,4.9c1.3,1.3,3.5,1.3,4.9,0c0.2-0.2,0.4-0.4,0.5-0.7c0.7-1.1,0.6-2.6-0.1-3.7l6.2-6.2l5.4,0l0.7,0l2.5,2.5
		l1.1,1.1l0.2,0.2l0.3,0H367l0.3,0l0.2-0.2l8.7-8.9l0.9-0.9l0.8,0c0.1,0.7,0.4,1.3,1,1.8c1.3,1.3,3.5,1.3,4.9,0
		c1.3-1.3,1.3-3.5,0-4.9C382.3,128.8,380.1,128.8,378.8,130.1z"/>
	<path class="st0" d="M249.5,84.8l0-7.8l0-6.4l3.6-3.6l4.9-4.9l1.2-1.2l0.2-0.2l0-0.2l0.2-4.9c0.9-0.1,1.7-0.5,2.4-1.2l0,0l0,0l0,0
		l0,0l0,0c0.8-0.8,1.2-1.8,1.2-2.9c0-1-0.4-2.1-1.2-2.9l0,0l0,0l0,0l0,0c-0.8-0.8-1.8-1.2-2.9-1.2c-1,0-2.1,0.4-2.9,1.2l0,0l0,0l0,0
		l0,0l0,0c-0.8,0.8-1.2,1.8-1.2,2.9c0,1,0.4,2.1,1.2,2.9l0,0l0,0l0,0l0,0c0.6,0.6,1.3,1,2.1,1.1l-0.2,4.7l-5.9,5.9l-3.8,3.8
		l-0.2,0.2l0,0.3l0,5.4l0,9.3l0,0.3l0.2,0.2l5,5l0.5-0.5l0.4-0.4L249.5,84.8z M257.1,53.5c-0.5-0.5-0.8-1.3-0.8-2
		c0-0.7,0.3-1.4,0.8-2l0,0l0,0l0,0l0,0l0,0c0.5-0.5,1.3-0.8,2-0.8c0.7,0,1.4,0.3,2,0.8l0,0l0,0l0,0l0,0c0.5,0.5,0.8,1.3,0.8,2
		c0,0.7-0.3,1.4-0.8,2l0,0l0,0l0,0l0,0l0,0c-0.5,0.5-1.1,0.8-1.8,0.8l-0.6,0C258.1,54.2,257.6,53.9,257.1,53.5L257.1,53.5
		L257.1,53.5L257.1,53.5L257.1,53.5z"/>
	<path class="st0" d="M279.4,59.4l-0.2,0.2v0.3l0,11.8l0,1.6l0,0.3l0.2,0.2l5.1,5.1l0,16.2l0,0.3l0.2,0.2l11.6,11.6l1.9,1.9l0,3.1
		l-0.1,4.3l0,0.3l0.2,0.2l7.2,7.2v9l0,7.1l-1.5,1.5l-2.5,2.5c-1.3-0.9-3.2-0.8-4.4,0.4c-0.5,0.5-0.9,1.2-1,1.9c-0.2,1.1,0.1,2.2,1,3
		c0.8,0.8,1.9,1.1,3,1c0.7-0.1,1.3-0.4,1.9-1c1.2-1.2,1.3-3,0.4-4.4l2.5-2.5l1.7-1.7l0.2-0.2l0-0.3v-6.1l0-10.6l0-0.3l-0.2-0.2
		l-7.2-7.2l0-2.8l0.1-4.6l0-0.3l-0.2-0.2l-3.1-3.1l-10.4-10.4V78.4l0-0.3l-0.2-0.2l-5.1-5.1l0,0V60.1l9.8-9.8l0.2-0.2l0-0.2l0.4-5.1
		c0.8-0.1,1.5-0.4,2.1-1c1.3-1.3,1.3-3.5,0-4.9c-1.3-1.3-3.5-1.3-4.9,0c-1.3,1.3-1.3,3.5,0,4.9c0.4,0.4,1,0.7,1.5,0.9l-0.4,4.9
		L279.4,59.4z"/>
	<path class="st0" d="M92.9,79c0.7-0.1,1.3-0.4,1.8-1c1.3-1.3,1.3-3.5,0-4.9c-1.3-1.3-3.5-1.3-4.9,0c-1.3,1.3-1.3,3.5,0,4.9
		c0.5,0.5,1.1,0.8,1.8,1l0,3.5l0,0.3l0.2,0.2L106.9,98l0.2,0.2l0.3,0l2.3,0l20.9,0l7.8,7.8l0,22.4l0,0.3l0.2,0.2l4.2,4.2l0,7.9
		c-0.7,0.1-1.3,0.4-1.8,0.9c-1.3,1.3-1.3,3.5,0,4.9c1.3,1.3,3.5,1.3,4.9,0c1.3-1.3,1.3-3.5,0-4.9c-0.5-0.5-1.1-0.8-1.8-0.9l0-8.2
		l0-0.3l-0.2-0.2l-4.2-4.2l0-21.3l0-1.2l0-0.3l-0.2-0.2l-8.2-8.2l-0.2-0.2h-0.3l-1.2,0l-20.9,0l-1.1,0L92.9,82.2L92.9,79z"/>
	<path class="st0" d="M246.6,316.3l-0.2-0.2l-36.2-36.2l-0.2-0.2l-0.3,0l-10.3,0l-3.8,0l-14.8,0l-3.6,0l-7.7-7.7l0-3.6v-1.4l0-0.3
		l-0.2-0.2l-3.8-3.8l-0.2-0.2l-0.3,0l-1.4,0l-4,0l-6.8,0h-1.5l-15.8-15.8l0-1.5l0-6.3l15.2,15.2l0.2,0.2l0.3,0l2.5,0
		c0.1,0.7,0.4,1.3,1,1.8c0.9,0.9,2.3,1.2,3.5,0.9c0.5-0.2,1-0.4,1.4-0.9c1.3-1.3,1.3-3.5,0-4.9c-1.3-1.3-3.5-1.3-4.9,0
		c-0.4,0.4-0.7,0.9-0.9,1.4c0,0.1-0.1,0.3-0.1,0.4l-2.2,0l-16.1-16.1l-1.1-1.1v1.5v6.6l0,3l0,0.3l0.2,0.2l16.2,16.2l0.2,0.2l0.3,0
		l3,0l5.8,0l4.9,0l3.4,3.4l0,5.1l0,0.3l0.2,0.2l8.1,8.1l0.2,0.2l0.3,0l5.2,0l14.8,0l3.8,0l8.7,0l35.9,35.9l0,2.4l-35.9-35.9
		l-0.2-0.2l-0.3,0l-6.1,0l-3.8,0l-14.8,0l-10.9,0H173l-10-10c0-0.1,0.1-0.2,0.1-0.2c0.3-0.6,0.4-1.2,0.4-1.8c0-1-0.4-2.1-1.2-2.9
		l0,0l0,0l0,0l0,0c-0.8-0.8-1.8-1.2-2.9-1.2l0,0c-0.6,0-1.2,0.1-1.8,0.4c-0.4,0.2-0.8,0.4-1.1,0.8l0,0l0,0l0,0l0,0
		c-0.8,0.8-1.2,1.8-1.2,2.9c0,1,0.4,2.1,1.2,2.9l0,0l0,0l0,0l0,0c0.8,0.8,1.8,1.2,2.9,1.2c1,0,2-0.3,2.7-1l10.1,10.1l0.2,0.2l0.3,0
		l1.9,0l10.9,0l14.8,0l3.8,0h4.6l36.8,36.8l1.1,1.1l0-1.5l0-4.2L246.6,316.3z M161.5,273.1L161.5,273.1L161.5,273.1
		c-0.5,0.6-1.3,0.8-2,0.8c-0.7,0-1.4-0.3-2-0.8l0,0l0,0l0,0l0,0c-0.5-0.5-0.8-1.3-0.8-2c0-0.7,0.3-1.4,0.8-2l0,0l0,0l0,0l0,0
		c0.3-0.3,0.7-0.6,1.2-0.7c0.3-0.1,0.6-0.1,0.8-0.1l0,0c0.7,0,1.4,0.3,2,0.8l0,0l0,0l0,0l0,0c0.5,0.5,0.8,1.3,0.8,2
		c0,0.3,0,0.6-0.1,0.8C162.1,272.3,161.8,272.7,161.5,273.1L161.5,273.1L161.5,273.1z"/>
	<path class="st0" d="M92.7,91.3c1.3-1.3,1.3-3.5,0-4.9c-1.2-1.2-3-1.3-4.4-0.4l-1.7-1.7l0-13.8l7.7-7.7l0.6-0.6l1-1l0.2-0.2v-0.3
		l0-3.1l0-2c0.3-0.1,0.7-0.2,1-0.4c0.3-0.2,0.7-0.4,1-0.7l0,0l0,0l0,0l0,0l0,0c0.8-0.8,1.2-1.8,1.2-2.9c0-0.8-0.2-1.6-0.7-2.3
		c-0.1-0.2-0.3-0.4-0.5-0.6l0,0l0,0l0,0l0,0c-0.2-0.2-0.4-0.3-0.6-0.5c-0.7-0.5-1.5-0.7-2.3-0.7c-1,0-2.1,0.4-2.9,1.2l0,0l0,0l0,0
		l0,0l0,0c-0.3,0.3-0.5,0.6-0.7,1c-0.3,0.6-0.5,1.3-0.5,1.9l0,0c0,0.3,0,0.7,0.1,1c0.2,0.7,0.5,1.3,1.1,1.9l0,0l0,0l0,0l0,0
		c0.5,0.5,1.2,0.9,1.9,1.1c0.2,0.1,0.5,0.1,0.7,0.1l0,0.6V59l0,1.5l-0.2,0.2l-0.6,0.6l-8.5,8.5l-0.2,0.2l0,0.3l0,14.3l0,0.3l0.2,0.2
		l1.9,1.9c-0.9,1.3-0.8,3.2,0.4,4.4C89.2,92.6,91.4,92.6,92.7,91.3z M93.2,53.8c-0.5-0.5-0.8-1.3-0.8-2l0,0c0-0.3,0.1-0.6,0.2-1
		c0.1-0.4,0.4-0.7,0.7-1l0,0l0,0l0,0l0,0l0,0c0.5-0.5,1.3-0.8,2-0.8c0.7,0,1.4,0.3,2,0.8l0,0l0,0l0,0l0,0c0.5,0.5,0.8,1.3,0.8,2
		c0,0.7-0.3,1.4-0.8,2l0,0l0,0l0,0l0,0l0,0c-0.3,0.3-0.7,0.5-1,0.7l0,0l0,0l-0.6,0l-0.6,0l0,0.2C94.3,54.6,93.7,54.3,93.2,53.8
		L93.2,53.8L93.2,53.8L93.2,53.8L93.2,53.8z"/>
	<path class="st0" d="M49.4,243.8l0-5l0-0.3l-0.2-0.2l-1.8-1.8c0.9-1.3,0.8-3.2-0.4-4.4c-1.3-1.3-3.5-1.3-4.9,0
		c-0.9,0.9-1.2,2.3-0.8,3.5c0.2,0.5,0.4,1,0.8,1.4c0.4,0.4,0.9,0.7,1.4,0.8c1,0.3,2.1,0.2,3-0.4l1.6,1.6l0,3.4l0,2.1l0,0.3l0.2,0.2
		l10.5,10.5l0.2,0.2l0.3,0l2.1,0l4.4,0h0.3l0.2-0.2l5.4-5.4h1.5l2.7,0l1.7,0l3.1,0l5.8,0l0.3,0l0.2-0.2l2.8-2.8l4.9-4.9h17.9
		l52.9,52.9l0.2,0.2l0.3,0l2.6,0l17.4,0l10.9,0l7.2,0l23.7,23.7l0,7.2l0,7.9l-1.5,1.5l-1.2,1.2l0-2.3l0-10.9l0-2.1v-0.3l-0.2-0.2
		l-24.1-24.1l-0.2-0.2h-0.3l-2.1,0l-10.9,0l-17.4,0l-6.2,0l-51.2-51.2l-0.2-0.2l-0.3,0l-7,0l-0.3,0l-0.2,0.2l-2.3,2.3
		c-1.3-0.9-3.2-0.8-4.4,0.4c-1.3,1.3-1.3,3.5,0,4.9c1.3,1.3,3.5,1.3,4.9,0c1.2-1.2,1.3-3,0.4-4.4l2.1-2.1h6.5l51.2,51.2l0.2,0.2
		l0.3,0l7.7,0l17.4,0l10.9,0l0.6,0l23.8,23.8l0,0.6l0,10.9l0,5.1l0,1.5l1.1-1.1l2.2-2.2l1.7-1.7l0.2-0.2l0-0.3l0-6.9v-8.8l0-0.3
		l-0.2-0.2l-24.1-24.1l-0.2-0.2l-0.3,0l-8.8,0l-10.9,0l-17.4,0l-1.1,0l-52.9-52.9l-0.2-0.2l-0.3,0l-18.4,0l-0.3,0l-0.2,0.2l-5.6,5.6
		l-2.1,2.1h-6.8l-3.1,0l-1.7,0l-2.7,0h-0.5l-0.3,0l-0.2,0.2l-5.4,5.4h-5.4h-0.6l-10.2-10.2V243.8z"/>
	<path class="st0" d="M231.3,128.3l0.2,0.2l48.5,48.5l0,19.2l0,14.5l0,4.9l0,0.3l0.2,0.2l22.5,22.5l0.2,0.2l0.3,0h4.9h12.4l0.6,0
		l0-0.6l0-0.9l0-14.1l5.5-5.5l0.2-0.2l0-0.3l0-12.7l12.2-12.2l1.6-1.6l1.7-1.7l0.2-0.2l0-0.3l0-8.5l0-5.3l2.4-2.4l2.5-2.5
		c1.3,0.9,3.2,0.8,4.4-0.4c0.8-0.8,1.1-1.8,1-2.9c-0.1-0.7-0.4-1.5-1-2c-0.6-0.6-1.3-0.9-2-1c-1-0.1-2.1,0.2-2.9,1
		c-1.2,1.2-1.3,3-0.4,4.4l-2.5,2.5l-2.6,2.6l-0.2,0.2l0,0.3l0,4.3l0,9.6l-1.5,1.5l-1.6,1.6l-12.4,12.4l-0.2,0.2l0,0.3l0,12.7
		l-5.5,5.5l-0.2,0.2v0.3l0,13l0,1.5l-13,0l-3.4,0l-22.1-22.1V212v-14.5l0-20.8v-0.3l-0.2-0.2l-48.5-48.5l0-4.4
		c0.7-0.1,1.3-0.4,1.8-1c1.3-1.3,1.3-3.5,0-4.9c-1.3-1.3-3.5-1.3-4.9,0c-1.3,1.3-1.3,3.5,0,4.9c0.5,0.5,1.1,0.8,1.8,1l0,4.7
		L231.3,128.3z"/>
	<path class="st0" d="M239.4,81.3l-3.7,3.7l-0.2,0.2l0,0.3l0,0.3v3.2v4.4l0,0.3l0.2,0.2l10.6,10.6l0,18.1l0,0.3l0.2,0.2l6.7,6.7
		l0,15l0,0.3l0.2,0.2l31.6,31.6l0,11.1l0,1.5l1.1-1.1l4.1-4.1l0.2-0.2v-0.3v-11.7v-0.3l-0.2-0.2l-19-19l0-11.8l4.8,0l4.1,4.1
		c-0.8,1.3-0.7,3.1,0.5,4.3c1.2,1.2,2.9,1.3,4.3,0.5l15.9,15.9v16.2l-15.6,15.6l-0.2,0.2l0,0.3v3.6l0,14.5l0,0.6l0,0.3l0.2,0.2
		l15.9,15.9l0.2,0.2l0.3,0l0.6,0l4.1,0l1.5,0l-1.1-1.1l-16.3-16.3l0-8.9l0-6.6l17.4-17.4l0.2-0.2l0-0.3l0-20.8v-3.2l0-10.3l1.2-1.2
		l3.6-3.6l0.1-0.1c-0.1,0.4-0.2,0.8-0.2,1.3l0,0c0,1,0.4,2.1,1.2,2.9l0,0l0,0l0,0l0,0c0.8,0.8,1.8,1.2,2.9,1.2c1,0,2.1-0.4,2.9-1.2
		l0,0l0,0l0,0l0,0l0,0c0.7-0.7,1.1-1.7,1.2-2.6l8.1,0l0.3,0l0.2-0.2l0.6-0.6l6.2-6.2l0.2-0.2l0-0.3l0-3.8l2.2-2.2l10.2-10.2l0.2-0.2
		v-0.3l0-7.6l0-0.3l-0.2-0.2l-5.3-5.3v-2c0.7-0.1,1.3-0.4,1.8-1c1.3-1.3,1.3-3.5,0-4.9c-1.3-1.3-3.5-1.3-4.9,0
		c-1.3,1.3-1.3,3.5,0,4.9c0.5,0.5,1.1,0.8,1.8,1v2.3l0,0.3l0.2,0.2l5.3,5.3l0,7.1l-10,10l-2.4,2.4l-0.2,0.2l0,0.3l0,3.8l-6.1,6.1
		l-0.4,0.4h-7.9c-0.2-0.7-0.5-1.4-1.1-1.9l0,0l0,0l0,0l0,0c-0.8-0.8-1.8-1.2-2.9-1.2c-1,0-2.1,0.4-2.9,1.2l0,0l0,0l0,0l0,0l0,0
		c-0.4,0.4-0.7,0.9-0.9,1.4l0-0.1v-2.2l0-13.7l0-9.8l0-0.3l-0.2-0.2L299,102.7l0-5.2l0-0.3l-0.2-0.2l-5.9-5.9l0-5.9l0-12.4l11-11
		l0.2-0.2l0-0.3l-0.2-1.5c0.5-0.2,1-0.4,1.4-0.9c1.3-1.3,1.3-3.5,0-4.9c-1.3-1.3-3.5-1.3-4.9,0c-1.3,1.3-1.3,3.5,0,4.9
		c0.6,0.6,1.4,1,2.2,1l0.1,1.2l-10.9,10.9l-0.2,0.2l0,0.3V84l0,7.4l0,0.3l0.2,0.2l5.9,5.9l0,5.2l0,0.3l0.2,0.2l13.7,13.7l0,8.3
		l0,13.7l0,3.2l-3.4,3.4l-1.3,1.3l-0.2,0.2l0,0.3v9.3l0,3.2l0,21.8l-17.4,17.4l-0.2,0.2l0,0.3l0,5.6l0,10.5v0.3l0.2,0.2l15.4,15.4
		l-2.9,0L286.2,216v-13.6l0-4.6l15.6-15.6l0.2-0.2l0-0.3l0-16.7l0-0.3l-0.2-0.2l-16.1-16.1c1-1.4,0.9-3.3-0.3-4.5
		c-1.2-1.2-3.2-1.3-4.5-0.3l-4.2-4.2l-0.2-0.2l-0.3,0l-5.7,0l-0.6,0l0,0.6l0,12.7l0,0.3l0.2,0.2l19,19v11.2l-2.8,2.8l0-9.8l0-0.3
		l-0.2-0.2l-31.6-31.6l0-15l0-0.3l-0.2-0.2l-6.7-6.7l0-18.1v-0.3l-0.2-0.2L236.8,93v-2.8l0-3.2l0-1.3l3.7-3.7l0.2-0.2l0-0.3l0-3.3
		l0-7.7l0-0.3l-0.2-0.2L224,53.6l0-2.1l0-5.7v-0.3l-0.2-0.2l-9.6-9.6v-7.7l0-13.8c0.7-0.1,1.3-0.4,1.8-1c1.3-1.3,1.3-3.5,0-4.9
		c-1.3-1.3-3.5-1.3-4.9,0c-1.3,1.3-1.3,3.5,0,4.9c0.5,0.5,1.1,0.8,1.8,1l0,12.5l0,9.3l0,0.3l0.2,0.2l9.6,9.6l0,4.1l0,3.6v0.3
		l0.2,0.2l16.5,16.5V77L239.4,81.3z M314.7,142.2L314.7,142.2L314.7,142.2L314.7,142.2L314.7,142.2L314.7,142.2
		c0.6-0.6,1.3-0.8,2-0.8c0.7,0,1.4,0.3,2,0.8l0,0l0,0l0,0l0,0c0.5,0.5,0.8,1.3,0.8,2c0,0.7-0.3,1.4-0.8,2l0,0l0,0l0,0l0,0l0,0
		c-0.5,0.5-1.3,0.8-2,0.8c-0.7,0-1.4-0.3-2-0.8l0,0l0,0l0,0l0,0c-0.5-0.5-0.8-1.3-0.8-2l0,0C313.9,143.5,314.2,142.8,314.7,142.2z"
		/>
	<path class="st0" d="M77.5,355.6c0.5-0.5,0.8-1.1,1-1.8l4.1,0l0.6,0l5.4,5.4l0.2,0.2l0.3,0l8.9,0l0.3,0l0.2-0.2l12.5-12.5l4.6,0
		l6.3,0l9.7,0h0.3l0.2-0.2l0.4-0.4l5-5l1.9-1.9c0.7,0.5,1.5,0.7,2.3,0.7c1,0,2.1-0.4,2.9-1.2l0,0l0,0l0,0l0,0l0,0
		c0.8-0.8,1.2-1.8,1.2-2.9c0-1-0.4-2.1-1.2-2.9l0,0l0,0l0,0l0,0c-0.8-0.8-1.8-1.2-2.9-1.2l0,0c-1,0-2.1,0.4-2.9,1.2l0,0l0,0l0,0l0,0
		l0,0c-0.8,0.8-1.2,1.8-1.2,2.9c0,0.9,0.3,1.8,0.8,2.5l0,0l-1.9,1.9l-5,5l-0.2,0.2l-10.7,0l-6.3,0l-3.5,0l-0.3,0l-0.2,0.2
		l-12.5,12.5l-8.4,0l-5.4-5.4l-0.2-0.2l-0.3,0l-2.2,0l-2.8,0c-0.1-0.7-0.4-1.3-1-1.8c-1.3-1.3-3.5-1.3-4.9,0c-1.3,1.3-1.3,3.5,0,4.9
		C73.9,357,76.1,357,77.5,355.6z M139.5,337.9c-0.5-0.5-0.8-1.3-0.8-2c0-0.7,0.3-1.4,0.8-2l0,0l0,0l0,0l0,0l0,0
		c0.5-0.5,1.3-0.8,2-0.8l0,0c0.7,0,1.4,0.3,2,0.8l0,0l0,0l0,0l0,0c0.5,0.5,0.8,1.3,0.8,2c0,0.7-0.3,1.4-0.8,2l0,0l0,0l0,0l0,0l0,0
		c-0.5,0.5-1.3,0.8-2,0.8C140.8,338.7,140.1,338.5,139.5,337.9L139.5,337.9L139.5,337.9L139.5,337.9L139.5,337.9z"/>
	<path class="st0" d="M213.4,333.4l-0.2-0.2l-24.4-24.4l-0.2-0.2l-0.3,0l-6.9,0l-0.6,0l-0.3,0l-0.2,0.2l-13.7,13.7l-14,0l-3.1,0H148
		l-2.7,0H130l-0.3,0l-0.2,0.2l-0.7,0.7l-4.8,4.8l-1.6,1.6l-6.7,0l-11,0l-6.3,0l-4.8,0L81.8,318l-0.2-0.2l-0.3,0H67.6h-0.3l-0.2,0.2
		l-7.4,7.4c-0.7-0.6-1.6-0.9-2.5-0.9l0,0c-1,0-2.1,0.4-2.9,1.2l0,0l0,0l0,0l0,0l0,0c-0.8,0.8-1.2,1.8-1.2,2.9c0,1,0.4,2.1,1.2,2.9
		l0,0l0,0l0,0l0,0c0.8,0.8,1.8,1.2,2.9,1.2c1,0,2.1-0.4,2.9-1.2l0,0l0,0l0,0l0,0l0,0c0.8-0.8,1.2-1.8,1.2-2.9c0-0.8-0.2-1.6-0.7-2.3
		l7.2-7.2l13.2,0l11.7,11.7l0.2,0.2l0.3,0h6.4l6.3,0l11,0l5.7,0l0.3,0l0.2-0.2l1.8-1.8l4.8-4.8l0.5-0.5l16.3,0l2.7,0l1.7,0l3.1,0
		l13,0l0.3,0l0.2-0.2l13.7-13.7l1.6,0l5.4,0l24.1,24.1l0,5.4l0,0l-9.4,0l-0.3,0l-0.2,0.2l-9.2,9.2h-7.7l-0.3,0l-0.2,0.2l-2.9,2.9
		l-1.5,1.5l-0.9,0.9l-1.3,1.3l-2.9,2.9l-10.7,0c-0.1-0.7-0.4-1.3-0.9-1.8c-0.7-0.7-1.7-1.1-2.6-1c-0.8,0-1.6,0.4-2.3,1
		c-0.5,0.5-0.8,1.1-0.9,1.8l-3.6,0l-3.1,0l-0.3,0l-0.2,0.2l-2.1,2.1c-0.8-0.5-1.7-0.7-2.6-0.5c-0.7,0.1-1.3,0.4-1.8,1
		c-1.3,1.3-1.3,3.5,0,4.9c1.3,1.3,3.5,1.3,4.9,0c0.5-0.5,0.8-1.2,1-1.8c0.2-0.9,0-1.8-0.5-2.6l1.9-1.9l4.1,0l2.3,0
		c0.1,0.7,0.4,1.3,1,1.8c1.3,1.3,3.5,1.3,4.9,0c0.5-0.5,0.8-1.2,1-1.8l0.5,0l10.5,0l0.3,0l0.2-0.2l3.1-3.1l1.3-1.3l0.9-0.9l1.5-1.5
		l2.7-2.7l7.7,0l0.3,0l0.2-0.2l9.2-9.2l9.7,0l0.6,0l0,0l0-0.6l0-6.3L213.4,333.4z M58.9,326.3l0.8,0.8c0.3,0.4,0.4,0.9,0.4,1.4
		c0,0.7-0.3,1.4-0.8,2l0,0l0,0l0,0l0,0l0,0c-0.5,0.5-1.3,0.8-2,0.8c-0.7,0-1.4-0.3-2-0.8l0,0l0,0l0,0l0,0c-0.5-0.5-0.8-1.3-0.8-2
		c0-0.7,0.3-1.4,0.8-2l0,0l0,0l0,0l0,0l0,0c0.5-0.5,1.3-0.8,2-0.8l0,0C57.9,325.8,58.4,325.9,58.9,326.3L58.9,326.3z"/>
	<path class="st0" d="M248.4,347.3l-10.9,0l-10.3,0l-7.7-7.7l0-10.3l0-4.9l0-0.3l-0.2-0.2l-22.8-22.8l-0.2-0.2l-0.3,0l-5-0.1
		l-17.7-0.3l-19.4-0.3l-15.9-15.9l-0.2-0.2l-0.3,0l-7.2,0l-10.2-10.2l-0.2-0.2l-0.3,0l-5.3-0.2l-0.3,0l-0.2,0.2l-3.4,3.4
		c-0.7-0.6-1.6-0.9-2.5-0.9c-0.5,0-0.9,0.1-1.3,0.2c-0.6,0.2-1.1,0.5-1.6,1l0,0l0,0l0,0l0,0c-0.1,0.1-0.2,0.2-0.2,0.3
		c-0.3,0.3-0.5,0.7-0.7,1.1c-0.2,0.5-0.3,1-0.3,1.5c0,0.3,0,0.7,0.1,1c0.1,0.5,0.4,1,0.7,1.5l-1.6,1.6l-13.3,0l-1.7,0l-0.3,0
		l-0.2,0.2l-3.6,3.6l-2.8,2.8c-1.3-0.9-3-0.8-4.2,0.2c-0.1,0.1-0.2,0.1-0.2,0.2c-1.3,1.3-1.3,3.5,0,4.9c1.3,1.3,3.5,1.3,4.9,0
		c0.1-0.1,0.1-0.1,0.2-0.2c1-1.2,1.1-2.9,0.2-4.2l2.8-2.8l3.4-3.4l2.8,0l12.3,0l0.3,0l0.2-0.2l1.9-1.9c0.4,0.3,0.8,0.5,1.3,0.6
		c0.3,0.1,0.7,0.1,1,0.1c0.5,0,1-0.1,1.5-0.3c0.4-0.2,0.8-0.4,1.1-0.7c0.1-0.1,0.2-0.2,0.3-0.3l0,0l0,0l0,0l0,0c0.5-0.5,0.8-1,1-1.6
		c0.1-0.4,0.2-0.9,0.2-1.3l0,0c0-0.8-0.2-1.6-0.7-2.3l3.2-3.2l4.7,0.2l10.2,10.2l0.2,0.2l0.3,0l7.2,0l15.9,15.9l0.2,0.2l0.3,0
		l21,0.4l17.7,0.3l3.5,0.1l22.5,22.5l0,3.4l0,11.8l0,0.3l0.2,0.2l8,8l0.2,0.2l0.3,0l11.8,0l10.9,0l11.9,0l43.2,43.2l0,9.9l0,0.3
		l0.2,0.2l20.1,20.1l1.6,1.6l0.9-0.9L306,401.3l0-9.9l0-0.3l-0.2-0.2l-43.5-43.5l-0.2-0.2l-0.3,0L248.4,347.3z M110.4,278.3
		L110.4,278.3c0.6,0.7,0.9,1.6,0.8,2.5c-0.1,0.6-0.4,1.2-0.8,1.7c-0.1,0.1-0.2,0.2-0.3,0.3c-0.4,0.3-0.8,0.5-1.2,0.6
		c-0.9,0.2-1.9,0-2.6-0.7l0,0c0,0-0.1-0.1-0.1-0.1c-0.7-0.7-1-1.8-0.8-2.7c0.1-0.4,0.3-0.8,0.6-1.2c0.1-0.1,0.2-0.2,0.3-0.3
		c0.5-0.5,1.1-0.8,1.7-0.8C108.6,277.2,109.6,277.5,110.4,278.3C110.3,278.2,110.3,278.2,110.4,278.3z"/>
	<path class="st0" d="M257.2,323L257.2,323L257.2,323L257.2,323c0.8-0.8,1.2-1.9,1.2-2.9l0,0c0-0.4-0.1-0.8-0.2-1.2
		c-0.2-0.6-0.5-1.2-1-1.7l0,0l0,0l0,0l0,0c-0.5-0.5-1.1-0.8-1.7-1c-0.4-0.1-0.8-0.2-1.2-0.2c-0.8,0-1.7,0.3-2.4,0.8l-81.5-81.5
		l-0.2-0.2l-0.3,0l-0.6,0l-14.5,0H151h-0.3L118,202.4l-0.2-0.2l-0.3,0l-5.5,0l-8.8,0l-10.9,0l-16.4,0l-1,0l-1.4,0l-1.9-1.9
		c0.2-0.3,0.4-0.6,0.5-1c0.4-1.2,0.1-2.5-0.9-3.4c-0.9-0.9-2.3-1.2-3.4-0.9c-0.5,0.2-1,0.4-1.5,0.9c-1.3,1.3-1.3,3.5,0,4.9
		c1.2,1.2,3,1.3,4.4,0.4l2,2l0.2,0.2l0.3,0l3,0l1.6,0l15.8,0l10.9,0l7.5,0h5.2l32.7,32.7l0.2,0.2h0.3l1.8,0l3.8,0l13.6,0l80,80
		l1.3,1.3c-0.5,0.7-0.8,1.6-0.8,2.4l0,0c0,1,0.4,2.1,1.2,2.9l0,0l0,0l0,0l0,0c0.8,0.8,1.8,1.2,2.9,1.2
		C255.3,324.2,256.4,323.8,257.2,323L257.2,323z M254.3,322.9c-0.7,0-1.4-0.3-2-0.8l0,0l0,0l0,0l0,0c-0.5-0.5-0.8-1.3-0.8-2l0,0
		c0-0.7,0.3-1.4,0.8-2l0,0l0,0l0,0l0,0c0.5-0.5,1.3-0.8,2-0.8c0.7,0,1.4,0.3,2,0.8l0,0l0,0l0,0l0,0c0.5,0.5,0.8,1.3,0.8,2l0,0
		c0,0.7-0.3,1.4-0.8,2l0,0l0,0l0,0l0,0C255.7,322.6,255,322.9,254.3,322.9z"/>
	<path class="st0" d="M138.7,352.1l0.3,0l0.2-0.2l4.4-4.4l4.8-4.8l7.8-7.8h1.7l2.7,0h1.7h3.1l2.7,0h0.3l0.2-0.2l14.7-14.7l5.2,0
		l9.9,9.9l1.1,1.1l0-1.5l0-3.1l0-1.7l0-0.3l-0.2-0.2L189,314.1l-0.2-0.2l-0.3,0l-1.7,0l-6.1,0l-0.3,0l-0.2,0.2L166,328.4h-7.2
		l-3.1,0H154l-2.7,0l-17.3,0l-3.3,0h-0.3l-0.2,0.2l-2.8,2.8l-4.8,4.8l-0.3,0l-11,0l-6.3,0l-12.3,0l-12.8-12.8l-0.2-0.2l-0.3,0
		l-1.4,0c-0.1-0.7-0.4-1.3-1-1.8c-1.3-1.3-3.5-1.3-4.9,0c-1.3,1.3-1.3,3.5,0,4.9c1.3,1.3,3.5,1.3,4.9,0c0.5-0.5,0.8-1.1,1-1.8l1.1,0
		l12.8,12.8l0.2,0.2h0.3l13.9,0l6.3,0h10.4l0.3,0l0.2-0.2l0,0l5-5l2.6-2.6l4.4,0l17.3,0l2.7,0h1.7l3.1,0l6.2,0l0.3,0l0.2-0.2
		l14.3-14.3l7.1,0l0.2,0l9.8,9.8l0,0.2v2.8l-9-9l-0.2-0.2l-0.3,0l-5.7,0l-0.3,0l-0.2,0.2l-14.7,14.7l-3.7,0l-3.1,0h-1.7h-2.7l-0.7,0
		l-0.3,0l-0.2,0.2l-8,8l-4.8,4.8l-4.2,4.2h-1.5l-11,0l-6.3,0l-2.4,0l-0.3,0l-0.2,0.2l-9.9,9.9l-0.5,0.5l0.5,0.5l5.6,5.6l0,8.6
		l-3.8,3.8l-2.6,2.6l-0.2,0.2l0,0.3l0,3.1c-0.7,0.1-1.3,0.4-1.8,1c-1.3,1.3-1.3,3.5,0,4.9c1.3,1.3,3.5,1.3,4.9,0
		c1.3-1.3,1.3-3.5,0-4.9c-0.5-0.5-1.1-0.8-1.8-1l0-2.8l2.4-2.4l4-4l0.2-0.2l0-0.3l0-9.1l0-0.3l-0.2-0.2l-5.3-5.3l9.3-9.3l3.4,0
		l6.3,0l11,0L138.7,352.1z"/>
	<path class="st0" d="M244.9,253.2l-4.8,0L184.9,198l0-0.1l0-11.7l0-0.3l-0.2-0.2l-10-10l-0.2-0.2h-0.3l-13.4,0l-8.4-8.4
		c0.5-0.7,0.8-1.6,0.8-2.4l0,0c0-1-0.4-2.1-1.2-2.9l0,0l0,0l0,0l0,0c-0.8-0.8-1.8-1.2-2.9-1.2h0c-1,0-2.1,0.4-2.9,1.2l0,0l0,0l0,0
		l0,0c-0.7,0.7-1.1,1.5-1.2,2.4c0,0.2,0,0.3,0,0.5c0,0.1,0,0.3,0,0.4c0.1,0.9,0.5,1.8,1.2,2.5l0,0l0,0l0,0l0,0
		c0.7,0.7,1.6,1.1,2.5,1.2c0.1,0,0.3,0,0.4,0c0.2,0,0.3,0,0.5,0c0.7-0.1,1.3-0.3,1.9-0.7l8.6,8.6l0.2,0.2l0.3,0h1.5l12,0l9.6,9.6
		l0,10.3l0,1.6l0,0.3l0.2,0.2l55.6,55.6l0.2,0.2h0.3l6.4,0l8.2,0l97.5,97.5l23.2,23.2l0.9-0.9l-0.8-0.8L255.2,253.4l-0.2-0.2l-0.3,0
		L244.9,253.2z M151.1,166.7L151.1,166.7L151.1,166.7L151.1,166.7L151.1,166.7c-0.6,0.6-1.3,0.8-2,0.8c-0.3,0-0.6,0-0.9-0.1
		c-0.4-0.1-0.8-0.4-1.1-0.7l0,0l0,0l0,0l0,0c-0.3-0.3-0.5-0.7-0.7-1.1c-0.1-0.3-0.1-0.6-0.1-0.9c0-0.7,0.3-1.4,0.8-2l0,0l0,0l0,0
		l0,0c0.5-0.5,1.3-0.8,2-0.8c0.7,0,1.4,0.3,2,0.8l0,0l0,0l0,0l0,0c0.5,0.5,0.8,1.3,0.8,2l0,0C151.9,165.4,151.6,166.1,151.1,166.7z"
		/>
	<path class="st0" d="M248.8,243l-32.3-32.3l0-7.6v-0.3l-0.2-0.2l-45.5-45.5l0-19l0-5.7l0-1.8l0-0.3l-0.2-0.2l-40.6-40.6l-0.2-0.2
		l-0.3,0l-1.8,0l-2.3,0c-0.2-0.6-0.5-1.2-1-1.8l0,0l0,0l0,0l0,0c-0.8-0.8-1.8-1.2-2.9-1.2l0,0c-0.7,0-1.3,0.2-1.9,0.5
		c-0.4,0.2-0.7,0.4-1,0.7l0,0l0,0l0,0l0,0c-0.8,0.8-1.2,1.8-1.2,2.9c0,1,0.4,2.1,1.2,2.9l0,0l0,0l0,0l0,0c0.8,0.8,1.8,1.2,2.9,1.2
		c1,0,2.1-0.4,2.9-1.2l0,0l0,0l0,0l0,0c0.3-0.3,0.5-0.6,0.7-1c0.3-0.5,0.4-1.2,0.5-1.8l3.5,0l0.3,0l40.2,40.2l0,0.3l0,5.7l0,20.6
		l0,0.3l0.2,0.2l45.5,45.5l0,7.6l0,0.3l0.2,0.2l32.7,32.7l0.2,0.2h0.3l14.8,0l109.2,109.2l-3.9,0L261.8,246.6l-0.2-0.2h-0.3l-14.4,0
		l-33.3-33.3l0-8.5l0-0.3l-0.2-0.2l-47.6-47.6l0-21.8l0-0.3l-0.2-0.2L152.5,121l-0.2-0.2l-0.3,0l-6.6,0l-0.6,0l0,0.6l0,6v0.3
		l0.2,0.2l4.2,4.2l0,17l0,0.3l0.2,0.2l19.9,19.9l-6.4,0l-14.2-14.2l-0.2-0.2l-0.3,0l-8.9,0l-5.3-5.3l0-12.1l0-0.3l-0.2-0.2
		l-19.7-19.7l-0.2-0.2l-0.3,0l-8.1,0L87.2,99l-0.2-0.2l-0.3,0l-5.6,0l-7.7-7.7l0,0c0.5-0.7,0.8-1.6,0.8-2.4h0c0-1-0.4-2.1-1.2-2.9
		l0,0l0,0l0,0l0,0c-0.8-0.8-1.8-1.2-2.9-1.2l0,0c-1,0-2.1,0.4-2.9,1.2l0,0l0,0l0,0l0,0c-0.1,0.1-0.2,0.2-0.3,0.3
		c-0.1,0.2-0.3,0.4-0.4,0.5c-0.4,0.6-0.5,1.3-0.5,2c0,1,0.4,2.1,1.2,2.9l0,0l0,0l0,0l0,0c0.8,0.8,1.8,1.2,2.9,1.2
		c0.7,0,1.4-0.2,2-0.5c0.1-0.1,0.3-0.2,0.4-0.2l7.9,7.9l0.2,0.2l0.3,0l0,0h5.6l18.3,18.3l0.2,0.2l0.3,0l8.1,0l19.3,19.3l0,12.1
		l0,0.3l0.2,0.2l5.7,5.7l0.2,0.2l0.3,0l8.9,0l14.2,14.2l0.2,0.2l0.3,0l8.2,0l1.5,0l-1.1-1.1l-20.8-20.8l0-17l0-0.3l-0.2-0.2
		l-4.2-4.2l0-5.1l5.7,0l12.8,12.8l0,21.8l0,0.3l0.2,0.2l47.6,47.6l0,8.5v0.3l0.2,0.2l33.7,33.7l0.2,0.2l0.3,0l14.4,0l106.8,106.8
		l0.2,0.2l0.3,0l5.7,0h1.5l-1.1-1.1L264.1,243.2l-0.2-0.2l-0.3,0L248.8,243z M123.5,88.5c0.3,0.3,0.4,0.5,0.6,0.9l-0.1,0l0,0.1
		l0,0.5l0,0.6l0.3,0c0,0.3-0.1,0.5-0.2,0.8c-0.1,0.4-0.4,0.7-0.7,1.1l0,0l0,0l0,0l0,0c-0.5,0.5-1.3,0.8-2,0.8c-0.7,0-1.4-0.3-2-0.8
		l0,0l0,0l0,0l0,0c-0.5-0.5-0.8-1.3-0.8-2c0-0.7,0.3-1.4,0.8-2l0,0l0,0l0,0l0,0c0.3-0.3,0.7-0.5,1.1-0.7c0.3-0.1,0.6-0.2,0.9-0.2
		l0,0C122.2,87.7,122.9,88,123.5,88.5L123.5,88.5L123.5,88.5L123.5,88.5L123.5,88.5z M72.2,90.7L72.2,90.7L72.2,90.7
		c-0.1,0.1-0.2,0.2-0.3,0.3c-0.2,0.1-0.4,0.2-0.6,0.3c-0.3,0.1-0.7,0.2-1.1,0.2c-0.7,0-1.4-0.3-2-0.8l0,0l0,0l0,0l0,0
		c-0.5-0.5-0.8-1.3-0.8-2c0-0.4,0.1-0.7,0.2-1.1c0.1-0.2,0.2-0.4,0.3-0.6c0.1-0.1,0.2-0.2,0.3-0.3l0,0l0,0l0,0l0,0
		c0.5-0.5,1.3-0.8,2-0.8l0,0c0.7,0,1.4,0.3,2,0.8l0,0l0,0l0,0l0,0c0.5,0.5,0.8,1.3,0.8,2l0,0C73,89.4,72.7,90.2,72.2,90.7L72.2,90.7
		L72.2,90.7z"/>
	<path class="st0" d="M207.5,286.7l-1.2,0l-3.8,0l-14.8,0l-10.9,0h-9.1l-41.3-41.3l0-9.1l0-4.4l0-0.3l-0.2-0.2l-14.7-14.7l-0.2-0.2
		h-0.3l-4.4,0l-1.7,0l-0.3,0l-0.2,0.2l-7.5,7.5l-11.7,11.7l-16.2,0l-2.4,0l-2.3-2.3c0.9-1.3,0.8-3.2-0.4-4.4
		c-1.3-1.3-3.3-1.3-4.7-0.2c-0.1,0.1-0.1,0.1-0.2,0.2c-0.5,0.5-0.8,1.1-0.9,1.7c-0.1,0.6-0.1,1.3,0.1,1.9c0.2,0.5,0.4,0.9,0.8,1.2
		c0.4,0.4,0.8,0.6,1.3,0.8c0.6,0.2,1.3,0.3,1.9,0.1c0.4-0.1,0.9-0.3,1.3-0.5l2.5,2.5l0.2,0.2l0.3,0l1,0l3.5,0l14.6,0l0.3,0l0.2-0.2
		l11.8-11.8l7.3-7.3h2.7l2.8,0l14.3,14.3l0,2.8l0,10.6l0,0.3l0.2,0.2l41.7,41.7l0.2,0.2l0.3,0l10.6,0l10.9,0l14.8,0l3.4,0L334.4,415
		l0.5,0.5l0.9-0.9L208,286.8l-0.2-0.2L207.5,286.7z"/>
	<path class="st0" d="M205.4,289.6l-14.7,0l-10.9,0l-13.3,0l-43.1-43.1l0-13.1l0-0.2l0,0l-0.2-0.2l-12-12l-0.2-0.2l0,0l-0.2,0
		l-5.6,0l-0.3,0l-0.2,0.2l-5.5,5.5l-14,14l-14.5,0l-3.1,0l-0.1,0c0,0,0-0.1,0-0.1c-0.2-0.5-0.5-1-0.9-1.4l0,0l0,0l0,0l0,0
		c-0.4-0.4-0.9-0.7-1.4-0.9c-0.5-0.2-1-0.3-1.4-0.3c-0.2,0-0.4,0-0.5,0c-0.7,0.1-1.3,0.3-1.9,0.8c-0.2,0.1-0.3,0.2-0.4,0.4l0,0l0,0
		l0,0l0,0c-0.8,0.8-1.2,1.8-1.2,2.9c0,1,0.4,2.1,1.2,2.9l0,0l0,0l0,0l0,0c0.8,0.8,1.8,1.2,2.9,1.2c1,0,2.1-0.4,2.9-1.2l0,0l0,0l0,0
		l0,0c0.1-0.1,0.3-0.3,0.4-0.4c0.4-0.6,0.7-1.2,0.8-1.9c0-0.2,0-0.3,0-0.5l0,0H69l0.1,0l2.9,0l13.5,0l0.3,0l0.2-0.2l14.2-14.2
		l5.3-5.3l5.1,0l11.6,11.6l0,13.1l0,0.3l0.2,0.2l43.5,43.5l0.2,0.2l0.3,0l14.9,0l10.9,0h13.2l33.4,33.4l0,9.3
		c-1,0.1-1.9,0.5-2.6,1.2l0,0l0,0l0,0l0,0l0,0c-0.8,0.8-1.2,1.8-1.2,2.9c0,1,0.4,2.1,1.2,2.9l0,0l0,0l0,0l0,0
		c0.8,0.8,1.8,1.2,2.9,1.2c1,0,2.1-0.4,2.9-1.2l0,0l0,0l0,0l0,0l0,0c0.8-0.8,1.2-1.8,1.2-2.9c0-1-0.4-2.1-1.2-2.9l0,0l0,0l0,0l0,0
		c-0.5-0.5-1.2-0.9-1.9-1.1l0-9.7l0-0.1l0-0.2l-0.2-0.2l-33.7-33.7l-0.2-0.2L205.4,289.6L205.4,289.6z M65.7,239.7
		c0.3,0.3,0.6,0.7,0.7,1.1c0,0.1,0.1,0.2,0.1,0.3l0,0.5l0,0l0,0c0,0.5-0.1,1.1-0.4,1.5c-0.1,0.2-0.2,0.3-0.4,0.5l0,0l0,0l0,0l0,0
		c-0.5,0.5-1.3,0.8-2,0.8c-0.7,0-1.4-0.3-2-0.8l0,0l0,0l0,0l0,0c-0.5-0.5-0.8-1.3-0.8-2c0-0.7,0.3-1.4,0.8-2l0,0l0,0l0,0l0,0
		c0.1-0.1,0.3-0.3,0.5-0.4c0.5-0.3,1-0.4,1.5-0.4c0.3,0,0.6,0,0.8,0.1C65,239.1,65.4,239.3,65.7,239.7L65.7,239.7L65.7,239.7
		L65.7,239.7L65.7,239.7z M240.7,335.6c0.5,0.5,0.8,1.3,0.8,2c0,0.7-0.3,1.4-0.8,2l0,0l0,0l0,0l0,0l0,0c-0.5,0.5-1.3,0.8-2,0.8
		c-0.7,0-1.4-0.3-2-0.8l0,0l0,0l0,0l0,0c-0.5-0.5-0.8-1.3-0.8-2c0-0.7,0.3-1.4,0.8-2l0,0l0,0l0,0l0,0l0,0c0.5-0.5,1.1-0.8,1.7-0.8
		l0,0.1l0.6,0l0.5,0C240,335.1,240.4,335.3,240.7,335.6L240.7,335.6L240.7,335.6L240.7,335.6L240.7,335.6z"/>
	<path class="st0" d="M353.8,377.5c-0.9,0-1.8,0.3-2.5,0.8l-38.7-38.7L304,331c0.9-1.3,0.8-3.2-0.4-4.4c-1.2-1.2-3-1.3-4.4-0.4
		l-49.9-49.9l-0.2-0.2l-0.3,0l-1.3,0l-4,0l-1.7,0l-0.4,0l-0.9,0l-5.5,0l-0.5,0l-34.6-34.6l0-0.5l0-5.5l0-0.9l0-0.4l0-1.7l0-4l0-1.4
		l0-0.3l-0.2-0.2l-22.1-22.1l-0.2-0.2l-0.3,0l-1.4,0l-4,0l-1.7,0l-0.4,0l-0.9,0h-1.2l-45.6-45.6l0-1.2l0-0.9l0-0.4l0-1.7l0-4l0-2.1
		c0.7-0.1,1.3-0.4,1.8-1c0.7-0.7,1-1.6,1-2.5c0-0.4-0.1-0.8-0.2-1.1c-0.2-0.4-0.4-0.8-0.8-1.2c-0.4-0.4-0.8-0.6-1.2-0.8
		c-0.4-0.1-0.7-0.2-1.1-0.2c-0.9,0-1.8,0.3-2.6,1c-1.3,1.3-1.3,3.5,0,4.9c0.5,0.5,1.1,0.8,1.8,1l0,0.9l0,4l0,1.7l0,0.4l0,0.9l0,2.8
		l0,0.3l0.2,0.2l46,46l0.2,0.2l0.3,0l2.8,0l0.9,0l0.4,0l1.7,0l3.9,0l21.7,21.7l0,3.9l0,1.7l0,0.4l0,0.9l0,5.5l0,2.1l0,0.3l0.2,0.2
		l35,35l0.2,0.2l0.3,0l2.1,0h5.5l0.9,0l0.4,0l1.7,0l3.8,0l49.7,49.7c-0.7,1.1-0.8,2.5-0.2,3.6c0.2,0.3,0.3,0.5,0.6,0.8
		c0.2,0.2,0.5,0.4,0.8,0.6c1.1,0.6,2.5,0.6,3.6-0.2l47.4,47.4c-0.5,0.7-0.7,1.5-0.7,2.3c0,0.3,0,0.6,0.1,0.8
		c0.2,0.8,0.5,1.5,1.1,2.1l0,0l0,0l0,0l0,0c0.6,0.6,1.3,1,2.1,1.1c0.3,0.1,0.5,0.1,0.8,0.1c0.9,0,1.7-0.3,2.5-0.8
		c0.1-0.1,0.3-0.2,0.4-0.4l0,0l0,0l0,0l0,0c0.8-0.8,1.2-1.8,1.2-2.9c0-1-0.4-2.1-1.2-2.9l0,0l0,0l0,0l0,0
		C355.9,377.9,354.9,377.5,353.8,377.5z M299.5,330.6c-0.8-0.8-0.9-2-0.3-2.9c0.1-0.1,0.2-0.3,0.3-0.4c0.9-0.9,2.4-0.9,3.3,0
		c0.9,0.9,0.9,2.4,0,3.3c-0.1,0.1-0.3,0.2-0.4,0.3C301.5,331.5,300.3,331.4,299.5,330.6z M355.8,379.6c0.5,0.5,0.8,1.3,0.8,2
		c0,0.7-0.3,1.4-0.8,2l0,0l0,0l0,0l0,0c-0.1,0.1-0.3,0.2-0.4,0.3c-0.5,0.3-1,0.5-1.6,0.5c-0.7,0-1.4-0.3-2-0.8l0,0l0,0l0,0l0,0
		c-0.5-0.5-0.8-1.3-0.8-2c0-0.5,0.2-1.1,0.5-1.5c0.5-0.8,1.4-1.3,2.3-1.3C354.6,378.8,355.3,379,355.8,379.6L355.8,379.6
		L355.8,379.6L355.8,379.6L355.8,379.6z"/>
	<path class="st0" d="M215.9,177.6l0-3l0-0.3l-0.2-0.2l-9.9-9.9l-0.2-0.2h-0.3h-3l-5.1,0l-13.4-13.4v-5.1l0-3.1c0.1,0,0.1,0,0.2,0
		c0.5,0,0.9-0.2,1.3-0.4c0.4-0.2,0.8-0.5,1.1-0.8l0,0l0,0l0,0l0,0c0.7-0.7,1.1-1.6,1.2-2.6c0-0.1,0-0.2,0-0.3c0-1-0.4-2.1-1.2-2.9
		l0,0l0,0l0,0l0,0c-0.8-0.8-1.8-1.2-2.9-1.2c-0.1,0-0.2,0-0.3,0c-0.9,0.1-1.8,0.5-2.6,1.2l0,0l0,0l0,0l0,0c-0.3,0.3-0.6,0.7-0.8,1.1
		c-0.2,0.4-0.3,0.9-0.4,1.3c0,0.1,0,0.3,0,0.4c0,1,0.4,2.1,1.2,2.9l0,0l0,0l0,0l0,0c0.5,0.5,1.2,0.9,1.8,1.1l0,1.9l0,5.7v1v0.3
		l0.2,0.2l13.8,13.8l0.2,0.2l0.3,0l1,0l5.7,0h1.5l9.5,9.5l0,1.5l0,5.7l0,11.2l0,0.3l0.2,0.2l6.8,6.8l0,7.6l0,0.3l0.2,0.2l30.1,30.1
		l-2.9,0l-29.8-29.8v-7.4V201l-0.2-0.2l-5.8-5.8v-14.5v-3.8l0-0.3l-0.2-0.2l-8.8-8.8l-0.2-0.2h-0.3h-3.8l-4.4,0l-17.7-17.7l0-4.4
		l0-5.7v-3.3l0-1.7v-0.4v-5.3l0-3.9l0-3.3l0-0.3l-0.2-0.2l-17.4-17.4l-0.2-0.2l-0.3,0l-3.3,0l-1.9,0c-0.1-0.8-0.5-1.6-1.1-2.3l0,0
		l0,0l0,0l0,0c-0.8-0.8-1.8-1.2-2.9-1.2c-0.4,0-0.9,0.1-1.3,0.2c-0.6,0.2-1.2,0.5-1.6,1l0,0l0,0l0,0l0,0c-0.6,0.6-0.9,1.2-1.1,1.9
		c-0.1,0.3-0.1,0.6-0.1,0.9l0,0c0,0.2,0,0.5,0.1,0.7c0.1,0.8,0.5,1.6,1.1,2.2l0,0l0,0l0,0l0,0c0.6,0.6,1.4,1,2.2,1.1
		c0.2,0,0.5,0.1,0.7,0.1c0.3,0,0.6,0,0.9-0.1c0.7-0.2,1.4-0.5,2-1.1l0,0l0,0l0,0l0,0c0.5-0.5,0.8-1,1-1.6c0.1-0.2,0.1-0.4,0.1-0.6
		l3.2,0l1.7,0l17,17l0,1.7l0,4l0,5l0,0.7l0,1.7l0,3.3l0,5.7l0,5.9l0,0.3l0.2,0.2l18.1,18.1l0.2,0.2l0.3,0l5.9,0l2.3,0l8.5,8.5l0,2.3
		l0,16.1l0,0.3l0.2,0.2l5.8,5.8l0,7.4v0.3l0.2,0.2l30.2,30.2l0.2,0.2h0.3l4.7,0l1.5,0l-1.1-1.1l-31-31v-7.6l0-0.3l-0.2-0.2l-6.8-6.8
		l0-9.6V177.6z M181.6,140.3c-0.3-0.3-0.5-0.6-0.6-1c-0.1-0.3-0.2-0.7-0.2-1c0-0.3,0-0.5,0.1-0.8c0.1-0.4,0.4-0.9,0.7-1.2l0,0l0,0
		l0,0l0,0c0.5-0.5,1.3-0.8,2-0.8c0.4,0,0.8,0.1,1.2,0.3c0.3,0.1,0.6,0.3,0.8,0.5l0,0l0,0l0,0l0,0c0.2,0.2,0.4,0.5,0.6,0.8
		c0.2,0.4,0.3,0.8,0.3,1.2c0,0.7-0.3,1.4-0.8,2l0,0l0,0l0,0l0,0c-0.4,0.4-0.8,0.6-1.2,0.7c-0.6,0.2-1.2,0.1-1.8-0.1
		C182.3,140.9,181.9,140.6,181.6,140.3L181.6,140.3L181.6,140.3L181.6,140.3L181.6,140.3z M152.6,102.3c0.5,0.5,0.7,1.1,0.8,1.7
		c0,0.1,0,0.2,0,0.3l0,0c0,0.1,0,0.1,0,0.2c0,0.7-0.3,1.3-0.8,1.8l0,0l0,0l0,0l0,0c-0.5,0.5-1.3,0.8-2,0.8c-0.1,0-0.2,0-0.2,0
		c-0.6-0.1-1.3-0.3-1.7-0.8l0,0l0,0l0,0l0,0c-0.5-0.5-0.8-1.1-0.8-1.7c0-0.1,0-0.2,0-0.2l0,0c0-0.7,0.3-1.4,0.8-2l0,0l0,0l0,0l0,0
		c0.5-0.5,1.2-0.8,1.8-0.8c0.1,0,0.1,0,0.2,0C151.4,101.4,152.1,101.7,152.6,102.3L152.6,102.3L152.6,102.3L152.6,102.3L152.6,102.3
		z"/>
	<path class="st0" d="M42.7,278.2c1,0,2.1-0.4,2.9-1.2l0,0l0,0l0,0l0,0l0,0c0.6-0.6,1-1.4,1.1-2.2l3,0l0.4,0l0.3,0l0.2-0.2l5-5l3-3
		h3.9l4.6,0l0.3,0l0.2-0.2l2.2-2.2l8.7-8.7l1.3-1.3l0.9-0.9l0,0l1.1-1.1l-1.5,0h-0.7l-1.7,0l-2.7,0l-3.2,0l-0.3,0l-0.2,0.2l-4.5,4.5
		l-4.4,0l-4.5,0l-11.2-11.2l-0.2-0.2h-0.3l-4.2,0l-6.8-6.8l-0.5-0.5l0-1.3l0-7.7l0-3.6l0-0.3l-0.2-0.2l-3.7-3.7
		c0.6-0.7,0.9-1.7,0.9-2.6c0-1-0.4-2.1-1.2-2.9l0,0l0,0l0,0l0,0c-0.8-0.8-1.8-1.2-2.9-1.2l0,0c-1,0-2.1,0.4-2.9,1.2l0,0l0,0l0,0l0,0
		c-0.6,0.6-1,1.3-1.1,2.1c-0.1,0.3-0.1,0.5-0.1,0.8c0,1,0.4,2.1,1.2,2.9l0,0l0,0l0,0l0,0c0.8,0.8,1.8,1.2,2.9,1.2
		c0.3,0,0.5,0,0.8-0.1c0.5-0.1,1-0.3,1.4-0.6l0.9,0.9l2.7,2.7l0,2l0,4.6l0,5l0,1l0,0.3l0.2,0.2l2.4,2.4l5.3,5.3l0.2,0.2l0.3,0l1,0
		h3.2L57.3,258l0.2,0.2h0.3l6.1,0l3.4,0l0.3,0l0.2-0.2l4.5-4.5l4.2,0l2.3,0l-1.1,1.1l-8.7,8.7l-2,2l-5.6,0h-2.9h-0.3l-0.2,0.2
		l-3.2,3.2l-4.8,4.8l-1.4,0l-1.7,0c-0.1-0.9-0.5-1.7-1.2-2.3l0,0l0,0l0,0l0,0c-0.8-0.8-1.8-1.2-2.9-1.2l0,0c-1,0-2.1,0.4-2.9,1.2
		l0,0l0,0l0,0l0,0l0,0c-0.8,0.8-1.2,1.8-1.2,2.9c0,1,0.4,2.1,1.2,2.9l0,0l0,0l0,0l0,0C40.6,277.8,41.7,278.2,42.7,278.2z
		 M27.7,221.8c-0.1,0-0.3,0-0.4,0c-0.6-0.1-1.1-0.4-1.6-0.8l0,0l0,0l0,0l0,0c-0.4-0.4-0.7-1-0.8-1.6c0-0.1,0-0.3,0-0.4
		c0-0.7,0.3-1.4,0.8-2l0,0l0,0l0,0l0,0c0.5-0.5,1.3-0.8,2-0.8c0.7,0,1.4,0.3,2,0.8l0,0l0,0l0,0l0,0c0.5,0.5,0.8,1.3,0.8,2
		c0,0.6-0.2,1.2-0.6,1.7l-0.4,0.4l-0.1,0.1C28.9,221.6,28.3,221.8,27.7,221.8z M40.7,276.1c-0.5-0.5-0.8-1.3-0.8-2
		c0-0.7,0.3-1.4,0.8-2l0,0l0,0l0,0l0,0l0,0c0.5-0.5,1.3-0.8,2-0.8l0,0c0.7,0,1.4,0.3,2,0.8l0,0l0,0l0,0l0,0c0.5,0.5,0.8,1.3,0.8,2
		c0,0.7-0.3,1.4-0.8,2l0,0l0,0l0,0l0,0l0,0c-0.5,0.5-1.3,0.8-2,0.8C42,276.9,41.3,276.6,40.7,276.1L40.7,276.1L40.7,276.1
		L40.7,276.1L40.7,276.1z"/>
	<path class="st0" d="M337.3,377.8L337.3,377.8c-0.2,0-0.4,0-0.6,0c-0.8,0.1-1.7,0.5-2.3,1.2l0,0l0,0l0,0l0,0
		c-0.2,0.2-0.4,0.4-0.5,0.6c-0.4,0.7-0.7,1.5-0.7,2.2c0,1,0.4,2.1,1.2,2.9l0,0l0,0l0,0l0,0c0.8,0.8,1.8,1.2,2.9,1.2
		c0.8,0,1.6-0.2,2.2-0.7c0.1,0,0.1-0.1,0.2-0.1l2.8,2.8l0,0.3l0,5.1l0,3.8L315.4,370l0-3.8l0-4l0-1l0-1l0-0.3l-0.2-0.2l-7.4-7.4
		l-0.2-0.2l-0.3,0l-1,0l-2.1,0l-3,0l-3.8,0l-28.4-28.4l0-3.4v-0.4l0-5.1l0-0.3l0-0.3l-0.2-0.2l-36.3-36.3l-0.2-0.2l-0.3,0l-0.3,0
		l-5.1,0l-2.1,0c0-0.8-0.4-1.7-1-2.3c-1.3-1.3-3.5-1.3-4.9,0c-0.9,0.9-1.2,2.2-0.9,3.3c0.1,0.6,0.4,1.1,0.9,1.6
		c0.5,0.5,1,0.8,1.6,0.9c1.1,0.3,2.4,0,3.3-0.9c0.4-0.4,0.6-0.8,0.8-1.3l3.6,0l3.8,0l35.9,35.9l0,3.8l0,0.5l0,4.8l0,0.3l0.2,0.2
		l28.8,28.8l0.2,0.2h0.3l5.3,0l3.1,0h1.5l7.1,7.1v0.7l0,3.9l0,5.3l0,0.3l0.2,0.2l28.4,28.4l1.1,1.1l0-1.5l0-4.1l0-5.1l0-1.8l0-0.3
		l-0.2-0.2l-3-3c0.4-0.6,0.6-1.2,0.7-1.8c0-0.2,0-0.4,0-0.6c0-1-0.4-2.1-1.2-2.9l0,0l0,0l0,0l0,0
		C339.4,378.2,338.4,377.8,337.3,377.8z M339.3,379.9c0.4,0.4,0.6,0.8,0.7,1.2c0.1,0.2,0.1,0.5,0.1,0.7c0,0.5-0.1,1-0.4,1.5
		c0,0.2-0.9,1-0.9,0.9c-0.1,0-0.1,0.1-0.2,0.1c-0.4,0.2-0.9,0.3-1.3,0.3c-0.7,0-1.4-0.3-2-0.8l0,0l0,0l0,0l0,0
		c-0.5-0.5-0.8-1.3-0.8-2c0-0.4,0.1-0.9,0.3-1.3c0.1-0.2,0.3-0.5,0.5-0.7l0,0l0,0l0,0l0,0c0.5-0.5,1.3-0.8,2-0.8l0,0
		c0.3,0,0.5,0,0.7,0.1C338.5,379.3,339,379.6,339.3,379.9L339.3,379.9L339.3,379.9L339.3,379.9L339.3,379.9z"/>
	<path class="st0" d="M341.1,308.4c-0.5,0.1-1,0.3-1.4,0.6L238.8,208.1l0-2l0-5.7v-0.7v-0.3l-0.2-0.2l-4.7-4.7
		c0.4-0.5,0.6-1.1,0.6-1.8c0.1-0.9-0.3-1.9-1-2.6c-0.7-0.7-1.7-1.1-2.6-1c-0.6,0-1.2,0.2-1.8,0.6l0,0l-7.5-7.5l0-2.3l0-1.7l0-1
		l0-4.6l0-1l0-0.3l-0.2-0.2L211.2,161l0-2.7l0-6.8v-0.3l0-0.3l-0.2-0.2l-25-25l0-8.9l0-0.6l0-0.3l-0.2-0.2l-18.4-18.4l-0.2-0.2
		l-0.3,0l-0.6,0l-9.5,0l-0.8,0l-8.4-8.4l-0.2-0.2l-0.3,0l-5.8,0l-0.7,0c-0.1-0.4-0.2-0.8-0.4-1.1c-0.2-0.3-0.4-0.6-0.7-0.9l0,0l0,0
		l0,0l0,0c-0.3-0.3-0.6-0.5-0.9-0.7c-0.6-0.3-1.3-0.5-1.9-0.5c-0.7,0-1.4,0.2-2,0.5c-0.3,0.2-0.6,0.4-0.9,0.7l0,0l0,0l0,0l0,0
		c-0.8,0.8-1.2,1.8-1.2,2.9l0,0c0,1,0.4,2.1,1.2,2.9l0,0l0,0l0,0l0,0c0.8,0.8,1.8,1.2,2.9,1.2l0,0c1,0,2.1-0.4,2.9-1.2l0,0l0,0l0,0
		l0,0c0.3-0.3,0.5-0.6,0.7-0.9c0.3-0.5,0.4-1,0.5-1.5h0.2l1.7,0l4.3,0l8.4,8.4l0.2,0.2l0.3,0l2.3,0l8.6,0l18.1,18.1l0,8.6v0.9l0,0.3
		l0.2,0.2l25,25l0,5.7l0,3.9l0,0.3l0,0.3l0.2,0.2l10.3,10.3l0,3.9l0,1.1l0,1.7l0,3.3l0,0.6l0,0.3l0.2,0.2l7.6,7.6l0,0
		c-0.9,1.3-0.8,3.2,0.4,4.4c1.2,1.2,3,1.3,4.4,0.4l4.5,4.5v4.8v3.5l0,0.3l0.2,0.2l101.1,101.1c-0.9,1.3-0.8,3.2,0.4,4.4
		c1.2,1.2,3,1.3,4.4,0.4l46,46l0.9-0.9l-8.7-8.7l-37.3-37.3c0.3-0.4,0.5-0.9,0.6-1.4c0.2-1-0.2-2.1-1-2.9
		C343.3,308.6,342.2,308.3,341.1,308.4z M138.7,87.3c0.4,0.4,0.6,0.8,0.7,1.3l0,1.2l0,0c0,0.2-0.1,0.4-0.2,0.6
		c-0.1,0.3-0.3,0.7-0.6,1l0,0l0,0l0,0l0,0c-0.5,0.5-1.3,0.8-2,0.8c-0.7,0-1.4-0.3-2-0.8l0,0l0,0l0,0l0,0c-0.5-0.5-0.8-1.3-0.8-2
		c0-0.7,0.3-1.4,0.8-2l0,0l0,0l0,0l0,0c0.3-0.3,0.6-0.5,1-0.6c0.3-0.1,0.7-0.2,1-0.2C137.4,86.5,138.2,86.8,138.7,87.3L138.7,87.3
		L138.7,87.3L138.7,87.3L138.7,87.3z M229.2,194.4c-1-1-1-2.6,0-3.5l0,0c0.7-0.7,1.9-0.9,2.8-0.5c0.3,0.1,0.5,0.3,0.8,0.5
		c0.2,0.2,0.4,0.5,0.5,0.8c0.4,0.9,0.2,2-0.5,2.8l0,0C231.8,195.4,230.2,195.4,229.2,194.4z M343.8,311.1c0.2,0.8,0,1.7-0.6,2.3
		c-0.9,0.9-2.4,0.9-3.3,0c-0.9-0.9-0.9-2.4,0-3.3c0.6-0.6,1.5-0.8,2.3-0.6c0.4,0.1,0.7,0.3,1,0.6
		C343.5,310.4,343.7,310.8,343.8,311.1z"/>
	<path class="st0" d="M262.5,219.1v-5.7l0-2.1l0-0.3l-0.2-0.2L249,197.5l0-1.5l0-4.1l0-0.3l-0.2-0.2l-32-32l0-2.5l0-8.4l0-0.3
		l-0.2-0.2l-25.7-25.7l0-0.9l0-3.8l0-0.3l-0.2-0.2l-27.2-27.2l-0.2-0.2l-0.3,0l-3.8,0h-6.9l-6.8-6.8l-0.2-0.2l-0.3,0h-2.3l-6.8,0
		l-3.9,0l-5.7,0h-1.7l-3.3,0l-4.5,0c-0.1-0.7-0.4-1.3-1-1.8c-0.8-0.8-1.9-1.1-3-1c-0.7,0.1-1.4,0.4-1.9,1c-1.3,1.3-1.3,3.5,0,4.9
		c1.3,1.3,3.5,1.3,4.9,0c0.5-0.5,0.8-1.1,1-1.8l0.1,0l5.7,0l3.3,0h1.7l5.7,0l4,0l6.8,0l0.8,0l6.8,6.8l0.2,0.2h0.3l8.5,0l2.2,0
		l26.8,26.8l0,2.2l0,2.4l0,0.3l0.2,0.2l25.7,25.7l0,6.8l0,4.1l0,0.3l0.2,0.2l32,32l0,2.5l0,3.1v0.3l0.2,0.2l13.3,13.3l0,0.6l0,5.7
		v1.7v3.3l0,1.4v0.3l0.2,0.2l73.5,73.5l58.6,58.6l0.9-0.9l-1.7-1.7L262.5,224v-3.1V219.1z"/>
	<path class="st0" d="M15.3,244.4c1,0,2.1-0.4,2.9-1.2l0,0l0,0l0,0l0,0l0,0c0.7-0.7,1-1.5,1.2-2.3l0.1,0l7.4,0l4,0l5.8,5.8l0,4
		l0,2.2c-0.7,0.1-1.3,0.4-1.8,1c-1.3,1.3-1.3,3.5,0,4.9c1.3,1.3,3.5,1.3,4.9,0c1.3-1.3,1.3-3.5,0-4.9c-0.5-0.5-1.1-0.8-1.8-1l0-0.9
		l0-5.5l0-0.3l-0.2-0.2l-6.2-6.2l-0.2-0.2l-0.3,0l-5.5,0l-6.3,0c-0.1-0.8-0.5-1.5-1.1-2.2l0,0l0,0l0,0l0,0c-0.8-0.8-1.8-1.2-2.9-1.2
		l0,0c-1,0-2.1,0.4-2.9,1.2l0,0l0,0l0,0l0,0l0,0c-0.8,0.8-1.2,1.8-1.2,2.9c0,1,0.4,2.1,1.2,2.9l0,0l0,0l0,0l0,0
		C13.2,244,14.3,244.4,15.3,244.4z M13.3,242.3c-0.5-0.5-0.8-1.3-0.8-2c0-0.7,0.3-1.4,0.8-2l0,0l0,0l0,0l0,0l0,0
		c0.5-0.5,1.3-0.8,2-0.8c0.7,0,1.4,0.3,2,0.8l0,0l0,0l0,0l0,0c0.4,0.4,0.6,0.8,0.7,1.3l-0.4,0l0,0.6l0,0.6l0.5,0
		c-0.1,0.5-0.4,1-0.8,1.4l0,0l0,0l0,0l0,0l0,0c-0.5,0.5-1.3,0.8-2,0.8C14.6,243.2,13.9,242.9,13.3,242.3L13.3,242.3L13.3,242.3
		L13.3,242.3L13.3,242.3z"/>
	<path class="st0" d="M27.1,276.1c0.5-0.5,0.8-1,0.9-1.6l3.2,0l9.3,9.3l0.2,0.2l0.3,0l10.5,0l0.3,0l0.2-0.2l0.3-0.3l3-3l0.3,0l11,0
		l4.8,0l0.3,0l0.2-0.2l2.3-2.3l3.8-3.8l0.2-0.2v-0.3v-1.3l0-5.4l5.2-5.2c0.6,0.4,1.4,0.6,2.1,0.6l0,0c0.7,0,1.5-0.2,2.1-0.6
		c0.3-0.2,0.5-0.4,0.8-0.6l0,0l0,0l0,0l0,0c0.1-0.1,0.1-0.1,0.2-0.2c0.5-0.6,0.9-1.3,1-2.1c0-0.2,0-0.4,0-0.6c0-1-0.4-2.1-1.2-2.9
		l0,0l0,0l0,0l0,0c-0.8-0.8-1.8-1.2-2.9-1.2l0,0c-0.2,0-0.4,0-0.6,0c-0.8,0.1-1.5,0.4-2.1,1c-0.1,0.1-0.1,0.1-0.2,0.2l0,0l0,0l0,0
		l0,0c-0.2,0.2-0.4,0.5-0.6,0.8c-0.4,0.6-0.6,1.4-0.6,2.1l0,0c0,0.9,0.3,1.9,1,2.7l-5.3,5.3l-0.2,0.2v0.3l0,4.4l0,2.3l-3.6,3.6
		l-2.1,2.1l-5.8,0H54.9h-0.3l-0.2,0.2l0,0l-3.2,3.2l-0.1,0.1l-9.9,0l-9.3-9.3l-0.2-0.2h-0.3l-3.4,0c-0.1-0.7-0.4-1.4-1-2
		c-1.3-1.3-3.5-1.3-4.9,0c-1.3,1.3-1.3,3.5,0,4.9C23.5,277.4,25.7,277.4,27.1,276.1z M83.4,260.4c-0.5-0.5-0.8-1.3-0.8-2l0,0
		c0-0.4,0.1-0.8,0.3-1.2c0.1-0.3,0.3-0.6,0.6-0.8l0,0l0,0l0,0l0,0c0.1-0.1,0.1-0.1,0.2-0.2c0.5-0.4,1.2-0.7,1.8-0.7l0,0
		c0.2,0,0.5,0,0.7,0.1c0.5,0.1,0.9,0.4,1.3,0.7l0,0l0,0l0,0l0,0c0.4,0.4,0.6,0.8,0.7,1.3c0.1,0.2,0.1,0.5,0.1,0.7
		c0,0.6-0.2,1.3-0.7,1.8c-0.1,0.1-0.1,0.1-0.2,0.2l0,0l0,0l0,0l0,0c-0.2,0.2-0.5,0.4-0.8,0.6c-0.4,0.2-0.8,0.3-1.2,0.3
		C84.7,261.2,83.9,260.9,83.4,260.4L83.4,260.4L83.4,260.4L83.4,260.4L83.4,260.4z"/>
	<path class="st0" d="M48.9,323c0.5-0.5,0.8-1.1,1-1.8l0,0l6.3,0l0.3,0l0.2-0.2l5.5-5.5l3.8-3.8l8.9,0l0.8,0c0.1,1,0.4,1.9,1.2,2.7
		l0,0l0,0l0,0l0,0c0.8,0.8,1.8,1.2,2.9,1.2c1,0,2.1-0.4,2.9-1.2l0,0l0,0l0,0l0,0c0.1-0.1,0.2-0.2,0.2-0.3c0.6-0.8,1-1.7,1-2.6
		c0-1-0.4-2.1-1.2-2.9l0,0l0,0l0,0l0,0c-0.8-0.8-1.8-1.2-2.9-1.2l0,0c-0.9,0-1.9,0.3-2.6,1c-0.1,0.1-0.2,0.2-0.3,0.2l0,0l0,0l0,0
		l0,0c-0.5,0.5-0.9,1.2-1.1,1.8l-10.1,0l-0.3,0l-0.2,0.2l-5.6,5.6l-3.6,3.6l-6,0c-0.1-0.7-0.4-1.3-1-1.8c-0.8-0.8-2-1.2-3.1-0.9
		c-0.7,0.1-1.3,0.4-1.8,1c-1.3,1.3-1.3,3.5,0,4.9C45.4,324.4,47.6,324.4,48.9,323z M77.7,313.5c-0.5-0.5-0.8-1.1-0.8-1.8h0.1l0-0.6
		l0-0.2c0.1-0.5,0.4-1,0.7-1.4l0,0l0,0l0,0l0,0c0.1-0.1,0.2-0.2,0.3-0.2c0.5-0.4,1.1-0.6,1.7-0.6l0,0c0.7,0,1.4,0.3,2,0.8l0,0l0,0
		l0,0l0,0c0.5,0.5,0.8,1.3,0.8,2c0,0.6-0.2,1.2-0.6,1.7c-0.1,0.1-0.1,0.2-0.2,0.3l0,0l0,0l0,0l0,0c-0.5,0.5-1.3,0.8-2,0.8
		C79,314.4,78.2,314.1,77.7,313.5L77.7,313.5L77.7,313.5L77.7,313.5L77.7,313.5z"/>
	<path class="st0" d="M266.2,211.5v-0.3l-0.2-0.2l-14-14l0-4.9l0-2.9l0-0.3l-0.2-0.2l-32.1-32.1l0-4.6l0-1.7l0-1.8l0-0.3l-0.2-0.2
		l-25.7-25.7l0-6.2l0-0.3l-0.2-0.2l-28.7-28.7l-0.2-0.2l-0.3,0l-2.2,0l-6.1,0l-3.6,0l-6.7-6.7l-0.2-0.2l-0.3,0l-5.6,0l-6.8,0l-3.1,0
		l-8.7-8.7l0-3.1l0-6.8l0-9.5l0-5.7l0-0.3l-0.2-0.2l-4.5-4.5l0.3-2.7c0.8-0.1,1.6-0.4,2.2-1c0.4-0.4,0.7-0.9,0.9-1.4
		c0.4-1.2,0.1-2.5-0.9-3.5c-0.9-0.9-2.3-1.2-3.5-0.9c-0.5,0.2-1,0.4-1.4,0.9c-1.3,1.3-1.3,3.5,0,4.9c0.4,0.4,0.9,0.7,1.4,0.9l-0.4,3
		l0,0.3l0.2,0.2l4.5,4.5l0,4.2l0,9.5l0,6.8v3.9v0.7l0,0.3l0.2,0.2l9,9l0.2,0.2l0.3,0l0.7,0l3.9,0l6.8,0l4.1,0l6.7,6.7l0.2,0.2l0.3,0
		h5.1l5.9,0l0.8,0l28.3,28.3l0,4.8l0,1.4v0.3l0.2,0.2l12.4,12.4l13.2,13.2l0,0.3l0,1.5l0,6.4l0,0.3l0.2,0.2l32.1,32.1v1.3l0,6.4
		l0,0.3l0.2,0.2l14,14l0,0.2l0,3.9l0,5.7l0,1.7l0,0l0,0.2l0.2,0.2l130.7,130.7l0.9-0.9L266.2,223l0-0.1v-5.7v-3.9V211.5z"/>
	<polygon class="st0" points="264.2,315 264.2,314.7 264,314.5 236.8,287.3 236.6,287.5 235.9,288.2 236,288.3 263,315.3 263,323.6 
		263,326.9 262.9,327.2 263.1,327.4 337.8,402.7 337.4,403.2 336.5,404.1 261.6,329.1 261.6,327.4 261.6,322.3 261.6,317.4 
		261.6,317.2 261.4,317 234.5,290.1 234.1,290.6 233.6,291 260.3,317.7 260.3,321 260.3,326.1 260.3,329.4 260.3,329.6 260.5,329.8 
		336.1,405.4 336.5,405.9 337,405.4 338.3,404.1 339.2,403.2 339.6,402.7 339.2,402.3 264.2,326.7 264.2,324.9 264.2,315.1 	"/>
	<path class="st0" d="M28.1,287.5c0.7-0.7,1.1-1.7,1-2.7l0.4-0.1l2.4-0.6l0.7,0.7l7,7l0.2,0.2l0.3,0l7.8,0l0.3,0l0.2-0.2l5.9-5.9
		l0.2,0l6.3,0l6.7,0c0.1,1,0.5,1.9,1.2,2.6l0,0l0,0l0,0l0,0c0.8,0.8,1.8,1.2,2.9,1.2c1,0,2.1-0.4,2.9-1.2l0,0l0,0l0,0l0,0l0,0
		c0.8-0.8,1.2-1.8,1.2-2.9c0-1-0.4-2.1-1.2-2.9l0,0l0,0l0,0l0,0c-0.8-0.8-1.8-1.2-2.9-1.2c-1,0-2.1,0.4-2.9,1.2l0,0l0,0l0,0l0,0l0,0
		c-0.5,0.5-0.9,1.2-1.1,1.9l-8.1,0l-5.6,0l-0.3,0l-0.2,0.2l-0.1,0.1l-0.2,0.2l-5.7,5.7l-7.2,0l-5.9-5.9l-1.8-1.8l-0.3-0.3l-0.4,0.1
		l-3.1,0.8c-0.2-0.3-0.4-0.7-0.7-0.9c-1.3-1.3-3.5-1.3-4.9,0c-1.3,1.3-1.3,3.5,0,4.9C24.5,288.8,26.7,288.8,28.1,287.5z M69.5,287.4
		c-0.5-0.5-0.7-1.1-0.8-1.7l0,0l0-0.6c0.1-0.6,0.3-1.2,0.8-1.6l0,0l0,0l0,0l0,0l0,0c0.5-0.5,1.3-0.8,2-0.8c0.7,0,1.4,0.3,2,0.8l0,0
		l0,0l0,0l0,0c0.5,0.5,0.8,1.3,0.8,2c0,0.7-0.3,1.4-0.8,2l0,0l0,0l0,0l0,0l0,0c-0.5,0.5-1.3,0.8-2,0.8C70.8,288.3,70,288,69.5,287.4
		L69.5,287.4L69.5,287.4L69.5,287.4L69.5,287.4z"/>
</g>
</svg>
