<?xml version="1.0" encoding="utf-8"?>
<svg id="zastavaLBL1" image-rendering="auto" baseProfile="basic" version="1.1" x="0px" y="0px" width="500" height="500" xmlns="http://www.w3.org/2000/svg" xmlns:xlink="http://www.w3.org/1999/xlink">
  <g id="Scene-1-copy-copy" overflow="visible">
    <g id="Symbol-78" transform="translate(67.05 44.55)">
      <path id="Layer50_0_1_STROKES" stroke="#000" stroke-width="41.65" stroke-linejoin="miter" stroke-linecap="round" stroke-miterlimit="10" fill="none" d="M0 0L0 419.05" test="Symbol 1"/>
    </g>
    <g display="none">
      <g id="Symbol-77" transform="translate(103.7 20.85)">
        <path fill="#FFCB05" stroke="none" d="M218.5 81.4Q186.4 52.9 182.35 49.45 161.65 32 144.85 21.75 123.9 8.95 103.55 3.75 55.8 -8.5 .4 19.2 -.15 19.5 .05 136.95 .2 195.7 .4 254.4 19.9 218.45 41.85 199.8 61.4 183.15 84.15 179.4 103.15 176.25 127.05 182 142.05 185.6 170.35 196.35 200 207.65 213.75 211.25 237.9 217.65 257 215.5 280 212.95 299.85 197.85 322.15 180.95 342.05 147.15 299.65 144.3 255.6 112.05 240.5 100.95 218.5 81.4Z" test="Symbol 27"/>
      </g>
      <animate attributeName="display" repeatCount="indefinite" dur="1.042s" keyTimes="0;.96;1" values="none;inline;inline"/>
    </g>
    <g display="none">
      <g id="Symbol-76" transform="translate(103.7 26.2)">
        <path fill="#FFCB05" stroke="none" d="M341.95 144.8Q341.7 144.75 341.4 144.7 299.3 137.75 257 107.25 241.55 96.25 221.1 78.95 220.2 78.25 219.3 77.5 188.85 51.4 182.6 47.25 165.85 34.15 151.45 25.35 147.95 23.15 144.6 21.25 124.4 9.6 103.25 4.3 94.15 1.95 84.6 .95 43.8 -3.65 .45 13.85 .35 13.85 .35 14.1 -.15 18.95 .05 131.55 .05 131.6 .05 131.65 .2 190.35 .4 249.05 20.9 216.05 43.55 198.55 61.25 184.65 81.2 180.05 83.3 179.6 85.4 179.25 104 175.9 127.4 180.35 142.55 182.95 169.1 191.55 169.65 191.7 170.2 191.85 197.45 201.35 212.85 204.05 213.05 204.1 213.25 204.1 236.75 209.2 255.35 206.95 257.35 206.7 259.3 206.4 279.7 203.1 297.8 190.7 321 175.2 341.95 144.8Z" test="Symbol 26"/>
      </g>
      <animate attributeName="display" repeatCount="indefinite" dur="1.042s" keyTimes="0;.92;.96;1" values="none;inline;none;none"/>
    </g>
    <g display="none">
      <g id="Symbol-75" transform="translate(103.65 31.2)">
        <path fill="#FFCB05" stroke="none" d="M341.85 142.75Q341.7 142.75 341.55 142.7 299.35 131.85 258.45 102.85 242 91.4 221.95 75.35 221.05 74.65 220.1 73.9 191.35 50.3 182.95 45.35 166 33.1 151.15 24.85 147.8 22.9 144.4 21.15 124.95 10.65 103 5.2 94 2.95 84.5 1.7 42.6 -3.85 .5 8.9 .45 8.85 .4 9.05 -.15 13.1 .1 126.5 .1 126.55 .1 126.6 .25 185.35 .45 244.05 22 214 45.35 197.7 63.05 184.95 82.6 180.3 84.65 179.85 86.65 179.45 104.95 175.95 127.85 179.05 143.45 180.7 169.05 187.45 169.55 187.6 170.1 187.75 194.95 195.35 212 197.15 212.15 197.2 212.35 197.25 235.45 201.05 253.7 198.8 255.7 198.5 257.6 198.2 277.7 194.95 295.8 183.85 319.9 169.8 341.85 142.75Z" test="Symbol 25"/>
      </g>
      <animate attributeName="display" repeatCount="indefinite" dur="1.042s" keyTimes="0;.88;.92;1" values="none;inline;none;none"/>
    </g>
    <g display="none">
      <g id="Symbol-74" transform="translate(103.65 35.75)">
        <path fill="#FFCB05" stroke="none" d="M341.75 141.2Q341.7 141.15 341.6 141.1 299.4 126.4 259.85 98.85 242.45 87.05 222.8 72.15 221.85 71.5 220.9 70.8 193.8 49.6 183.2 43.95 166.05 32.55 150.85 24.85 147.55 23.05 144.15 21.45 125.45 12.1 102.7 6.55 93.85 4.35 84.35 2.95 41.35 -3.6 .55 4.35 .45 4.3 .4 4.45 -.15 7.65 .1 121.9 .1 121.95 .1 122 .25 180.75 .45 239.5 23 212.4 47.05 197.25 64.75 185.65 83.95 180.95 85.95 180.5 87.9 180.1 105.8 176.4 128.2 178.2 144.25 178.9 168.9 183.85 169.4 183.95 169.95 184.05 192.4 189.85 211.1 190.75 211.25 190.8 211.45 190.8 234.15 193.4 252.05 191.05 254 190.75 255.85 190.45 275.65 187.25 293.75 177.5 318.75 164.85 341.75 141.2Z" test="Symbol 24"/>
      </g>
      <animate attributeName="display" repeatCount="indefinite" dur="1.042s" keyTimes="0;.84;.88;1" values="none;inline;none;none"/>
    </g>
    <g display="none">
      <g id="Symbol-73" transform="translate(103.65 39.15)">
        <path fill="#FFCB05" stroke="none" d="M341.65 140.8Q341.65 140.75 341.7 140.65 299.45 122.05 261.2 96.05 242.9 83.8 223.65 70.15 222.7 69.45 221.7 68.8 196.2 50.05 183.5 43.7 166.15 33.15 150.5 25.95 147.3 24.4 143.85 22.9 125.95 14.75 102.4 9.05 93.65 6.9 84.2 5.35 40.05 -2.25 .55 .95 .5 .95 .45 1.05 -.15 3.35 .05 118.4 .05 118.45 .05 118.5 .2 177.3 .45 236.1 24.05 212 48.75 197.95 66.5 187.5 85.35 182.75 87.2 182.3 89.15 181.9 106.7 178.05 128.55 178.5 145.1 178.3 168.8 181.4 169.3 181.45 169.75 181.5 189.85 185.5 210.15 185.5 210.35 185.5 210.5 185.55 232.85 186.85 250.4 184.45 252.25 184.2 254.1 183.9 273.65 180.65 291.75 172.25 317.6 161.1 341.65 140.8Z" test="Symbol 23"/>
      </g>
      <animate attributeName="display" repeatCount="indefinite" dur="1.042s" keyTimes="0;.8;.84;1" values="none;inline;none;none"/>
    </g>
    <g display="none">
      <g id="Symbol-72" transform="translate(103.65 40.1)">
        <path fill="#FFCB05" stroke="none" d="M341.55 142.85Q341.65 142.75 341.75 142.65 299.5 120.2 262.6 95.65 243.35 83.05 224.5 70.55 223.5 69.9 222.5 69.3 198.65 52.95 183.75 45.9 166.2 36.2 150.2 29.55 147.05 28.15 143.6 26.8 126.45 19.8 102.1 14 93.5 11.9 84.05 10.2 38.8 1.6 .6 0 .5 0 .45 .05 -.15 1.5 .05 117.4 .05 117.45 .05 117.5 .2 176.3 .45 235.15 25.05 214 50.45 201.1 68.2 191.8 86.7 187 88.5 186.55 90.4 186.15 107.55 182.1 128.9 181.25 145.9 180.1 168.65 181.4 169.15 181.4 169.6 181.4 187.3 183.6 209.25 182.7 209.45 182.7 209.6 182.7 231.55 182.8 248.75 180.3 250.55 180.05 252.35 179.75 271.6 176.55 289.7 169.5 316.45 159.75 341.55 142.85Z" test="Symbol 22"/>
      </g>
      <animate attributeName="display" repeatCount="indefinite" dur="1.042s" keyTimes="0;.76;.8;1" values="none;inline;none;none"/>
    </g>
    <g display="none">
      <g id="Symbol-71" transform="translate(103.65 40.1)">
        <path fill="#FFCB05" stroke="none" d="M341.4 145.8Q341.6 145.75 341.85 145.65 299.5 119.3 264 96.25 243.75 83.2 225.3 71.95 224.3 71.3 223.25 70.7 201.1 56.85 184.05 49 166.3 40.15 149.85 34.05 146.85 32.9 143.35 31.7 126.95 25.85 101.8 19.9 93.3 17.9 83.9 15.95 37.55 6.4 .6 .05 .55 0 .45 0 -.2 .65 .05 117.35 .05 117.4 .05 117.45 .2 176.3 .45 235.15 26.1 216.95 52.2 205.25 69.95 197.1 88.05 192.25 89.8 191.8 91.6 191.35 108.45 187.15 129.3 184.95 146.75 182.85 168.55 182.3 169 182.3 169.45 182.3 184.75 182.6 208.35 180.8 208.5 180.8 208.65 180.85 230.2 179.65 247.05 177.15 248.85 176.85 250.6 176.55 269.55 173.4 287.65 167.65 315.3 159.35 341.4 145.8Z" test="Symbol 21"/>
      </g>
      <animate attributeName="display" repeatCount="indefinite" dur="1.042s" keyTimes="0;.72;.76;1" values="none;inline;none;none"/>
    </g>
    <g display="none">
      <g id="Symbol-70" transform="translate(103.65 40.05)">
        <path fill="#FFCB05" stroke="none" d="M168.4 183.3Q181.4 181.8 207.75 179 231.15 176.35 248.85 173.4 297.25 165.35 341.9 148.65 273.3 99.75 226.15 73.35 185.3 50.45 149.55 38.65 128.95 31.85 83.75 21.8 36.15 11.2 .45 0 -.2 -.2 .05 117.45 .2 176.3 .45 235.2 44.75 209.85 89.4 197.5 121.3 188.65 168.4 183.3Z" test="Symbol 20"/>
      </g>
      <animate attributeName="display" repeatCount="indefinite" dur="1.042s" keyTimes="0;.68;.72;1" values="none;inline;none;none"/>
    </g>
    <g display="none">
      <g id="Symbol-69" transform="translate(103.6 40.1)">
        <path fill="#FFCB05" stroke="none" d="M230.25 72.1Q221.55 67.25 212.9 63 193.2 53.3 173.7 46.35 163.15 42.4 152 39.25 143.8 36.9 132.05 34.1 113.35 29.9 90.2 24.85 87.4 24.3 84.5 23.65 36.25 13.25 .55 0 .5 -.05 .4 .3 -.15 5.6 .1 117.3 .1 117.55 .1 117.8 .25 176.45 .5 235.15 45.7 213.4 90.25 201.5 92.2 201 94.15 200.5 111.5 196.05 132.9 192.1 148.15 189.45 168.7 186.3 169.35 186.2 170.05 186.05 184.05 183.9 207.9 181 228.05 178.35 243.95 175.85 246.45 175.45 248.85 175.05 296.4 167.35 341.95 153.7 292.05 110.2 251.05 84.4 240.35 77.7 230.25 72.1Z" test="Symbol 19"/>
      </g>
      <animate attributeName="display" repeatCount="indefinite" dur="1.042s" keyTimes="0;.64;.68;1" values="none;inline;none;none"/>
    </g>
    <g display="none">
      <g id="Symbol-68" transform="translate(103.65 40.15)">
        <path fill="#FFCB05" stroke="none" d="M234.25 70.8Q225.45 66 216.55 61.85 197 52.6 176.45 46.25 166.2 42.75 154.35 39.85 145.8 37.75 133.9 35.2 113.05 31.3 90.95 26.7 88.1 26.1 85.15 25.5 36.25 15.35 .55 0 .45 -.05 .4 .2 -.15 4.55 .1 117.2 .1 117.45 .1 117.7 .2 176.35 .45 235.1 46.55 217 91 205.55 92.95 205.05 94.95 204.55 112.35 200.2 133.5 195.9 147.25 193.4 168.9 189.3 169.55 189.15 170.25 189.05 185.25 186.2 208 183.05 227.95 179.95 243.85 177.5 246.3 177.1 248.7 176.75 295.4 169.35 341.9 158.75 296.35 110.4 255.25 83.45 244.65 76.55 234.25 70.8Z" test="Symbol 18"/>
      </g>
      <animate attributeName="display" repeatCount="indefinite" dur="1.042s" keyTimes="0;.6;.64;1" values="none;inline;none;none"/>
    </g>
    <g display="none">
      <g id="Symbol-67" transform="translate(103.65 40.15)">
        <path fill="#FFCB05" stroke="none" d="M238.3 69.6Q229.45 64.8 220.3 60.75 200.8 52 179.25 46.15 169.3 43.1 156.75 40.5 147.9 38.65 135.75 36.4 112.8 32.75 91.75 28.55 88.85 28 85.85 27.4 36.3 17.45 .6 .05 .5 -.05 .4 .15 -.15 3.55 .1 117.1 .1 117.35 .1 117.6 .2 176.3 .45 235.1 47.45 220.6 91.8 209.6 93.8 209.15 95.8 208.65 113.2 204.4 134.2 199.75 146.35 197.4 169.15 192.35 169.8 192.2 170.5 192.05 186.5 188.5 208.1 185.1 227.95 181.65 243.8 179.2 246.25 178.8 248.65 178.45 294.5 171.4 341.9 163.85 300.7 110.65 259.45 82.5 248.95 75.4 238.3 69.6Z" test="Symbol 17"/>
      </g>
      <animate attributeName="display" repeatCount="indefinite" dur="1.042s" keyTimes="0;.56;.6;1" values="none;inline;none;none"/>
    </g>
    <g display="none">
      <g id="Symbol-66" transform="translate(103.65 40.15)">
        <path fill="#FFCB05" stroke="none" d="M242.4 68.4Q233.4 63.55 224.05 59.65 204.65 51.35 182.05 46.1 172.4 43.5 159.15 41.2 149.95 39.5 137.65 37.6 112.6 34.25 92.6 30.45 89.55 29.9 86.55 29.3 36.35 19.55 .7 .05 .55 0 .4 .05 -.15 2.55 .1 117.05 .1 117.3 .1 117.55 .25 176.3 .45 235.1 48.35 224.2 92.65 213.7 94.6 213.2 96.6 212.75 114.1 208.6 134.9 203.55 145.5 201.35 169.4 195.4 170.05 195.25 170.7 195.1 187.7 190.8 208.25 187.15 227.95 183.35 243.75 180.9 246.2 180.55 248.6 180.15 293.55 173.4 341.9 168.9 305 110.85 263.65 81.6 253.25 74.25 242.4 68.4Z" test="Symbol 16"/>
      </g>
      <animate attributeName="display" repeatCount="indefinite" dur="1.042s" keyTimes="0;.52;.56;1" values="none;inline;none;none"/>
    </g>
    <g display="none">
      <g id="Symbol-65" transform="translate(103.65 40.15)">
        <path fill="#FFCB05" stroke="none" d="M267.85 80.65Q257.55 73.1 246.45 67.2 237.4 62.35 227.8 58.55 208.45 50.75 184.85 46 175.5 43.85 161.55 41.85 152.05 40.4 139.5 38.8 112.35 35.7 93.4 32.3 90.3 31.8 87.25 31.2 36.4 21.65 .75 .1 .6 0 .4 0 -.15 1.55 .1 116.95 .1 117.2 .1 117.45 .25 176.25 .45 235.1 49.25 227.8 93.45 217.75 95.45 217.3 97.45 216.85 114.95 212.8 135.6 207.4 144.6 205.35 169.65 198.45 170.3 198.3 170.95 198.1 188.95 193.1 208.35 189.2 227.95 185.05 243.7 182.6 246.15 182.25 248.55 181.85 292.65 175.45 341.9 174 309.35 111.1 267.85 80.65Z" test="Symbol 15"/>
      </g>
      <animate attributeName="display" repeatCount="indefinite" dur="1.042s" keyTimes="0;.48;.52;1" values="none;inline;none;none"/>
    </g>
    <g display="none">
      <g id="Symbol-64" transform="translate(103.7 40.1)">
        <path fill="#FFCB05" stroke="none" d="M272.05 79.8Q261.85 72.05 250.45 66 241.3 61.2 231.45 57.5 212.25 50.15 187.6 46 178.55 44.3 163.9 42.55 154.05 41.35 141.35 40 112.05 37.2 94.15 34.25 91 33.7 87.9 33.15 36.4 23.85 .75 .2 .55 .1 .4 0 -.15 .6 .1 116.95 .1 117.2 .1 117.45 .2 176.25 .4 235.15 50.1 231.5 94.2 221.9 96.2 221.45 98.25 221 115.8 217.05 136.2 211.3 143.7 209.4 169.85 201.55 170.5 201.35 171.15 201.2 190.15 195.5 208.45 191.35 227.85 186.75 243.6 184.35 246 184 248.4 183.65 291.65 177.55 341.85 179.15 313.65 111.4 272.05 79.8Z" test="Symbol 14"/>
      </g>
      <animate attributeName="display" repeatCount="indefinite" dur="1.042s" keyTimes="0;.44;.48;1" values="none;inline;none;none"/>
    </g>
    <g display="none">
      <g id="Symbol-63" transform="translate(103.7 40.05)">
        <path fill="#FFCB05" stroke="none" d="M235.2 56.45Q216.05 49.6 190.4 45.95 175.85 43.9 143.2 41.25 111.8 38.7 94.95 36.15 38.25 27.5 .4 0 -.15 -.35 .1 117.4 .2 176.25 .4 235.2 53.35 235.15 99.1 225.15 116.65 221.3 136.9 215.2 142.95 213.4 171.4 204.25 213.95 190.6 243.55 186.1 287.85 179.4 341.85 184.3 318 111.7 276.25 78.9 258.15 64.65 235.2 56.45Z" test="Symbol 13"/>
      </g>
      <animate attributeName="display" repeatCount="indefinite" dur="1.042s" keyTimes="0;.4;.44;1" values="none;inline;none;none"/>
    </g>
    <g display="none">
      <g id="Symbol-62" transform="translate(103.7 40.05)">
        <path fill="#FFCB05" stroke="none" d="M272.55 79Q261.2 70.05 247.95 63.05 240.3 59.05 232.25 55.9 218.05 49.75 202.6 46.55 195.8 44.85 188.5 43.5 176.85 40.9 155.45 38.4 149.25 37.6 142.25 36.75 122 34.45 107.55 32.5 100.35 31.6 94.65 30.75 39.35 22.3 .45 0 .4 0 .4 .2 -.15 4.1 .1 117.35 .1 117.65 .1 117.95 .2 176.55 .4 235.2 29.65 231.55 57 226.7 77.55 222.9 97.25 218.75 97.45 218.7 97.65 218.65 114.4 215.05 133.85 210.6 135 210.3 136.15 210 143.1 208.8 171.1 201.65 171.2 201.6 171.3 201.55 192.25 196.9 209.05 193.3 228.75 189.45 244.7 187.15 245.45 187.05 246.15 186.95 265.65 184.15 286.5 182.05 312.95 179.6 341.85 178.65 320.65 126.7 289.2 94.2 281.3 85.9 272.55 79Z" test="Symbol 12"/>
      </g>
      <animate attributeName="display" repeatCount="indefinite" dur="1.042s" keyTimes="0;.36;.4;1" values="none;inline;none;none"/>
    </g>
    <g display="none">
      <g id="Symbol-61" transform="translate(103.7 40)">
        <path fill="#FFCB05" stroke="none" d="M268.85 79.2Q257.7 70.35 244.65 63 237.1 58.8 229.35 55.4 214.4 47.9 200.35 44.8 193.7 42.75 186.65 41.1 174.7 37.55 154.3 34.5 148.15 33.35 141.3 32.3 121.6 29.35 107.1 27.25 100.05 26.25 94.35 25.4 40.45 17.2 .5 0 .45 .05 .4 .2 -.15 3.75 .1 117.4 .1 117.7 .1 118 .2 176.6 .4 235.25 28.6 228 55.35 221.65 75.75 216.4 95.8 212.3 96 212.25 96.2 212.2 113.2 208.65 133.1 205.35 134.25 205.1 135.45 204.9 143.25 204.25 171.05 198.95 171.15 198.95 171.25 198.9 193.15 196 209.55 193.2 229.6 190.45 245.85 188.25 246.6 188.15 247.35 188.05 267.25 185.3 287.95 181.75 314 177.7 341.9 173.1 318.35 126.6 285.5 94.1 277.65 86.15 268.85 79.2Z" test="Symbol 11"/>
      </g>
      <animate attributeName="display" repeatCount="indefinite" dur="1.042s" keyTimes="0;.32;.36;1" values="none;inline;none;none"/>
    </g>
    <g display="none">
      <g id="Symbol-60" transform="translate(103.7 40)">
        <path fill="#FFCB05" stroke="none" d="M281.75 93.95Q273.95 86.3 265.15 79.3 254.25 70.6 241.4 62.9 233.9 58.45 226.4 54.9 210.8 46.05 198.1 42.95 191.6 40.65 184.75 38.65 172.5 34.1 153.1 30.5 147 29.1 140.35 27.8 121.2 24.25 106.65 21.9 99.8 20.85 94 20 41.55 12 .5 0 .45 0 .4 .2 -.15 3.3 .1 117.35 .1 117.65 .1 117.95 .2 176.6 .4 235.25 27.5 224.45 53.65 216.5 73.95 209.85 94.35 205.8 94.55 205.75 94.75 205.7 111.95 202.25 132.35 200 133.5 199.85 134.7 199.7 143.4 199.6 170.95 196.25 171.05 196.2 171.15 196.2 194 195.1 210.1 193.1 230.5 191.45 246.95 189.25 247.8 189.15 248.55 189.05 268.85 186.35 289.45 181.35 315 175.7 341.9 167.45 316 126.4 281.75 93.95Z" test="Symbol 10"/>
      </g>
      <animate attributeName="display" repeatCount="indefinite" dur="1.042s" keyTimes="0;.28;.32;1" values="none;inline;none;none"/>
    </g>
    <g display="none">
      <g id="Symbol-59" transform="translate(103.7 39.95)">
        <path fill="#FFCB05" stroke="none" d="M278 93.85Q270.3 86.55 261.45 79.45 250.75 70.9 238.1 62.85 230.7 58.15 223.5 54.4 207.2 44.25 195.85 41.2 189.5 38.55 182.9 36.25 170.3 30.75 151.95 26.55 145.9 24.85 139.4 23.35 120.8 19.15 106.2 16.65 99.5 15.5 93.7 14.65 42.65 6.9 .55 0 .5 .05 .4 .2 -.15 2.95 .1 117.4 .1 117.7 .1 118 .2 176.65 .4 235.3 26.4 220.9 51.95 211.45 72.15 203.35 92.9 199.35 93.1 199.3 93.3 199.25 110.75 195.85 131.6 194.75 132.75 194.65 134 194.6 143.55 195.05 170.85 193.55 170.95 193.55 171.05 193.55 194.85 194.2 210.6 193 231.35 192.45 248.1 190.35 248.95 190.25 249.75 190.15 270.45 187.45 290.95 181.05 316.05 173.75 341.95 161.85 313.65 126.3 278 93.85Z" test="Symbol 9"/>
      </g>
      <animate attributeName="display" repeatCount="indefinite" dur="1.042s" keyTimes="0;.24;.28;1" values="none;inline;none;none"/>
    </g>
    <g display="none">
      <g id="Symbol-58" transform="translate(103.7 39.95)">
        <path fill="#FFCB05" stroke="none" d="M274.3 93.7Q266.65 86.7 257.8 79.6 247.25 71.15 234.85 62.8 227.55 57.85 220.55 53.85 203.6 42.4 193.6 39.4 187.4 36.4 181 33.8 168.15 27.3 150.75 22.6 144.8 20.6 138.45 18.85 120.45 14.05 105.8 11.3 99.2 10.15 93.4 9.25 43.75 1.7 .6 0 .5 .05 .4 .2 -.15 2.55 .1 117.4 .1 117.7 .1 118 .2 176.65 .4 235.3 25.35 217.3 50.3 206.35 70.4 196.8 91.45 192.85 91.65 192.8 91.85 192.75 109.55 189.4 130.85 189.45 132.05 189.45 133.3 189.45 143.7 190.45 170.8 190.85 170.9 190.85 171 190.85 195.75 193.25 211.15 192.85 232.25 193.4 249.25 191.4 250.15 191.3 251 191.2 272.05 188.55 292.45 180.65 317.05 171.8 341.95 156.25 311.35 126.1 274.3 93.7Z" test="Symbol 8"/>
      </g>
      <animate attributeName="display" repeatCount="indefinite" dur="1.042s" keyTimes="0;.2;.24;1" values="none;inline;none;none"/>
    </g>
    <g display="none">
      <g id="Symbol-57" transform="translate(103.7 38.8)">
        <path fill="#FFCB05" stroke="none" d="M270.55 94.7Q262.95 88 254.1 80.85 243.75 72.5 231.6 63.85 224.35 58.65 217.6 54.45 199.95 41.65 191.35 38.75 185.25 35.4 179.1 32.5 165.95 25 149.55 19.75 143.7 17.5 137.5 15.5 120.05 10.1 105.35 7.1 98.9 5.9 93.1 5 44.85 -2.35 .65 1.15 .5 1.2 .4 1.35 -.15 3.25 .05 118.5 .05 118.8 .05 119.1 .2 177.75 .4 236.45 24.25 214.85 48.6 202.35 68.6 191.4 89.95 187.45 90.15 187.4 90.35 187.35 108.3 184.1 130.05 185.3 131.3 185.35 132.55 185.4 143.85 187 170.7 189.3 170.8 189.3 170.9 189.3 196.6 193.45 211.65 193.85 233.1 195.5 250.4 193.6 251.3 193.5 252.2 193.4 273.6 190.75 293.9 181.4 318.05 170.95 341.95 151.75 309 127.05 270.55 94.7Z" test="Symbol 7"/>
      </g>
      <animate attributeName="display" repeatCount="indefinite" dur="1.042s" keyTimes="0;.16;.2;1" values="none;inline;none;none"/>
    </g>
    <g display="none">
      <g id="Symbol-56" transform="translate(103.7 35.2)">
        <path fill="#FFCB05" stroke="none" d="M266.8 98.15Q259.3 91.8 250.4 84.55 240.25 76.35 228.3 67.35 221.15 61.9 214.7 57.5 196.35 43.4 189.1 40.55 183.15 36.85 177.25 33.65 163.75 25.2 148.4 19.35 142.6 16.8 136.55 14.6 119.65 8.55 104.9 5.4 98.6 4.1 92.8 3.2 45.95 -3.9 .7 4.7 .55 4.8 .4 4.9 -.15 6.45 .05 122.1 .05 122.4 .05 122.7 .2 181.35 .4 240.05 23.15 214.85 46.9 200.85 66.8 188.45 88.5 184.55 88.7 184.5 88.9 184.45 107.1 181.25 129.3 183.6 130.55 183.7 131.85 183.85 144 186 170.6 190.15 170.7 190.2 170.8 190.2 197.45 196.1 212.15 197.3 233.95 200.05 251.55 198.25 252.45 198.15 253.4 198.05 275.2 195.4 295.4 184.65 319.1 172.55 342 149.7 306.65 130.5 266.8 98.15Z" test="Symbol 6"/>
      </g>
      <animate attributeName="display" repeatCount="indefinite" dur="1.042s" keyTimes="0;.12;.16;1" values="none;inline;none;none"/>
    </g>
    <g display="none">
      <g id="Symbol-55" transform="translate(103.7 30.7)">
        <path fill="#FFCB05" stroke="none" d="M186.85 43.2Q181.05 39.25 175.35 35.7 161.55 26.25 147.2 19.85 141.45 17.05 135.6 14.6 119.25 7.95 104.45 4.55 98.35 3.2 92.45 2.3 47.05 -4.6 .7 9.2 .55 9.25 .4 9.4 -.15 10.5 .05 126.55 .05 126.85 .05 127.15 .2 185.85 .4 244.55 22.05 215.8 45.2 200.2 65 186.4 87.05 182.55 87.25 182.5 87.45 182.45 105.85 179.35 128.55 182.75 129.8 182.95 131.1 183.15 144.15 185.85 170.5 191.95 170.6 191.95 170.7 192 198.3 199.7 212.7 201.7 234.85 205.55 252.65 203.75 253.65 203.65 254.6 203.55 276.8 200.95 296.9 188.75 320.1 175.05 342 148.55 304.3 134.8 263.05 102.5 255.6 96.45 246.7 89.15 236.8 81.1 225.05 71.75 217.95 66.05 211.75 61.5 192.75 46.05 186.85 43.2Z" test="Symbol 5"/>
      </g>
      <animate attributeName="display" repeatCount="indefinite" dur="1.042s" keyTimes="0;.08;.12;1" values="none;inline;none;none"/>
    </g>
    <g display="none">
      <g id="Symbol-54" transform="translate(103.7 25.85)">
        <path fill="#FFCB05" stroke="none" d="M184.6 46.25Q178.95 41.95 173.5 38.1 159.4 27.7 146.05 20.75 140.35 17.6 134.65 14.95 118.85 7.65 104 4.1 98.05 2.65 92.15 1.75 48.15 -4.9 .75 14 .6 14.1 .4 14.2 -.15 14.95 .05 131.4 .05 131.7 .05 132 .2 190.7 .4 249.4 21 217.05 43.55 199.95 63.2 184.7 85.6 180.9 85.8 180.85 86 180.8 104.65 177.75 127.8 182.3 129.05 182.55 130.4 182.85 144.3 186.1 170.45 194.05 170.55 194.1 170.65 194.15 199.2 203.6 213.2 206.4 235.7 211.35 253.8 209.65 254.8 209.55 255.8 209.45 278.4 206.9 298.35 193.25 321.15 177.95 342.05 147.8 302 139.5 259.35 107.2 251.95 101.5 243 94.15 233.3 86.2 221.75 76.5 214.75 70.6 208.85 65.8 189.1 49 184.6 46.25Z" test="Symbol 4"/>
      </g>
      <animate attributeName="display" repeatCount="indefinite" dur="1.042s" keyTimes="0;.04;.08;1" values="none;inline;none;none"/>
    </g>
    <g>
      <g id="Symbol-53" transform="translate(103.7 20.85)">
        <path fill="#FFCB05" stroke="none" d="M218.5 81.4Q186.4 52.9 182.35 49.45 161.65 32 144.85 21.75 123.9 8.95 103.55 3.75 55.8 -8.5 .4 19.2 -.15 19.5 .05 136.95 .2 195.7 .4 254.4 19.9 218.45 41.85 199.8 61.4 183.15 84.15 179.4 103.15 176.25 127.05 182 142.05 185.6 170.35 196.35 200 207.65 213.75 211.25 237.9 217.65 257 215.5 280 212.95 299.85 197.85 322.15 180.95 342.05 147.15 299.65 144.3 255.6 112.05 240.5 100.95 218.5 81.4Z" test="Symbol 2"/>
      </g>
      <animate attributeName="display" repeatCount="indefinite" dur="1.042s" keyTimes="0;.04;1" values="inline;none;none"/>
    </g>
    <g display="none">
      <g id="Symbol-52" transform="translate(103.4 81.85)">
        <path fill="#000" stroke="none" d="M242.15 81.5Q221.4 74.7 196.55 62.35 182.6 55.45 153.45 39.3 126.5 24.35 112.55 17.75 90.65 7.3 73.55 3.1 31.9 -7.1 0 16.4 .1 50.9 .6 85.3 53.05 71.65 99.95 82.35 117.2 86.3 138.15 94.55 150.15 99.25 173 109 193 117.1 207.6 120.5 226.85 125.05 245.25 124 288.75 121.55 342.15 86.2 295.1 98.8 242.15 81.5Z" test="Symbol 52"/>
      </g>
      <animate attributeName="display" repeatCount="indefinite" dur="1.042s" keyTimes="0;.96;1" values="none;inline;inline"/>
    </g>
    <g display="none">
      <g id="Symbol-51" transform="translate(103.4 84.9)">
        <path fill="#000" stroke="none" d="M207 114.4Q215.4 116.1 223.65 116.9 234.1 117.9 244.4 117.4 288.1 115.45 341.9 85.85 294.8 93.35 243.3 76.15 222.15 69 197.75 57.45 182.35 50.4 154.2 35.8 136.65 26.8 124.05 21.05 117.9 18.15 113.05 16.1 91.65 6.75 74 2.9 64.1 .7 54.6 .2 21.65 -1.6 .05 13.55 -.05 33.3 .2 56.4 .4 75 .55 87.85 38.15 78.5 76.05 80.5 87.75 81.2 99.05 83.15 117.05 86.05 137.35 92.85 139.4 93.45 141.75 94.25 153.85 97.95 172.45 104.75 192 111.55 207 114.4Z" test="Symbol 51"/>
      </g>
      <animate attributeName="display" repeatCount="indefinite" dur="1.042s" keyTimes="0;.92;.96;1" values="none;inline;none;none"/>
    </g>
    <g display="none">
      <g id="Symbol-50" transform="translate(103.4 87.95)">
        <path fill="#000" stroke="none" d="M206.45 108.35Q214.75 109.7 222.95 110.35 233.3 111.2 243.6 110.85 287.4 109.35 341.6 85.45 294.5 87.85 244.4 70.75 222.95 63.35 198.9 52.5 182.15 45.4 154.9 32.3 137.6 24.15 124.5 18.9 118.5 16.35 113.5 14.5 92.65 6.2 74.5 2.7 64.75 .75 55.25 .2 19.1 -1.8 .15 10.75 -.15 30.2 .1 56.35 .4 79.1 .5 90.4 36 82.1 75.25 82.4 87 82.6 98.15 84 116.9 85.75 136.55 91.1 138.65 91.6 141 92.2 153.65 95 171.95 100.5 191 106 206.45 108.35Z" test="Symbol 50"/>
      </g>
      <animate attributeName="display" repeatCount="indefinite" dur="1.042s" keyTimes="0;.88;.92;1" values="none;inline;none;none"/>
    </g>
    <g display="none">
      <g id="Symbol-49" transform="translate(103.35 90.85)">
        <path fill="#000" stroke="none" d="M205.9 102.4Q214.15 103.45 222.35 104 232.55 104.65 242.8 104.4 286.8 103.4 341.4 85.25 294.25 82.55 245.6 65.55 223.75 57.8 200.15 47.75 181.95 40.5 155.7 28.95 138.6 21.65 125.05 16.9 119.15 14.65 114.05 13 93.7 5.8 75 2.65 65.4 .95 55.9 .4 16.6 -1.85 .25 8.05 -.2 27.25 .1 56.5 .45 83.4 .5 93.1 33.9 85.8 74.5 84.45 86.25 84.2 97.3 84.95 116.8 85.65 135.8 89.55 137.95 89.85 140.3 90.3 153.55 92.2 171.45 96.4 190.05 100.6 205.9 102.4Z" test="Symbol 49"/>
      </g>
      <animate attributeName="display" repeatCount="indefinite" dur="1.042s" keyTimes="0;.84;.88;1" values="none;inline;none;none"/>
    </g>
    <g display="none">
      <g id="Symbol-48" transform="translate(103.25 93.65)">
        <path fill="#000" stroke="none" d="M205.45 96.55Q213.6 97.35 221.8 97.7 231.8 98.25 242.1 98.1 286.2 97.6 341.2 85.1 294 77.3 246.8 60.45 224.65 52.4 201.45 43.05 181.8 35.7 156.55 25.7 139.65 19.25 125.65 15 119.9 13.1 114.6 11.65 94.75 5.55 75.6 2.75 66.1 1.2 56.6 .65 14.2 -1.85 .4 5.45 -.25 24.35 .15 56.7 .5 87.8 .5 95.9 31.8 89.6 73.8 86.55 85.6 85.85 96.45 86 116.8 85.6 135.1 88.05 137.35 88.25 139.6 88.5 153.45 89.5 171.05 92.4 189.1 95.25 205.45 96.55Z" test="Symbol 48"/>
      </g>
      <animate attributeName="display" repeatCount="indefinite" dur="1.042s" keyTimes="0;.8;.84;1" values="none;inline;none;none"/>
    </g>
    <g display="none">
      <g id="Symbol-47" transform="translate(103.2 96.4)">
        <path fill="#000" stroke="none" d="M204.9 90.75Q213 91.25 221.2 91.5 231.05 91.85 241.3 91.8 285.6 91.8 341 85.05 293.75 72.15 248 55.4 225.45 47 202.7 38.45 181.6 30.95 157.35 22.5 140.65 16.9 126.2 13.15 120.55 11.55 115.15 10.3 95.8 5.3 76.1 2.85 66.75 1.55 57.25 1 11.7 -1.75 .5 2.9 -.3 21.55 .15 57 .55 92.25 .5 98.75 29.7 93.45 73.05 88.75 84.85 87.6 95.6 87.1 116.7 85.65 134.35 86.65 136.65 86.65 138.9 86.75 153.35 86.85 170.55 88.45 188.15 90 204.9 90.75Z" test="Symbol 47"/>
      </g>
      <animate attributeName="display" repeatCount="indefinite" dur="1.042s" keyTimes="0;.76;.8;1" values="none;inline;none;none"/>
    </g>
    <g display="none">
      <g id="Symbol-46" transform="translate(103.1 98.7)">
        <path fill="#000" stroke="none" d="M204.45 85.45Q212.45 85.6 220.6 85.7 230.35 85.9 240.6 86 285 86.45 340.8 85.4 293.55 67.4 249.2 50.75 226.35 42.1 203.95 34.25 181.5 26.7 158.15 19.75 141.7 15 126.75 11.75 121.25 10.5 115.7 9.45 96.9 5.5 76.7 3.4 67.5 2.35 58 1.75 9.25 -1.2 .7 .85 -.3 19.2 .15 57.7 .65 97.1 .55 102.05 27.65 97.8 72.35 91.4 84.2 89.75 94.8 88.7 116.65 86.1 133.65 85.65 136 85.55 138.25 85.45 153.25 84.65 170.15 84.95 187.25 85.2 204.45 85.45Z" test="Symbol 46"/>
      </g>
      <animate attributeName="display" repeatCount="indefinite" dur="1.042s" keyTimes="0;.72;.76;1" values="none;inline;none;none"/>
    </g>
    <g display="none">
      <g id="Symbol-45" transform="translate(103.05 99.75)">
        <path fill="#000" stroke="none" d="M58.65 3.8Q6.75 .6 .8 0 -.35 18.1 .15 59.7 .7 103.25 .55 106.6 25.55 103.35 71.6 95.3 112.7 88.1 137.55 85.4 176.05 81.15 220 81.2 271.5 81.25 340.6 87.05 219.4 27.9 127.3 11.6 96.65 6.15 58.65 3.8Z" test="Symbol 45"/>
      </g>
      <animate attributeName="display" repeatCount="indefinite" dur="1.042s" keyTimes="0;.68;.72;1" values="none;inline;none;none"/>
    </g>
    <g display="none">
      <g id="Symbol-44" transform="translate(103.05 99.75)">
        <path fill="#000" stroke="none" d="M220.85 80.25Q228.3 80.15 236 80.3 282.9 81.4 340.9 92.4 287.2 59.2 236.55 40.05 214.05 31.55 192.05 25.65 169.8 19.55 147.95 15.8 138.4 14 128.25 12.75 117.35 11.2 105.1 10.1 86.05 8.55 67.25 7.3 62.75 7.05 58.2 6.75 44.05 5.9 33.35 4.8 6.1 2.35 .8 0 -.35 18.1 .15 59.7 .7 103.25 .55 106.6 16.7 106.9 40.1 104.15 54.65 102.6 72.1 99.55 74 99.2 75.9 98.9 96.25 95.3 113.7 91.85 126.7 89.6 138.05 87.65 146 86.45 154.4 85.25 174.45 82.35 194.75 81.2 207.7 80.4 220.85 80.25Z" test="Symbol 44"/>
      </g>
      <animate attributeName="display" repeatCount="indefinite" dur="1.042s" keyTimes="0;.64;.68;1" values="none;inline;none;none"/>
    </g>
    <g display="none">
      <g id="Symbol-43" transform="translate(103.05 99.75)">
        <path fill="#000" stroke="none" d="M221.75 79.3Q229.35 79.15 237.05 79.35 284.6 80.75 341.15 97.8 290.45 58.95 239.3 38.9 216.85 30.15 194.05 24.6 171.95 19.05 149.2 16.2 139.95 14.75 129.2 13.85 118.3 12.75 105.6 12.05 85.05 11.25 66.95 10.25 62.3 10 57.7 9.7 43.4 8.85 32.65 7.25 7.05 4.25 .8 0 -.35 18.1 .15 59.7 .7 103.25 .55 106.6 17.2 109.3 40.1 107.65 55 106.9 72.65 103.8 74.5 103.5 76.4 103.15 96.05 99.55 114.3 95.1 126.65 92.65 138.55 89.95 146.4 88.35 154.8 86.7 175.5 82.6 195.35 80.9 208.5 79.55 221.75 79.3Z" test="Symbol 43"/>
      </g>
      <animate attributeName="display" repeatCount="indefinite" dur="1.042s" keyTimes="0;.6;.64;1" values="none;inline;none;none"/>
    </g>
    <g display="none">
      <g id="Symbol-42" transform="translate(103.05 99.75)">
        <path fill="#000" stroke="none" d="M222.6 78.35Q230.35 78.1 238.1 78.35 286.25 80.1 341.45 103.15 293.65 58.75 242.1 37.8 219.65 28.75 196.1 23.6 174.1 18.6 150.4 16.55 141.5 15.45 130.15 15 119.25 14.3 106.15 14.05 84.05 13.95 66.65 13.15 61.9 12.95 57.25 12.65 42.75 11.8 31.9 9.75 8 6.15 .8 0 -.35 18.1 .15 59.7 .7 103.25 .55 106.6 17.7 111.65 40.15 111.15 55.3 111.2 73.15 108.05 75 107.75 76.9 107.4 95.85 103.85 114.95 98.4 126.55 95.7 139.05 92.2 146.75 90.3 155.25 88.15 176.55 82.8 195.95 80.55 209.35 78.75 222.6 78.35Z" test="Symbol 42"/>
      </g>
      <animate attributeName="display" repeatCount="indefinite" dur="1.042s" keyTimes="0;.56;.6;1" values="none;inline;none;none"/>
    </g>
    <g display="none">
      <g id="Symbol-41" transform="translate(103.05 99.75)">
        <path fill="#000" stroke="none" d="M223.5 77.4Q231.35 77.05 239.2 77.4 287.95 79.4 341.7 108.5 296.9 58.55 244.9 36.7 222.5 27.3 198.15 22.6 176.2 18.1 151.6 16.9 143 16.2 131.15 16.15 120.25 15.85 106.7 16.05 83.05 16.7 66.4 16.05 61.5 15.95 56.8 15.65 42.05 14.75 31.15 12.25 8.9 8.05 .8 0 -.35 18.1 .15 59.7 .7 103.25 .55 106.6 18.25 114.05 40.15 114.7 55.65 115.5 73.7 112.35 75.55 112 77.4 111.65 95.7 108.15 115.6 101.65 126.45 98.7 139.5 94.45 147.15 92.2 155.7 89.65 177.65 83.05 196.5 80.2 210.15 77.95 223.5 77.4Z" test="Symbol 41"/>
      </g>
      <animate attributeName="display" repeatCount="indefinite" dur="1.042s" keyTimes="0;.52;.56;1" values="none;inline;none;none"/>
    </g>
    <g display="none">
      <g id="Symbol-40" transform="translate(103.05 99.75)">
        <path fill="#000" stroke="none" d="M224.35 76.45Q232.35 76 240.25 76.4 289.6 78.75 342 113.85 300.1 58.35 247.7 35.6 225.3 25.9 200.2 21.6 178.35 17.65 152.8 17.25 144.55 16.9 132.1 17.3 121.2 17.4 107.25 18.05 82.05 19.4 66.1 18.95 61.1 18.9 56.35 18.6 41.4 17.7 30.4 14.75 9.85 9.95 .8 0 -.35 18.1 .15 59.7 .7 103.25 .55 106.6 18.75 116.4 40.2 118.2 55.95 119.8 74.2 116.6 76.05 116.25 77.9 115.9 95.5 112.45 116.25 104.95 126.35 101.75 140 96.7 147.5 94.15 156.15 91.1 178.7 83.25 197.1 79.85 211 77.15 224.35 76.45Z" test="Symbol 40"/>
      </g>
      <animate attributeName="display" repeatCount="indefinite" dur="1.042s" keyTimes="0;.48;.52;1" values="none;inline;none;none"/>
    </g>
    <g display="none">
      <g id="Symbol-39" transform="translate(103.05 99.75)">
        <path fill="#000" stroke="none" d="M225.25 75.5Q233.4 75 241.3 75.45 291.3 78.1 342.25 119.25 303.35 58.1 250.45 34.45 228.1 24.5 202.2 20.55 180.5 17.15 154.05 17.65 146.1 17.65 133.05 18.4 122.15 18.95 107.75 20 81.05 22.1 65.8 21.9 60.65 21.85 55.85 21.55 40.75 20.65 29.7 17.2 10.8 11.85 .8 0 -.35 18.1 .15 59.7 .7 103.25 .55 106.6 19.25 118.8 40.2 121.7 56.3 124.1 74.75 120.85 76.55 120.55 78.4 120.15 95.3 116.7 116.85 108.2 126.3 104.8 140.5 99 147.9 96.05 156.55 92.55 179.75 83.5 197.7 79.55 211.8 76.3 225.25 75.5Z" test="Symbol 39"/>
      </g>
      <animate attributeName="display" repeatCount="indefinite" dur="1.042s" keyTimes="0;.44;.48;1" values="none;inline;none;none"/>
    </g>
    <g display="none">
      <g id="Symbol-38" transform="translate(103.05 99.75)">
        <path fill="#000" stroke="none" d="M198.3 79.2Q221.5 73.2 242.35 74.45 292.95 77.45 342.55 124.6 306.55 57.9 253.25 33.35 230.9 23.1 204.25 19.55 182.65 16.7 155.25 18 141.6 18.65 108.3 22 80.05 24.8 65.5 24.8 43.65 24.8 28.95 19.7 11.75 13.75 .8 0 -.35 18.1 .15 59.7 .7 103.25 .55 106.6 19.75 121.15 40.25 125.2 58.2 128.7 78.9 124.4 95.1 121 117.5 111.5 130.5 106.05 157 94 180.8 83.7 198.3 79.2Z" test="Symbol 38"/>
      </g>
      <animate attributeName="display" repeatCount="indefinite" dur="1.042s" keyTimes="0;.4;.44;1" values="none;inline;none;none"/>
    </g>
    <g display="none">
      <g id="Symbol-37" transform="translate(103.1 99.6)">
        <path fill="#000" stroke="none" d="M267.8 45.05Q259.35 40 250.45 35.9 235.6 29.2 218.85 24.95 210.8 22.95 202.05 21.45 186.4 18.95 167.3 18.15 160.8 17.85 153.95 17.85 142.35 17.3 120.6 18.75 114.45 19 107.6 19.4 89.2 20.45 76.55 20.7 70.2 20.85 65.3 20.8 43.85 20.5 29 16.35 11.95 11.35 .75 0 -.3 18.65 .15 57.7 .65 98.95 .55 102.8 20 115.35 40.5 118.85 58.6 121.85 79.05 118.2 87.95 116.65 98.45 113.6 107.4 111.05 117.65 107.45 125.15 105 136.6 100.75 145.5 97.45 157.1 93.25 165.2 90.3 172.7 88.1 186.8 83.75 198.2 81.4 203.45 80.35 208.6 79.6 226 76.95 242.1 77.8 244.8 77.9 247.5 78.15 294.9 82.45 342.5 119.1 310.85 70.45 267.8 45.05Z" test="Symbol 37"/>
      </g>
      <animate attributeName="display" repeatCount="indefinite" dur="1.042s" keyTimes="0;.36;.4;1" values="none;inline;none;none"/>
    </g>
    <g display="none">
      <g id="Symbol-36" transform="translate(103.2 99.45)">
        <path fill="#000" stroke="none" d="M264.9 47.25Q256.5 42.45 247.55 38.45 232.85 31.9 216.35 27.25 208.55 25.2 199.85 23.35 184.6 20.45 165.75 18.65 159.25 18.05 152.6 17.7 140.2 16.1 119.65 16.8 113.55 16.75 106.85 16.85 88.85 17.05 76.2 16.95 70 16.9 65.05 16.75 43.95 16.25 29 12.95 12.15 9 .65 0 -.3 19.15 .1 55.65 .55 94.6 .5 99.05 20.15 109.55 40.7 112.5 58.9 115 79.15 112 88.15 110.75 98.55 108.3 107.5 106.25 117.75 103.45 125.45 101.6 136.7 98.2 145.45 95.65 157.15 92.45 165.1 90.2 172.7 88.6 186.7 85.35 198.1 83.65 203.35 82.9 208.4 82.3 225.75 80.4 241.8 81.1 244.5 81.25 247.15 81.45 294.15 85 342.4 113.65 309.05 71.75 264.9 47.25Z" test="Symbol 36"/>
      </g>
      <animate attributeName="display" repeatCount="indefinite" dur="1.042s" keyTimes="0;.32;.36;1" values="none;inline;none;none"/>
    </g>
    <g display="none">
      <g id="Symbol-35" transform="translate(103.25 99.3)">
        <path fill="#000" stroke="none" d="M262.05 49.5Q253.65 44.95 244.75 41 230.2 34.55 213.85 29.6 206.3 27.4 197.65 25.3 182.85 21.9 164.2 19.2 157.8 18.2 151.3 17.6 138.1 14.9 118.8 14.9 112.7 14.45 106.15 14.25 88.5 13.6 75.9 13.15 69.8 13 64.85 12.75 44.15 11.95 29.05 9.6 12.35 6.6 .6 0 -.25 19.7 .1 53.65 .5 90.3 .45 95.25 20.4 103.75 40.95 106.15 59.3 108.2 79.3 105.85 88.4 104.9 98.7 103 107.7 101.45 117.9 99.4 125.75 98.15 136.85 95.7 145.5 93.8 157.3 91.7 165.05 90.05 172.7 89.1 186.65 86.9 198 85.85 203.25 85.4 208.3 85.05 225.5 83.85 241.6 84.45 244.25 84.55 246.9 84.7 293.45 87.5 342.35 108.15 307.25 73.1 262.05 49.5Z" test="Symbol 35"/>
      </g>
      <animate attributeName="display" repeatCount="indefinite" dur="1.042s" keyTimes="0;.28;.32;1" values="none;inline;none;none"/>
    </g>
    <g display="none">
      <g id="Symbol-34" transform="translate(103.3 99.15)">
        <path fill="#000" stroke="none" d="M241.9 43.55Q227.5 37.25 211.4 31.95 204.1 29.65 195.5 27.2 181.1 23.4 162.7 19.7 156.3 18.4 150 17.45 136 13.7 117.9 12.95 111.85 12.2 105.45 11.65 88.2 10.2 75.6 9.4 69.65 9.05 64.65 8.75 44.35 7.7 29.1 6.25 12.6 4.2 .55 0 -.2 20.2 .1 51.65 .45 85.95 .45 91.5 20.6 97.95 41.2 99.8 59.65 101.35 79.45 99.65 88.65 99 98.85 97.7 107.85 96.65 118.05 95.4 126.1 94.75 137 93.15 145.5 92 157.4 90.9 165 89.9 172.7 89.6 186.6 88.5 197.95 88.1 203.2 87.9 208.15 87.75 225.3 87.3 241.35 87.8 244 87.85 246.65 88 292.75 90.05 342.3 102.7 305.5 74.4 259.2 51.7 250.85 47.45 241.9 43.55Z" test="Symbol 34"/>
      </g>
      <animate attributeName="display" repeatCount="indefinite" dur="1.042s" keyTimes="0;.24;.28;1" values="none;inline;none;none"/>
    </g>
    <g display="none">
      <g id="Symbol-33" transform="translate(103.4 99)">
        <path fill="#000" stroke="none" d="M239.05 46.1Q224.8 39.95 208.85 34.3 201.85 31.9 193.3 29.1 179.3 24.9 161.1 20.25 154.8 18.6 148.65 17.3 133.9 12.5 117 11 111 9.9 104.7 9.1 87.8 6.8 75.25 5.6 69.4 5.1 64.45 4.75 44.5 3.4 29.1 2.9 12.75 1.85 .45 0 -.2 20.75 .05 49.65 .35 81.65 .4 87.7 20.8 92.2 41.4 93.45 60 94.5 79.6 93.45 88.9 93.1 98.95 92.4 107.95 91.9 118.15 91.35 126.35 91.3 137.15 90.65 145.5 90.2 157.45 90.15 164.95 89.8 172.7 90.1 186.55 90.1 197.85 90.3 203.1 90.45 208 90.5 225.05 90.75 241.05 91.15 243.7 91.2 246.35 91.25 292.05 92.55 342.2 97.2 303.7 75.75 256.3 53.95 247.95 49.95 239.05 46.1Z" test="Symbol 33"/>
      </g>
      <animate attributeName="display" repeatCount="indefinite" dur="1.042s" keyTimes="0;.2;.24;1" values="none;inline;none;none"/>
    </g>
    <g display="none">
      <g id="Symbol-32" transform="translate(103.45 98.25)">
        <path fill="#000" stroke="none" d="M236.25 49.2Q222.15 43.25 206.35 37.2 199.6 34.75 191.1 31.6 177.55 27 159.55 21.4 153.35 19.4 147.3 17.75 131.8 11.85 116.15 9.65 110.15 8.2 104 7.1 87.45 4 74.9 2.4 69.2 1.75 64.25 1.3 44.65 -.3 29.1 .1 12.95 .05 .4 .55 -.15 21.9 .05 48.2 .25 77.95 .4 84.5 21.05 87 41.6 87.7 60.4 88.25 79.75 87.85 89.15 87.8 99.1 87.65 108.1 87.7 118.25 87.9 126.65 88.45 137.3 88.75 145.55 89 157.55 90 164.9 90.25 172.7 91.15 186.5 92.3 197.75 93.1 203 93.55 207.9 93.8 224.8 94.75 240.8 95.05 243.45 95.1 246.05 95.1 291.35 95.65 342.15 92.3 301.95 77.7 253.4 56.75 245.1 53 236.25 49.2Z" test="Symbol 32"/>
      </g>
      <animate attributeName="display" repeatCount="indefinite" dur="1.042s" keyTimes="0;.16;.2;1" values="none;inline;none;none"/>
    </g>
    <g display="none">
      <g id="Symbol-31" transform="translate(103.5 94.3)">
        <path fill="#000" stroke="none" d="M233.4 55.55Q219.45 49.75 203.9 43.35 197.4 40.8 188.95 37.3 175.8 32.3 158.05 25.7 151.85 23.4 146 21.4 129.7 14.45 115.25 11.5 109.3 9.75 103.3 8.3 87.15 4.4 74.6 2.45 69.05 1.6 64.05 1.1 44.85 -.75 29.15 .55 13.2 1.45 .35 4.35 -.1 26.2 .05 50 .2 77.4 .4 84.55 21.25 85 41.85 85.15 60.75 85.2 79.9 85.45 89.4 85.7 99.25 86.15 108.25 86.7 118.4 87.7 127 88.85 137.45 90 145.55 91 157.65 93 164.85 93.9 172.7 95.45 186.45 97.7 197.7 99.15 202.95 99.85 207.75 100.3 224.6 102 240.55 102.2 243.2 102.2 245.8 102.2 290.65 102 342.1 90.65 300.2 82.8 250.55 62.75 242.3 59.3 233.4 55.55Z" test="Symbol 31"/>
      </g>
      <animate attributeName="display" repeatCount="indefinite" dur="1.042s" keyTimes="0;.12;.16;1" values="none;inline;none;none"/>
    </g>
    <g display="none">
      <g id="Symbol-30" transform="translate(103.6 90.2)">
        <path fill="#000" stroke="none" d="M230.55 62.05Q216.75 56.35 201.35 49.65 195.1 46.95 186.7 43.2 174 37.7 156.45 30.2 150.35 27.5 144.65 25.25 127.55 17.2 114.35 13.55 108.4 11.4 102.55 9.65 86.75 4.9 74.25 2.6 68.8 1.65 63.8 1.05 45 -1.1 29.15 1.15 13.35 3 .25 8.3 -.1 30.7 0 51.95 .1 77.05 .3 84.7 21.45 83.15 42.05 82.75 61.1 82.35 80 83.25 89.6 83.8 99.35 84.8 108.4 85.85 118.5 87.6 127.25 89.35 137.55 91.45 145.55 93.1 157.75 96.2 164.75 97.7 172.65 99.9 186.35 103.2 197.55 105.3 202.8 106.3 207.6 107 224.3 109.4 240.3 109.5 242.9 109.45 245.5 109.4 289.9 108.45 342 89.1 298.35 88.1 247.65 68.95 239.4 65.75 230.55 62.05Z" test="Symbol 30"/>
      </g>
      <animate attributeName="display" repeatCount="indefinite" dur="1.042s" keyTimes="0;.08;.12;1" values="none;inline;none;none"/>
    </g>
    <g display="none">
      <g id="Symbol-29" transform="translate(103.65 86.05)">
        <path fill="#000" stroke="none" d="M227.7 68.6Q214.05 63.05 198.9 55.95 192.9 53.2 184.55 49.1 172.25 43.2 154.95 34.7 148.85 31.7 143.35 29.1 125.45 20 113.45 15.6 107.55 13.15 101.85 11.1 86.45 5.5 73.95 2.85 68.65 1.7 63.6 1 45.15 -1.35 29.2 1.75 13.6 4.65 .2 12.3 -.05 35.2 0 53.9 .05 76.7 .3 84.95 21.65 81.35 42.3 80.4 61.45 79.5 80.15 81.05 89.85 81.9 99.5 83.5 108.55 85.05 118.65 87.6 127.6 89.95 137.7 92.9 145.55 95.3 157.85 99.4 164.7 101.6 172.7 104.4 186.3 108.8 197.5 111.55 202.75 112.85 207.45 113.7 224.1 116.85 240.05 116.8 242.65 116.8 245.2 116.7 289.2 115 341.95 87.65 296.6 93.4 244.8 75.15 236.6 72.2 227.7 68.6Z" test="Symbol 29"/>
      </g>
      <animate attributeName="display" repeatCount="indefinite" dur="1.042s" keyTimes="0;.04;.08;1" values="none;inline;none;none"/>
    </g>
    <g>
      <g id="Symbol-28" transform="translate(103.7 81.85)">
        <path fill="#000" stroke="none" d="M241.95 81.45Q221.25 74.7 196.4 62.35 182.5 55.4 153.4 39.3 126.45 24.35 112.6 17.7 90.7 7.25 73.65 3.1 32.05 -7.15 .15 16.35 -.2 69.5 .3 85.2 52.75 71.55 99.65 82.25 116.9 86.2 137.85 94.45 149.85 99.2 172.7 108.95 192.7 117.05 207.35 120.5 226.55 125 244.95 124 288.5 121.55 341.9 86.2 294.85 98.8 241.95 81.45Z" test="Symbol 28"/>
      </g>
      <animate attributeName="display" repeatCount="indefinite" dur="1.042s" keyTimes="0;.04;1" values="inline;none;none"/>
    </g>
  </g>
</svg>