<?xml version="1.0" encoding="utf-8"?><svg id="hand" image-rendering="auto" baseProfile="basic" version="1.1" x="0px" y="0px" width="500" height="500" xmlns="http://www.w3.org/2000/svg" xmlns:xlink="http://www.w3.org/1999/xlink"><g id="Scene-1-copy" overflow="visible"><g id="Symbol-1" transform="translate(39 22.6)"><path fill="#000" stroke="none" d="M356.25 76.15Q347.05 67.1 334.1 64.65 321.5 62.15 309.65 66.85 309.65 51.45 297.15 39 291.95 33.8 283.6 30.5 273.85 26.6 263 26.6 257.95 26.6 250.9 28.15 243.95 29.7 241.25 29.7 241.25 25.9 239.25 22.05 236.55 17.45 235 14.25 223.6 .6 203.3 0 183.55 -.55 170.25 11.3 165.6 15.45 162.85 21.95 160.35 27.75 160.35 32.85 157.3 32.85 151.05 31.35 144.95 29.7 141.75 29.7 130.95 29.7 122.35 33.9 115.4 37.45 107.5 45.2 97.85 55 94 71.25 92 79.35 92 85.45L92 203.2Q81.15 192.35 73.4 187.3 59.6 178.35 45.35 178.35 41 178.35 34.55 180.35 28.75 182.1 23.7 184.6 6.75 193.05 1.95 212.5 -3.85 231.65 7.7 261.7 13.6 276.75 20.55 289.95 22.2 291.45 44.3 337.15 69.95 386.8 88.9 407.65 114.45 438.15 144.15 450.95 180.05 466.4 241.25 466.4 308.8 466.4 340.35 428.15 371.8 390 371.8 308.55L371.8 138.1Q372.6 126.55 370.95 114.1 367.9 89.85 356.25 76.15M338.15 110.6Q340.1 118.35 340.1 126.1L340.1 308.9Q340.1 382.5 312.55 411.8 300.15 424.95 281.1 430.7 264.6 435.75 240.65 435.75 186.9 435.75 158.25 423.8 144.25 417.95 133.05 408.35 123 399.7 113.15 386.2 95.65 366.8 70.65 318.65 62.7 303.3 54.85 286.7 51.15 278.85 47.95 271.7 44.8 266.75 41.3 258.25 37.25 248.4 35.2 239.35 29.7 214.85 41.7 209.75 52 205.35 60.6 215.65 63.5 219.2 69.7 231.45L88.3 259.35Q90.95 263.15 96.45 264.65 101 265.9 106.9 265.45 115.6 264.75 119.35 261.25 122.45 258.35 122.45 253.1L122.45 92.05Q122.45 78.1 124.4 71.9 127.8 61.1 138 61.1 146.85 61.1 150.5 67.7 153.65 73.35 153.65 85.8L153.65 188Q153.65 195 157.9 199.25 162.15 203.55 169.2 203.55 176.2 203.55 180.45 199.25 184.75 195 184.75 188L184.75 64.15Q184.55 58.75 184.55 55.4 184.55 49.3 185.5 45.2 188.3 33.2 200.25 33.2 210.6 33.2 213.85 42.85 215.8 48.65 215.8 64.15L215.8 188Q215.8 195 220.05 199.25 224.3 203.55 231.35 203.55 238.35 203.55 242.6 199.25 246.9 195 246.9 188L246.9 70.4Q246.9 69.6 247.15 68.45 247.65 66.1 248.85 64.15 252.7 57.9 262.4 57.9 274.05 57.9 277.15 71.85 278.7 78.85 277.95 85.8L277.95 188Q277.95 195 282.25 199.25 286.55 203.55 293.5 203.55 300.5 203.55 304.75 199.25 309.05 195 309.05 188L309.05 113.7Q309.05 107.55 311 103.25 314.7 95.1 324.55 95.1 334.25 95.1 338.15 110.6Z" test="Symbol 1"/></g><g id="Tween-1" transform="translate(260.35 355.95)"><animateTransform attributeName="transform" additive="replace" type="translate" repeatCount="indefinite" dur="1.458s" keyTimes="0;.2;.343;.486;.972;1" values="260.35,355.95;260.437,356.037;260.35,355.95;260.437,356.037;260.35,355.95;260.35,355.95"/><animateTransform attributeName="transform" additive="sum" type="scale" repeatCount="indefinite" dur="1.458s" keyTimes="0;.2;.343;.486;.972;1" values="1,1;1.248,1.248;1,1;1.248,1.248;1,1;1,1"/><animateTransform attributeName="transform" additive="sum" type="translate" repeatCount="indefinite" dur="1.458s" keyTimes="0;.2;.343;.486;.972;1" values="0,0;-.15,-.15;0,0;-.15,-.15;0,0;0,0"/><path fill="#FFF" stroke="none" d="M38.25 -71.8Q12.1 -71.8 .1 -54.15 -5.9 -62.95 -15.55 -67.55 -24.5 -71.8 -35.3 -71.8 -55.35 -71.8 -68.85 -58.25 -82.4 -44.85 -82.4 -24.8 -82.4 4 -57.8 31.9 -34.25 58.5 .1 71.8 28.15 62.65 54.25 34.15 82.4 3.2 82.4 -24.8 82.4 -44.45 69.2 -58.25 56.25 -71.8 38.25 -71.8Z" test="Tween 1"/></g></g></svg>