<?xml version="1.0" encoding="utf-8"?>
<svg id="key1" image-rendering="auto" baseProfile="basic" version="1.1" x="0px" y="0px" width="500" height="500" xmlns="http://www.w3.org/2000/svg" xmlns:xlink="http://www.w3.org/1999/xlink">
  <g id="Scene-1" overflow="visible">
    <path fill="#000" stroke="none" d="M380.85 129.15L368.85 117.15 349.05 137 359 146.8Q363.05 150.9 363.05 156.75 363.05 162.45 359 166.55 354.9 170.6 349.15 170.6 343.35 170.6 339.2 166.55L329.35 156.65 229.65 256.2Q251.35 285.2 249.05 321.5 246.75 355.65 224 380.45 222.4 382.2 220.65 383.9 192.05 412.45 151.45 412.45 115.2 412.35 88.4 389.6 91.15 392.8 94.2 395.9 122.9 424.35 163.45 424.45 198.1 424.45 224 403.7 228.45 400.1 232.65 395.9 258.6 370.1 261.05 333.5 263.35 297.2 241.65 268.2L341.35 168.65 351.2 178.55Q355.35 182.6 361.15 182.6 366.9 182.6 371 178.55 375.05 174.45 375.05 168.75 375.05 162.9 371 158.8L361.05 149 380.85 129.15M151.45 244.85Q122.45 244.85 101.95 265.3 81.5 285.7 81.5 314.65 81.6 343.7 102.05 364.1 103.65 365.7 105.3 367.2L107.6 369.2Q108 369.5 108.4 369.85 93.6 351.35 93.5 326.65 93.5 297.7 113.95 277.3 134.45 256.85 163.45 256.85 188.1 256.85 206.5 271.55 203.9 268.35 200.9 265.3 180.5 244.85 151.45 244.85M414.65 89.75Q414.65 83.9 410.5 79.75 407.1 76.35 402.55 75.8 402.6 76.3 402.65 76.8L402.65 77.75Q402.65 83.45 398.5 87.6L388.65 97.4 418.3 127.15Q422.4 131.15 422.4 137 422.4 142.8 418.3 146.8 414.25 150.9 408.45 150.9 402.85 150.9 398.75 147.05L410.5 158.8Q414.65 162.9 420.45 162.9 426.25 162.9 430.3 158.8 434.4 154.8 434.4 149 434.4 143.15 430.3 139.15L400.65 109.4 410.5 99.6Q414.65 95.45 414.65 89.75Z" test="Scene 1 copy"/>
    <path fill="#FFCB05" stroke="none" d="M388.65 63.65Q382.85 63.65 378.75 67.75L209.85 236.4Q180.95 214.7 144.65 217.15 108 219.6 82.2 245.5 53.65 274.1 53.65 314.65 53.65 355.2 82.2 383.9 85.25 386.9 88.4 389.6 115.2 412.35 151.45 412.45 192.05 412.45 220.65 383.9 222.4 382.2 224 380.45 246.75 355.65 249.05 321.5 251.35 285.2 229.65 256.2L329.35 156.65 339.2 166.55Q343.35 170.6 349.15 170.6 354.9 170.6 359 166.55 363.05 162.45 363.05 156.75 363.05 150.9 359 146.8L349.05 137 368.85 117.15 380.85 129.15 398.75 147.05Q402.85 150.9 408.45 150.9 414.25 150.9 418.3 146.8 422.4 142.8 422.4 137 422.4 131.15 418.3 127.15L388.65 97.4 398.5 87.6Q402.65 83.45 402.65 77.75L402.65 76.8Q402.6 76.3 402.55 75.8 401.95 71.2 398.5 67.75 394.4 63.65 388.65 63.65M101.95 265.3Q122.45 244.85 151.45 244.85 180.5 244.85 200.9 265.3 203.9 268.35 206.5 271.55 221.3 290.05 221.3 314.65 221.3 343.7 200.9 364.1 180.5 384.65 151.45 384.65 126.85 384.65 108.4 369.85 108 369.5 107.6 369.2L105.3 367.2Q103.65 365.7 102.05 364.1 81.6 343.7 81.5 314.65 81.5 285.7 101.95 265.3Z" test="Scene 1 copy"/>
    <g>
      <g id="stard35" transform="translate(-150.7 445.65)">
        <g display="none" id="star_0.8">
          <path fill="#FFF" stroke="none" d="M268.35 -96.65Q268.25 -96.6 268.7 -46.3L219.6 -46.4 268.45 -45.35 268.95 16.5 269.75 -45.35Q322.2 -47.35 322.15 -47.55L269.6 -46.45Q268.5 -96.6 268.35 -96.65Z" test="star"/>
          <animate attributeName="display" repeatCount="indefinite" dur="1.458s" keyTimes="0;.229;.257;.914;.943;1" values="none;inline;none;inline;none;none"/>
        </g>
        <g display="none" id="star_0.7">
          <path fill="#FFF" stroke="none" d="M272.35 -49.7Q270.35 -88.4 269 -93.65 267.65 -87.95 266.75 -48.75L223.15 -46.85 266.8 -42.75 269.35 8.45 272.45 -44.05Q312.8 -46.45 318.2 -47.6L272.35 -49.7Z" test="star"/>
          <animate attributeName="display" repeatCount="indefinite" dur="1.458s" keyTimes="0;.2;.229;.886;.914;1" values="none;inline;none;inline;none;none"/>
        </g>
        <g display="none" id="star_0.6">
          <path fill="#FFF" stroke="none" d="M275.1 -52.95Q272.2 -80.2 269.6 -90.75 267.1 -79.35 264.75 -51.2L226.65 -47.3 265.2 -40.2 269.8 .35 275.15 -42.8Q303.45 -45.5 314.25 -47.65L275.1 -52.95Z" test="star"/>
          <animate attributeName="display" repeatCount="indefinite" dur="1.458s" keyTimes="0;.171;.2;.857;.886;1" values="none;inline;none;inline;none;none"/>
        </g>
        <g display="none" id="star_0.5">
          <path fill="#FFF" stroke="none" d="M270.2 -87.8L262.8 -53.65 230.15 -47.75 263.55 -37.6 270.2 -7.7 277.85 -41.5 310.25 -47.75 277.85 -56.2 270.2 -87.8Z" test="star"/>
          <animate attributeName="display" repeatCount="indefinite" dur="1.458s" keyTimes="0;.143;.171;.829;.857;1" values="none;inline;none;inline;none;none"/>
        </g>
        <g display="none" id="star_0.4">
          <path fill="#FFF" stroke="none" d="M277.4 -55.45L270.2 -79.75 263.4 -53.75 238.2 -47.75 263.95 -38.75 270.2 -15.75 277.35 -41.4 302.2 -47.75 277.4 -55.45Z" test="star"/>
          <animate attributeName="display" repeatCount="indefinite" dur="1.458s" keyTimes="0;.114;.143;.8;.829;1" values="none;inline;none;inline;none;none"/>
        </g>
        <g display="none" id="star_0.3">
          <path fill="#FFF" stroke="none" d="M276.9 -54.65L270.25 -71.7 264.05 -53.8 246.3 -47.75 264.4 -39.95 270.25 -23.8 276.8 -41.35 294.2 -47.75 276.9 -54.65Z" test="star"/>
          <animate attributeName="display" repeatCount="indefinite" dur="1.458s" keyTimes="0;.086;.114;.771;.8;1" values="none;inline;none;inline;none;none"/>
        </g>
        <g display="none" id="star_0.2">
          <path fill="#FFF" stroke="none" d="M270.25 -63.65L264.65 -53.9 254.35 -47.75 264.8 -41.1 270.25 -31.85 276.3 -41.25 286.15 -47.75 276.45 -53.9 270.25 -63.65Z" test="star"/>
          <animate attributeName="display" repeatCount="indefinite" dur="1.458s" keyTimes="0;.057;.086;.743;.771;1" values="none;inline;none;inline;none;none"/>
        </g>
        <g display="none" id="star_0.1">
          <path fill="#FFF" stroke="none" d="M274.95 -52.4L270.25 -58.9 265.85 -52.4 259.15 -47.75 266.05 -42.75 270.25 -36.65 274.9 -42.9 281.4 -47.75 274.95 -52.4Z" test="star"/>
          <animate attributeName="display" repeatCount="indefinite" dur="1.458s" keyTimes="0;.029;.057;.714;.743;1" values="none;inline;none;inline;none;none"/>
        </g>
        <g id="star_0.0">
          <path fill="#FFF" stroke="none" d="M270.25 -54.15L267.05 -50.95 263.9 -47.8 267.25 -44.45 270.25 -41.45 273.45 -44.6 276.6 -47.8 273.4 -50.95 270.25 -54.15Z" test="star"/>
          <animate attributeName="display" repeatCount="indefinite" dur="1.458s" keyTimes="0;.029;.686;.714;1" values="inline;none;inline;none;none"/>
        </g>
      </g>
      <animate attributeName="display" repeatCount="indefinite" dur="1.458s" keyTimes="0;.686;1" values="inline;none;none"/>
    </g>
    <g display="none">
      <g id="staro4d35" transform="translate(121.8 117.8)">
        <g display="none" id="star_0.8">
          <path fill="#FFF" stroke="none" d="M268.35 -96.65Q268.25 -96.6 268.7 -46.3L219.6 -46.4 268.45 -45.35 268.95 16.5 269.75 -45.35Q322.2 -47.35 322.15 -47.55L269.6 -46.45Q268.5 -96.6 268.35 -96.65Z" test="star"/>
          <animate attributeName="display" repeatCount="indefinite" dur="1.458s" keyTimes="0;.343;.371;.943;.971;1" values="none;inline;none;inline;none;none"/>
        </g>
        <g display="none" id="star_0.7">
          <path fill="#FFF" stroke="none" d="M272.35 -49.7Q270.35 -88.4 269 -93.65 267.65 -87.95 266.75 -48.75L223.15 -46.85 266.8 -42.75 269.35 8.45 272.45 -44.05Q312.8 -46.45 318.2 -47.6L272.35 -49.7Z" test="star"/>
          <animate attributeName="display" repeatCount="indefinite" dur="1.458s" keyTimes="0;.314;.343;.914;.943;1" values="none;inline;none;inline;none;none"/>
        </g>
        <g display="none" id="star_0.6">
          <path fill="#FFF" stroke="none" d="M275.1 -52.95Q272.2 -80.2 269.6 -90.75 267.1 -79.35 264.75 -51.2L226.65 -47.3 265.2 -40.2 269.8 .35 275.15 -42.8Q303.45 -45.5 314.25 -47.65L275.1 -52.95Z" test="star"/>
          <animate attributeName="display" repeatCount="indefinite" dur="1.458s" keyTimes="0;.286;.314;.886;.914;1" values="none;inline;none;inline;none;none"/>
        </g>
        <g display="none" id="star_0.5">
          <path fill="#FFF" stroke="none" d="M270.2 -87.8L262.8 -53.65 230.15 -47.75 263.55 -37.6 270.2 -7.7 277.85 -41.5 310.25 -47.75 277.85 -56.2 270.2 -87.8Z" test="star"/>
          <animate attributeName="display" repeatCount="indefinite" dur="1.458s" keyTimes="0;.257;.286;.857;.886;1" values="none;inline;none;inline;none;none"/>
        </g>
        <g display="none" id="star_0.4">
          <path fill="#FFF" stroke="none" d="M277.4 -55.45L270.2 -79.75 263.4 -53.75 238.2 -47.75 263.95 -38.75 270.2 -15.75 277.35 -41.4 302.2 -47.75 277.4 -55.45Z" test="star"/>
          <animate attributeName="display" repeatCount="indefinite" dur="1.458s" keyTimes="0;.229;.257;.829;.857;1" values="none;inline;none;inline;none;none"/>
        </g>
        <g display="none" id="star_0.3">
          <path fill="#FFF" stroke="none" d="M276.9 -54.65L270.25 -71.7 264.05 -53.8 246.3 -47.75 264.4 -39.95 270.25 -23.8 276.8 -41.35 294.2 -47.75 276.9 -54.65Z" test="star"/>
          <animate attributeName="display" repeatCount="indefinite" dur="1.458s" keyTimes="0;.2;.229;.8;.829;1" values="none;inline;none;inline;none;none"/>
        </g>
        <g display="none" id="star_0.2">
          <path fill="#FFF" stroke="none" d="M270.25 -63.65L264.65 -53.9 254.35 -47.75 264.8 -41.1 270.25 -31.85 276.3 -41.25 286.15 -47.75 276.45 -53.9 270.25 -63.65Z" test="star"/>
          <animate attributeName="display" repeatCount="indefinite" dur="1.458s" keyTimes="0;.171;.2;.771;.8;1" values="none;inline;none;inline;none;none"/>
        </g>
        <g display="none" id="star_0.1">
          <path fill="#FFF" stroke="none" d="M274.95 -52.4L270.25 -58.9 265.85 -52.4 259.15 -47.75 266.05 -42.75 270.25 -36.65 274.9 -42.9 281.4 -47.75 274.95 -52.4Z" test="star"/>
          <animate attributeName="display" repeatCount="indefinite" dur="1.458s" keyTimes="0;.143;.171;.743;.771;1" values="none;inline;none;inline;none;none"/>
        </g>
        <g display="none" id="star_0.0">
          <path fill="#FFF" stroke="none" d="M270.25 -54.15L267.05 -50.95 263.9 -47.8 267.25 -44.45 270.25 -41.45 273.45 -44.6 276.6 -47.8 273.4 -50.95 270.25 -54.15Z" test="star"/>
          <animate attributeName="display" repeatCount="indefinite" dur="1.458s" keyTimes="0;.114;.143;.714;.743;1" values="none;inline;none;inline;none;none"/>
        </g>
      </g>
      <animate attributeName="display" repeatCount="indefinite" dur="1.458s" keyTimes="0;.114;.714;1" values="none;inline;none;none"/>
    </g>
    <g display="none">
      <g id="staro21d35" transform="translate(-179.8 299)">
        <g display="none" id="star_0.8">
          <path fill="#FFF" stroke="none" d="M268.35 -96.65Q268.25 -96.6 268.7 -46.3L219.6 -46.4 268.45 -45.35 268.95 16.5 269.75 -45.35Q322.2 -47.35 322.15 -47.55L269.6 -46.45Q268.5 -96.6 268.35 -96.65Z" test="star"/>
          <animate attributeName="display" repeatCount="indefinite" dur="1.458s" keyTimes="0;.829;.857;1" values="none;inline;none;none"/>
        </g>
        <g display="none" id="star_0.7">
          <path fill="#FFF" stroke="none" d="M272.35 -49.7Q270.35 -88.4 269 -93.65 267.65 -87.95 266.75 -48.75L223.15 -46.85 266.8 -42.75 269.35 8.45 272.45 -44.05Q312.8 -46.45 318.2 -47.6L272.35 -49.7Z" test="star"/>
          <animate attributeName="display" repeatCount="indefinite" dur="1.458s" keyTimes="0;.8;.829;1" values="none;inline;none;none"/>
        </g>
        <g display="none" id="star_0.6">
          <path fill="#FFF" stroke="none" d="M275.1 -52.95Q272.2 -80.2 269.6 -90.75 267.1 -79.35 264.75 -51.2L226.65 -47.3 265.2 -40.2 269.8 .35 275.15 -42.8Q303.45 -45.5 314.25 -47.65L275.1 -52.95Z" test="star"/>
          <animate attributeName="display" repeatCount="indefinite" dur="1.458s" keyTimes="0;.771;.8;1" values="none;inline;none;none"/>
        </g>
        <g display="none" id="star_0.5">
          <path fill="#FFF" stroke="none" d="M270.2 -87.8L262.8 -53.65 230.15 -47.75 263.55 -37.6 270.2 -7.7 277.85 -41.5 310.25 -47.75 277.85 -56.2 270.2 -87.8Z" test="star"/>
          <animate attributeName="display" repeatCount="indefinite" dur="1.458s" keyTimes="0;.743;.771;1" values="none;inline;none;none"/>
        </g>
        <g display="none" id="star_0.4">
          <path fill="#FFF" stroke="none" d="M277.4 -55.45L270.2 -79.75 263.4 -53.75 238.2 -47.75 263.95 -38.75 270.2 -15.75 277.35 -41.4 302.2 -47.75 277.4 -55.45Z" test="star"/>
          <animate attributeName="display" repeatCount="indefinite" dur="1.458s" keyTimes="0;.714;.743;1" values="none;inline;none;none"/>
        </g>
        <g display="none" id="star_0.3">
          <path fill="#FFF" stroke="none" d="M276.9 -54.65L270.25 -71.7 264.05 -53.8 246.3 -47.75 264.4 -39.95 270.25 -23.8 276.8 -41.35 294.2 -47.75 276.9 -54.65Z" test="star"/>
          <animate attributeName="display" repeatCount="indefinite" dur="1.458s" keyTimes="0;.686;.714;1" values="none;inline;none;none"/>
        </g>
        <g display="none" id="star_0.2">
          <path fill="#FFF" stroke="none" d="M270.25 -63.65L264.65 -53.9 254.35 -47.75 264.8 -41.1 270.25 -31.85 276.3 -41.25 286.15 -47.75 276.45 -53.9 270.25 -63.65Z" test="star"/>
          <animate attributeName="display" repeatCount="indefinite" dur="1.458s" keyTimes="0;.657;.686;1" values="none;inline;none;none"/>
        </g>
        <g display="none" id="star_0.1">
          <path fill="#FFF" stroke="none" d="M274.95 -52.4L270.25 -58.9 265.85 -52.4 259.15 -47.75 266.05 -42.75 270.25 -36.65 274.9 -42.9 281.4 -47.75 274.95 -52.4Z" test="star"/>
          <animate attributeName="display" repeatCount="indefinite" dur="1.458s" keyTimes="0;.629;.657;1" values="none;inline;none;none"/>
        </g>
        <g display="none" id="star_0.0">
          <path fill="#FFF" stroke="none" d="M270.25 -54.15L267.05 -50.95 263.9 -47.8 267.25 -44.45 270.25 -41.45 273.45 -44.6 276.6 -47.8 273.4 -50.95 270.25 -54.15Z" test="star"/>
          <animate attributeName="display" repeatCount="indefinite" dur="1.458s" keyTimes="0;.6;.629;1" values="none;inline;none;none"/>
        </g>
      </g>
      <animate attributeName="display" repeatCount="indefinite" dur="1.458s" keyTimes="0;.6;1" values="none;inline;inline"/>
    </g>
    <g display="none">
      <g id="staro13d35" transform="translate(75.8 201.7)">
        <g display="none" id="star_0.8">
          <path fill="#FFF" stroke="none" d="M268.35 -96.65Q268.25 -96.6 268.7 -46.3L219.6 -46.4 268.45 -45.35 268.95 16.5 269.75 -45.35Q322.2 -47.35 322.15 -47.55L269.6 -46.45Q268.5 -96.6 268.35 -96.65Z" test="star"/>
          <animate attributeName="display" repeatCount="indefinite" dur="1.458s" keyTimes="0;.6;.629;1" values="none;inline;none;none"/>
        </g>
        <g display="none" id="star_0.7">
          <path fill="#FFF" stroke="none" d="M272.35 -49.7Q270.35 -88.4 269 -93.65 267.65 -87.95 266.75 -48.75L223.15 -46.85 266.8 -42.75 269.35 8.45 272.45 -44.05Q312.8 -46.45 318.2 -47.6L272.35 -49.7Z" test="star"/>
          <animate attributeName="display" repeatCount="indefinite" dur="1.458s" keyTimes="0;.571;.6;1" values="none;inline;none;none"/>
        </g>
        <g display="none" id="star_0.6">
          <path fill="#FFF" stroke="none" d="M275.1 -52.95Q272.2 -80.2 269.6 -90.75 267.1 -79.35 264.75 -51.2L226.65 -47.3 265.2 -40.2 269.8 .35 275.15 -42.8Q303.45 -45.5 314.25 -47.65L275.1 -52.95Z" test="star"/>
          <animate attributeName="display" repeatCount="indefinite" dur="1.458s" keyTimes="0;.543;.571;1" values="none;inline;none;none"/>
        </g>
        <g display="none" id="star_0.5">
          <path fill="#FFF" stroke="none" d="M270.2 -87.8L262.8 -53.65 230.15 -47.75 263.55 -37.6 270.2 -7.7 277.85 -41.5 310.25 -47.75 277.85 -56.2 270.2 -87.8Z" test="star"/>
          <animate attributeName="display" repeatCount="indefinite" dur="1.458s" keyTimes="0;.514;.543;1" values="none;inline;none;none"/>
        </g>
        <g display="none" id="star_0.4">
          <path fill="#FFF" stroke="none" d="M277.4 -55.45L270.2 -79.75 263.4 -53.75 238.2 -47.75 263.95 -38.75 270.2 -15.75 277.35 -41.4 302.2 -47.75 277.4 -55.45Z" test="star"/>
          <animate attributeName="display" repeatCount="indefinite" dur="1.458s" keyTimes="0;.486;.514;1" values="none;inline;none;none"/>
        </g>
        <g display="none" id="star_0.3">
          <path fill="#FFF" stroke="none" d="M276.9 -54.65L270.25 -71.7 264.05 -53.8 246.3 -47.75 264.4 -39.95 270.25 -23.8 276.8 -41.35 294.2 -47.75 276.9 -54.65Z" test="star"/>
          <animate attributeName="display" repeatCount="indefinite" dur="1.458s" keyTimes="0;.457;.486;1" values="none;inline;none;none"/>
        </g>
        <g display="none" id="star_0.2">
          <path fill="#FFF" stroke="none" d="M270.25 -63.65L264.65 -53.9 254.35 -47.75 264.8 -41.1 270.25 -31.85 276.3 -41.25 286.15 -47.75 276.45 -53.9 270.25 -63.65Z" test="star"/>
          <animate attributeName="display" repeatCount="indefinite" dur="1.458s" keyTimes="0;.429;.457;1" values="none;inline;none;none"/>
        </g>
        <g display="none" id="star_0.1">
          <path fill="#FFF" stroke="none" d="M274.95 -52.4L270.25 -58.9 265.85 -52.4 259.15 -47.75 266.05 -42.75 270.25 -36.65 274.9 -42.9 281.4 -47.75 274.95 -52.4Z" test="star"/>
          <animate attributeName="display" repeatCount="indefinite" dur="1.458s" keyTimes="0;.4;.429;1" values="none;inline;none;none"/>
        </g>
        <g display="none" id="star_0.0">
          <path fill="#FFF" stroke="none" d="M270.25 -54.15L267.05 -50.95 263.9 -47.8 267.25 -44.45 270.25 -41.45 273.45 -44.6 276.6 -47.8 273.4 -50.95 270.25 -54.15Z" test="star"/>
          <animate attributeName="display" repeatCount="indefinite" dur="1.458s" keyTimes="0;.371;.4;1" values="none;inline;none;none"/>
        </g>
      </g>
      <animate attributeName="display" repeatCount="indefinite" dur="1.458s" keyTimes="0;.371;1" values="none;inline;inline"/>
    </g>
    <g display="none">
      <g id="staro10d35" transform="translate(-48.8 298.3)">
        <g display="none" id="star_0.8">
          <path fill="#FFF" stroke="none" d="M268.35 -96.65Q268.25 -96.6 268.7 -46.3L219.6 -46.4 268.45 -45.35 268.95 16.5 269.75 -45.35Q322.2 -47.35 322.15 -47.55L269.6 -46.45Q268.5 -96.6 268.35 -96.65Z" test="star"/>
          <animate attributeName="display" repeatCount="indefinite" dur="1.458s" keyTimes="0;.514;.543;1" values="none;inline;none;none"/>
        </g>
        <g display="none" id="star_0.7">
          <path fill="#FFF" stroke="none" d="M272.35 -49.7Q270.35 -88.4 269 -93.65 267.65 -87.95 266.75 -48.75L223.15 -46.85 266.8 -42.75 269.35 8.45 272.45 -44.05Q312.8 -46.45 318.2 -47.6L272.35 -49.7Z" test="star"/>
          <animate attributeName="display" repeatCount="indefinite" dur="1.458s" keyTimes="0;.486;.514;1" values="none;inline;none;none"/>
        </g>
        <g display="none" id="star_0.6">
          <path fill="#FFF" stroke="none" d="M275.1 -52.95Q272.2 -80.2 269.6 -90.75 267.1 -79.35 264.75 -51.2L226.65 -47.3 265.2 -40.2 269.8 .35 275.15 -42.8Q303.45 -45.5 314.25 -47.65L275.1 -52.95Z" test="star"/>
          <animate attributeName="display" repeatCount="indefinite" dur="1.458s" keyTimes="0;.457;.486;.971;1" values="none;inline;none;inline;inline"/>
        </g>
        <g display="none" id="star_0.5">
          <path fill="#FFF" stroke="none" d="M270.2 -87.8L262.8 -53.65 230.15 -47.75 263.55 -37.6 270.2 -7.7 277.85 -41.5 310.25 -47.75 277.85 -56.2 270.2 -87.8Z" test="star"/>
          <animate attributeName="display" repeatCount="indefinite" dur="1.458s" keyTimes="0;.429;.457;.943;.971;1" values="none;inline;none;inline;none;none"/>
        </g>
        <g display="none" id="star_0.4">
          <path fill="#FFF" stroke="none" d="M277.4 -55.45L270.2 -79.75 263.4 -53.75 238.2 -47.75 263.95 -38.75 270.2 -15.75 277.35 -41.4 302.2 -47.75 277.4 -55.45Z" test="star"/>
          <animate attributeName="display" repeatCount="indefinite" dur="1.458s" keyTimes="0;.4;.429;.914;.943;1" values="none;inline;none;inline;none;none"/>
        </g>
        <g display="none" id="star_0.3">
          <path fill="#FFF" stroke="none" d="M276.9 -54.65L270.25 -71.7 264.05 -53.8 246.3 -47.75 264.4 -39.95 270.25 -23.8 276.8 -41.35 294.2 -47.75 276.9 -54.65Z" test="star"/>
          <animate attributeName="display" repeatCount="indefinite" dur="1.458s" keyTimes="0;.371;.4;.886;.914;1" values="none;inline;none;inline;none;none"/>
        </g>
        <g display="none" id="star_0.2">
          <path fill="#FFF" stroke="none" d="M270.25 -63.65L264.65 -53.9 254.35 -47.75 264.8 -41.1 270.25 -31.85 276.3 -41.25 286.15 -47.75 276.45 -53.9 270.25 -63.65Z" test="star"/>
          <animate attributeName="display" repeatCount="indefinite" dur="1.458s" keyTimes="0;.343;.371;.857;.886;1" values="none;inline;none;inline;none;none"/>
        </g>
        <g display="none" id="star_0.1">
          <path fill="#FFF" stroke="none" d="M274.95 -52.4L270.25 -58.9 265.85 -52.4 259.15 -47.75 266.05 -42.75 270.25 -36.65 274.9 -42.9 281.4 -47.75 274.95 -52.4Z" test="star"/>
          <animate attributeName="display" repeatCount="indefinite" dur="1.458s" keyTimes="0;.314;.343;.829;.857;1" values="none;inline;none;inline;none;none"/>
        </g>
        <g display="none" id="star_0.0">
          <path fill="#FFF" stroke="none" d="M270.25 -54.15L267.05 -50.95 263.9 -47.8 267.25 -44.45 270.25 -41.45 273.45 -44.6 276.6 -47.8 273.4 -50.95 270.25 -54.15Z" test="star"/>
          <animate attributeName="display" repeatCount="indefinite" dur="1.458s" keyTimes="0;.286;.314;.8;.829;1" values="none;inline;none;inline;none;none"/>
        </g>
      </g>
      <animate attributeName="display" repeatCount="indefinite" dur="1.458s" keyTimes="0;.286;.8;1" values="none;inline;none;none"/>
    </g>
  </g>
</svg>