<?xml version="1.0" encoding="UTF-8"?>
<svg width="600px" height="600px" viewBox="0 0 600 600" version="1.1" xmlns="http://www.w3.org/2000/svg" xmlns:xlink="http://www.w3.org/1999/xlink">
    <!-- Generator: Sketch 50.2 (55047) - http://www.bohemiancoding.com/sketch -->
    <title>media</title>
    <desc>Created with Sketch.</desc>
    <defs></defs>
    <g id="media" stroke="none" stroke-width="1" fill="none" fill-rule="evenodd">
        <path d="M124.113559,194 L127.555153,194 C161.707167,105.651889 218.038498,61 296,61 C373.94019,61 433.169281,105.615925 473.237442,193.999956 L475.886441,194 C483.029487,189.458013 491.33677,187 500,187 C505.693173,187 511.232624,188.061532 516.388956,190.078442 C497.473538,86.7400761 406.929634,10 300,10 C193.070367,10 102.52646,86.7400762 83.6110363,190.078445 C88.7673698,188.061533 94.306824,187 100,187 C108.66323,187 116.970513,189.458013 124.113559,194 Z M522.88191,198.606822 L522.611983,199 L522.611983,194 L522.88191,194 L522.88191,198.606822 Z M77.1180765,198.606791 L77.1180138,194 L77.387954,193.999996 L77.3880221,198.999996 L77.1180765,198.606791 Z" id="Oval-2" stroke="#000000" stroke-width="10"></path>
        <circle id="Oval-3" stroke="#000000" stroke-width="10" cx="100" cy="232" r="45"></circle>
        <circle id="Oval-3-Copy" stroke="#000000" stroke-width="10" cx="500" cy="232" r="45"></circle>
        <circle id="Oval" stroke="#FFFFFF" stroke-width="50" cx="300" cy="230" r="175"></circle>
        <path d="M252,160.742083 L252,303.257917 L373.138459,232 L252,160.742083 Z" id="Rectangle-2" stroke="#000000" stroke-width="10"></path>
    </g>
</svg>