<?xml version="1.0" encoding="UTF-8"?>
<svg width="600px" height="600px" viewBox="0 0 600 600" version="1.1" xmlns="http://www.w3.org/2000/svg" xmlns:xlink="http://www.w3.org/1999/xlink">
    <!-- Generator: Sketch 50.2 (55047) - http://www.bohemiancoding.com/sketch -->
    <title>partnership</title>
    <desc>Created with Sketch.</desc>
    <defs></defs>
    <g id="partnership" stroke="none" stroke-width="1" fill="none" fill-rule="evenodd">
        <path d="M454.104492,177.828168 C431.879971,177.828168 403.482522,178.689732 401.798342,177.828168 C372.873698,163.031405 340.561423,134.106762 316.181397,134.106762 C300.302219,134.106762 295.355653,139.89169 249.076223,183.857149 C242.293716,190.300531 221.976603,206.277971 238.663352,222.037678 C259.489095,241.706436 300.104492,191.956049 314.111477,191.956049 C334.693169,191.956049 349.733983,212.781792 411.054228,257.904236 C414.478005,260.423619 426.095042,274.102037 414.525185,284.320571 C402.955327,294.539105 387.963714,284.130104 379.815613,284.320571 C376.324415,284.40218 381.701236,298.29184 372.873698,305.340652 C358.989869,316.426925 340.336936,300.082298 338.164126,301.869695 C339.706773,311.125581 337.00714,318.838819 330.065226,325.009409 C319.652354,334.265295 296.670337,315.425635 295.355653,319.224481 C293.110116,325.713072 289.570725,338.893238 279.157853,338.893238 C254.861152,338.893238 223.622537,294.731183 212.05268,287.832203 C200.482822,280.933224 164.616264,284.320571 146.104492,284.320571" id="Path-2" stroke="#000000" stroke-width="10"></path>
        <circle id="Oval" stroke="#FFFFFF" stroke-width="50" cx="300" cy="230" r="175"></circle>
    </g>
</svg>