<?xml version="1.0" encoding="UTF-8"?>
<svg width="600px" height="600px" viewBox="0 0 600 600" version="1.1" xmlns="http://www.w3.org/2000/svg" xmlns:xlink="http://www.w3.org/1999/xlink">
    <!-- Generator: Sketch 50.2 (55047) - http://www.bohemiancoding.com/sketch -->
    <title>size</title>
    <desc>Created with Sketch.</desc>
    <defs></defs>
    <g id="size" stroke="none" stroke-width="1" fill="none" fill-rule="evenodd">
        <path d="M429,481 L569,481 C580.045695,481 589,489.954305 589,501 L589,551 C589,556.522847 584.522847,561 579,561 L569,561 C563.477153,561 559,556.522847 559,551 L559,511 L429,511 L429,481 Z" id="Rectangle" fill="#000000"></path>
        <path d="M90.0158508,302.607067 C90.0052938,301.739301 90,300.870269 90,300 C90,184.020203 184.020203,90 300,90 C415.979797,90 510,184.020203 510,300 C510,371.798666 473.967928,435.18159 419,473.052557 L419,532 C419,548.568542 405.568542,562 389,562 L150,562 C116.862915,562 90,535.137085 90,502 L90,304 C90,303.534431 90.0053026,303.070101 90.0158508,302.607067 Z" id="Oval-4" fill="#FFCB05"></path>
        <path d="M514.293314,250 L535,250 C540.522847,250 545,254.477153 545,260 L545,340 C545,345.522847 540.522847,350 535,350 L514.293314,350 C518.026399,333.937038 520,317.198999 520,300 C520,282.801001 518.026399,266.062962 514.293314,250 Z" id="Rectangle-2" fill="#000000"></path>
        <circle id="Oval" stroke="#000000" stroke-width="30" cx="300" cy="300" r="120"></circle>
    </g>
</svg>