<?xml version="1.0" encoding="UTF-8"?>
<svg width="600px" height="600px" viewBox="0 0 600 600" version="1.1" xmlns="http://www.w3.org/2000/svg" xmlns:xlink="http://www.w3.org/1999/xlink">
    <!-- Generator: Sketch 50.2 (55047) - http://www.bohemiancoding.com/sketch -->
    <title>size</title>
    <desc>Created with Sketch.</desc>
    <defs></defs>
    <g id="size" stroke="none" stroke-width="1" fill="none" fill-rule="evenodd">
        <path d="M429,481 L569,481 C580.045695,481 589,489.954305 589,501 L589,551 C589,556.522847 584.522847,561 579,561 L559,561 C553.477153,561 549,556.522847 549,551 L549,521 L429,521 L429,481 Z" id="Rectangle" fill="#35383A"></path>
        <path d="M95.0154808,302.546243 L95.0145539,302.72094 C95.0048562,303.146644 95,303.573014 95,304 L95,502 C95,532.375661 119.624339,557 150,557 L389,557 C402.807119,557 414,545.807119 414,532 L414,470.425576 L416.163262,468.935165 C471.360813,430.905996 505,368.295844 505,300 C505,186.781626 413.218374,95 300,95 C186.781626,95 95,186.781626 95,300 C95,300.849371 95.0051629,301.698129 95.0154808,302.546243 Z" id="Oval-4" stroke="#35383A" stroke-width="10" fill="#FFCB05"></path>
        <path d="M514.293314,250 L535,250 C540.522847,250 545,254.477153 545,260 L545,340 C545,345.522847 540.522847,350 535,350 L514.293314,350 C518.026399,333.937038 520,317.198999 520,300 C520,282.801001 518.026399,266.062962 514.293314,250 Z" id="Rectangle-2" fill="#35383A"></path>
        <path d="M300,435 C225.441559,435 165,374.558441 165,300 C165,225.441559 225.441559,165 300,165 C374.558441,165 435,225.441559 435,300 C435,374.558441 374.558441,435 300,435 Z M300,350 C327.614237,350 350,327.614237 350,300 C350,272.385763 327.614237,250 300,250 C272.385763,250 250,272.385763 250,300 C250,327.614237 272.385763,350 300,350 Z" id="Oval" fill="#35383A"></path>
    </g>
</svg>