<?xml version="1.0" encoding="utf-8"?>
<!-- Generator: Adobe Illustrator 16.0.0, SVG Export Plug-In . SVG Version: 6.00 Build 0)  -->
<!DOCTYPE svg PUBLIC "-//W3C//DTD SVG 1.1//EN" "http://www.w3.org/Graphics/SVG/1.1/DTD/svg11.dtd">
<svg version="1.1" id="Layer_1" xmlns="http://www.w3.org/2000/svg" xmlns:xlink="http://www.w3.org/1999/xlink" x="0px" y="0px"
	 width="820px" height="400px" viewBox="-0.25 -1.75 820 400" enable-background="new -0.25 -1.75 820 400" xml:space="preserve">
<g>
	<g>
		<g>
			<path d="M64.208,60.431h144.957v59.434h-21.743v163.076h21.743v59.433H64.208v-59.433h21.745V119.864H64.208V60.431z"/>
			<path d="M380.213,226.77h86.975v93.86c-4.836,2.898-10.69,5.979-17.576,9.24c-6.885,3.26-14.857,6.16-23.917,8.697
				c-9.061,2.536-19.331,4.647-30.804,6.342c-11.477,1.688-24.342,2.537-38.595,2.537c-21.262,0-40.469-2.662-57.621-7.975
				c-17.155-5.312-31.771-13.771-43.85-25.366c-12.083-11.596-21.38-26.637-27.904-45.117c-6.522-18.483-9.785-41.008-9.785-67.587
				c0-26.33,3.263-48.799,9.785-67.405c6.524-18.6,15.765-33.702,27.724-45.3c11.959-11.596,26.511-20.049,43.669-25.366
				c17.151-5.312,36.238-7.974,57.258-7.974c14.496,0,27.418,0.85,38.776,2.538c11.353,1.692,21.562,3.805,30.622,6.342
				s17.033,5.437,23.917,8.697c6.887,3.261,12.985,6.342,18.303,9.24v90.599h-86.976V146.68c0-9.423-2.055-16.245-6.159-20.475
				c-4.111-4.225-10.272-6.343-18.483-6.343c-8.216,0-14.377,2.118-18.482,6.343c-4.109,4.229-6.159,11.052-6.159,20.475v109.441
				c0,9.423,2.05,16.252,6.159,20.477c4.105,4.229,10.267,6.342,18.482,6.342c8.211,0,14.372-2.112,18.483-6.342
				c4.104-4.225,6.159-11.054,6.159-20.477L380.213,226.77L380.213,226.77z"/>
		</g>
		<g>
			<circle cx="624.602" cy="201.302" r="144.992"/>
			<g>
				<circle cx="626.067" cy="202.769" r="128.147"/>
				<path d="M751.283,199.835c0,70.771-57.375,128.148-128.148,128.148c-70.772,0-128.146-57.377-128.146-128.148
					c0-70.772,57.373-128.146,128.146-128.146C693.908,71.69,751.283,129.063,751.283,199.835z"/>
				<path d="M752.748,201.302c0,70.771-57.375,128.146-128.146,128.146c-70.772,0-128.146-57.373-128.146-128.146
					c0-70.771,57.374-128.147,128.146-128.147C695.373,73.154,752.748,130.53,752.748,201.302z"/>
			</g>
			<g>
				<polygon points="712.944,244.277 692.287,156.264 701.75,154.501 701.75,143.25 668.896,143.25 659.467,178.25 659.114,178.25 
					649.862,143.25 619.75,143.25 619.75,154.468 627.043,155.688 613.407,214.25 607.75,214.25 607.75,156.264 615.75,154.501 
					615.75,143.25 582.75,143.25 582.75,154.501 591.75,156.264 591.75,216.519 582.75,218.285 582.75,228.25 610.259,228.25 
					606.771,244.25 569.75,244.25 569.75,156.264 578.75,154.501 578.75,143.25 544.75,143.25 544.75,154.501 555.75,156.264 
					555.75,244.277 544.75,246.042 544.75,255.25 620.811,255.25 627.604,228.25 659.104,228.25 664.34,205.25 652.795,205.25 
					648.305,214.25 630.896,214.25 642.98,166.469 643.335,166.671 653.586,200.25 665.11,200.25 675.48,166.725 675.834,166.792 
					695.501,244.272 686.75,246.042 686.75,255.25 722.75,255.25 722.75,246.042 				"/>
				<polygon points="710.582,240.199 690.605,152.185 700.75,150.42 700.75,140.25 666.174,140.25 656.746,173.25 656.395,173.25 
					647.145,140.25 616.75,140.25 616.75,150.39 624.183,152.149 610.688,211.25 605.75,211.25 605.75,152.185 613.75,150.42 
					613.75,140.25 578.75,140.25 578.75,150.42 588.75,152.185 588.75,212.443 578.75,214.207 578.75,223.25 607.539,223.25 
					604.054,239.25 567.75,239.25 567.75,152.185 575.75,150.42 575.75,140.25 542.75,140.25 542.75,150.42 552.75,152.185 
					552.75,240.199 542.75,241.963 542.75,252.25 618.09,252.25 624.885,223.25 656.383,223.25 661.621,201.25 650.077,201.25 
					645.586,211.25 628.176,211.25 640.261,162.926 640.614,162.4 650.865,195.25 662.392,195.25 672.763,162.184 673.115,162.485 
					692.141,240.079 682.75,241.963 682.75,252.25 720.75,252.25 720.75,241.963 				"/>
				<polygon points="711.264,241.557 690.947,153.544 700.75,151.781 700.75,141.25 667.535,141.25 658.105,175.25 657.756,175.25 
					648.504,141.25 618.75,141.25 618.75,151.75 625.862,153.329 612.046,212.25 605.75,212.25 605.75,153.544 615.75,151.781 
					615.75,141.25 580.75,141.25 580.75,151.781 589.75,153.544 589.75,213.802 580.75,215.567 580.75,225.25 608.896,225.25 
					605.412,241.25 569.75,241.25 569.75,153.544 577.75,151.781 577.75,141.25 544.75,141.25 544.75,151.781 553.75,153.544 
					553.75,241.557 544.75,243.324 544.75,253.25 619.448,253.25 626.243,225.25 657.743,225.25 662.98,203.25 651.438,203.25 
					646.944,212.25 629.534,212.25 641.622,164.104 641.975,163.99 652.224,197.25 663.752,197.25 674.123,163.866 674.474,164.005 
					693.819,241.516 684.75,243.324 684.75,253.25 720.75,253.25 720.75,243.324 				"/>
			</g>
		</g>
	</g>
	<g>
		<g>
			<path fill="#FFFFFF" d="M57.906,54.129h144.957v59.432H181.12v163.077h21.743v59.433H57.906v-59.433h21.745V113.561H57.906
				V54.129z"/>
			<path fill="#FFFFFF" d="M373.91,220.468h86.975v93.859c-4.836,2.898-10.69,5.979-17.576,9.24
				c-6.885,3.26-14.857,6.159-23.918,8.697c-9.06,2.536-19.33,4.648-30.803,6.342c-11.478,1.688-24.342,2.536-38.595,2.536
				c-21.263,0-40.469-2.661-57.621-7.973c-17.157-5.312-31.771-13.771-43.85-25.367c-12.083-11.596-21.38-26.637-27.904-45.117
				c-6.522-18.482-9.785-41.008-9.785-67.588c0-26.33,3.263-48.798,9.785-67.404c6.524-18.601,15.766-33.702,27.724-45.3
				c11.958-11.596,26.51-20.05,43.668-25.366c17.152-5.312,36.239-7.975,57.258-7.975c14.496,0,27.419,0.851,38.776,2.539
				c11.354,1.693,21.562,3.804,30.622,6.342c9.061,2.537,17.033,5.437,23.918,8.697s12.984,6.342,18.301,9.24v90.598H373.91v-26.092
				c0-9.422-2.055-16.245-6.159-20.475c-4.111-4.226-10.272-6.344-18.483-6.344c-8.217,0-14.377,2.118-18.482,6.344
				c-4.11,4.229-6.159,11.053-6.159,20.475v109.441c0,9.423,2.049,16.252,6.159,20.477c4.104,4.229,10.266,6.342,18.482,6.342
				c8.211,0,14.372-2.113,18.483-6.342c4.104-4.225,6.159-11.054,6.159-20.477V220.468z"/>
		</g>
		<g>
			<circle fill="#FFFFFF" cx="618.299" cy="195" r="144.992"/>
			<g>
				<circle fill="#FFFFFF" cx="619.765" cy="196.467" r="128.147"/>
				<circle fill="#FFFFFF" cx="616.833" cy="193.532" r="128.147"/>
				<path fill="#FFFFFF" d="M746.445,195c0,70.771-57.374,128.146-128.146,128.146c-70.774,0-128.147-57.373-128.147-128.146
					S547.526,66.851,618.3,66.851C689.071,66.851,746.445,124.228,746.445,195z"/>
			</g>
			<g>
				<polygon fill="#FFFFFF" points="706.292,237.975 685.961,149.962 695.75,148.199 695.75,137.25 662.593,137.25 653.164,171.25 
					652.812,171.25 643.561,137.25 613.75,137.25 613.75,148.166 620.893,149.538 607.104,208.25 600.75,208.25 600.75,149.962 
					608.75,148.199 608.75,137.25 575.75,137.25 575.75,148.199 585.75,149.962 585.75,210.216 575.75,211.982 575.75,222.25 
					603.957,222.25 600.47,238.25 563.75,238.25 563.75,149.962 572.75,148.199 572.75,137.25 537.75,137.25 537.75,148.199 
					548.75,149.962 548.75,237.975 537.75,239.74 537.75,249.25 614.508,249.25 621.301,222.25 652.801,222.25 658.037,198.25 
					646.492,198.25 642.002,208.25 624.594,208.25 636.679,160.317 637.032,160.095 647.283,193.25 658.808,193.25 669.179,160.075 
					669.531,160.315 688.849,237.881 679.75,239.74 679.75,249.25 715.75,249.25 715.75,239.74 				"/>
				<polygon fill="#FFFFFF" points="704.431,233.897 684.029,145.882 693.75,144.119 693.75,134.25 659.871,134.25 650.443,167.25 
					650.092,167.25 640.841,134.25 610.75,134.25 610.75,144.087 618.031,145.997 604.385,205.25 599.75,205.25 599.75,145.882 
					607.75,144.119 607.75,134.25 572.75,134.25 572.75,144.119 582.75,145.882 582.75,206.141 572.75,207.904 572.75,217.25 
					601.236,217.25 597.751,233.25 561.75,233.25 561.75,145.882 569.75,144.119 569.75,134.25 536.75,134.25 536.75,144.119 
					545.75,145.882 545.75,233.897 536.75,235.661 536.75,245.25 611.787,245.25 618.582,217.25 650.08,217.25 655.318,195.25 
					643.775,195.25 639.283,205.25 621.873,205.25 633.958,156.774 634.312,156.324 644.562,189.25 656.089,189.25 666.46,156.034 
					666.812,156.258 685.989,233.813 676.75,235.661 676.75,245.25 714.75,245.25 714.75,235.661 				"/>
				<polygon fill="#FFFFFF" points="705.112,235.254 684.371,147.242 693.75,145.478 693.75,135.25 661.232,135.25 651.804,168.25 
					651.453,168.25 642.201,135.25 611.75,135.25 611.75,145.447 619.21,147.178 605.743,206.25 599.75,206.25 599.75,147.242 
					608.75,145.478 608.75,135.25 574.75,135.25 574.75,145.478 583.75,147.242 583.75,207.5 574.75,209.265 574.75,219.25 
					602.595,219.25 599.109,234.25 563.75,234.25 563.75,147.242 570.75,145.478 570.75,135.25 537.75,135.25 537.75,145.478 
					547.75,147.242 547.75,235.254 537.75,237.022 537.75,247.25 613.146,247.25 619.939,219.25 651.439,219.25 656.679,197.25 
					645.134,197.25 640.643,206.25 623.232,206.25 635.32,157.954 635.672,157.414 645.922,190.25 657.449,190.25 667.82,157.213 
					668.171,157.528 687.667,235.125 678.75,237.022 678.75,247.25 714.75,247.25 714.75,237.022 				"/>
			</g>
		</g>
	</g>
	<g>
		<g>
			<path fill="#F1C823" d="M61.058,57.281h144.957v59.432h-21.743v163.076h21.743v59.432H61.058v-59.432h21.745V116.712H61.058
				V57.281z"/>
			<path fill="#F1C823" d="M377.062,223.619h86.975v93.859c-4.836,2.899-10.691,5.979-17.577,9.239
				c-6.884,3.262-14.856,6.162-23.917,8.699c-9.061,2.535-19.331,4.648-30.803,6.341c-11.479,1.688-24.342,2.537-38.596,2.537
				c-21.262,0-40.469-2.662-57.62-7.974c-17.156-5.312-31.771-13.771-43.851-25.367c-12.083-11.596-21.38-26.636-27.904-45.117
				c-6.521-18.482-9.784-41.008-9.784-67.587c0-26.33,3.262-48.798,9.784-67.405c6.524-18.6,15.766-33.702,27.725-45.299
				c11.958-11.596,26.51-20.049,43.668-25.367c17.152-5.312,36.239-7.974,57.258-7.974c14.496,0,27.417,0.85,38.776,2.539
				c11.353,1.691,21.562,3.804,30.622,6.341c9.06,2.537,17.033,5.437,23.917,8.698c6.886,3.261,12.984,6.341,18.302,9.238v90.6
				h-86.975v-26.09c0-9.424-2.055-16.246-6.16-20.478c-4.111-4.223-10.272-6.342-18.482-6.342c-8.217,0-14.377,2.119-18.482,6.342
				c-4.11,4.23-6.159,11.054-6.159,20.478V252.97c0,9.423,2.049,16.251,6.159,20.478c4.104,4.229,10.266,6.341,18.482,6.341
				c8.21,0,14.371-2.112,18.482-6.341c4.104-4.227,6.16-11.055,6.16-20.478V223.619L377.062,223.619z"/>
		</g>
		<g>
			<circle fill="#F1C823" cx="621.45" cy="198.149" r="144.992"/>
			<g>
				<circle fill="#FFFFFF" cx="622.916" cy="199.616" r="128.147"/>
				<circle cx="619.984" cy="196.685" r="128.147"/>
				<circle fill="#F1C823" cx="621.45" cy="198.149" r="128.146"/>
			</g>
			<g>
				<polygon points="709.868,241.126 689.248,153.113 698.75,151.349 698.75,140.25 665.744,140.25 656.314,175.25 655.963,175.25 
					646.711,140.25 616.75,140.25 616.75,151.318 623.968,152.614 610.256,211.25 604.75,211.25 604.75,153.113 611.75,151.349 
					611.75,140.25 578.75,140.25 578.75,151.349 588.75,153.113 588.75,213.369 578.75,215.133 578.75,225.25 607.108,225.25 
					603.621,241.25 566.75,241.25 566.75,153.113 575.75,151.349 575.75,140.25 541.75,140.25 541.75,151.349 552.75,153.113 
					552.75,241.126 541.75,242.891 541.75,252.25 617.659,252.25 624.452,225.25 655.952,225.25 661.188,201.25 649.645,201.25 
					645.153,211.25 627.745,211.25 639.83,163.393 640.184,163.633 650.436,197.25 661.959,197.25 672.33,163.649 672.683,163.679 
					691.925,241.139 682.75,242.891 682.75,252.25 719.75,252.25 719.75,242.891 				"/>
				<polygon fill="#FFFFFF" points="707.507,237.047 687.568,149.035 697.75,147.269 697.75,137.25 663.021,137.25 653.595,170.25 
					653.242,170.25 643.992,137.25 613.75,137.25 613.75,147.238 621.107,149.073 607.536,208.25 602.75,208.25 602.75,149.035 
					610.75,147.269 610.75,137.25 575.75,137.25 575.75,147.269 585.75,149.035 585.75,209.292 575.75,211.056 575.75,220.25 
					604.388,220.25 600.902,236.25 564.75,236.25 564.75,149.035 572.75,147.269 572.75,137.25 539.75,137.25 539.75,147.269 
					548.75,149.035 548.75,237.047 539.75,238.813 539.75,249.25 614.938,249.25 621.733,220.25 653.23,220.25 658.47,198.25 
					646.926,198.25 642.436,208.25 625.024,208.25 637.109,159.848 637.463,159.361 647.714,192.25 659.24,192.25 669.611,159.11 
					669.964,159.371 689.064,236.946 679.75,238.813 679.75,249.25 717.75,249.25 717.75,238.813 				"/>
				<polygon fill="#F1C823" points="708.188,238.406 687.91,150.392 697.75,148.629 697.75,138.25 664.384,138.25 654.955,171.25 
					654.604,171.25 645.354,138.25 615.75,138.25 615.75,148.599 622.786,150.254 608.895,209.25 602.75,209.25 602.75,150.392 
					611.75,148.629 611.75,138.25 577.75,138.25 577.75,148.629 586.75,150.392 586.75,210.651 577.75,212.416 577.75,222.25 
					605.746,222.25 602.261,238.25 566.75,238.25 566.75,150.392 574.75,148.629 574.75,138.25 541.75,138.25 541.75,148.629 
					550.75,150.392 550.75,238.406 541.75,240.172 541.75,250.25 616.297,250.25 623.092,222.25 654.592,222.25 659.83,200.25 
					648.285,200.25 643.793,209.25 626.383,209.25 638.471,161.03 638.823,160.452 649.072,193.25 660.601,193.25 670.972,160.29 
					671.322,160.641 690.743,238.256 681.75,240.172 681.75,250.25 717.75,250.25 717.75,240.172 				"/>
			</g>
		</g>
	</g>
</g>
</svg>
